<?xml version="1.0" encoding="UTF-8"?>
<!-- Created with Inkscape (http://www.inkscape.org/) -->
<svg width="1280" height="320" version="1.1" viewBox="0 0 338.67 84.667" xmlns="http://www.w3.org/2000/svg">
 <path d="m0.37042 0h337.93c0.20521 0 0.37042 0.16521 0.37042 0.37042v83.926c0 0.20521-0.16521 0.37042-0.37042 0.37042h-337.93c-0.20521 0-0.37042-0.16521-0.37042-0.37042v-83.926c0-0.20521 0.16521-0.37042 0.37042-0.37042z" fill="#2196f3" stroke-linecap="round" stroke-width="11.551" style="paint-order:markers fill stroke"/>
 <g fill="#fff" stroke-width=".26458" aria-label="Scratch2Python">
  <path d="m47.49 41.516q0.5334 0.3429 1.3716 0.6858 0.8382 0.3048 1.8669 0.5334t2.0193 0.381q1.0287 0.1524 1.8288 0.1524 2.9337 0 4.953-0.8763 2.0574-0.8763 3.1242-2.4003 1.1049-1.524 1.1049-3.5052 0-1.4097-0.4572-2.4765-0.4572-1.1049-1.3335-1.9812t-2.1336-1.6383-2.9337-1.4859q-2.2479-1.1049-3.81-1.9431-1.5621-0.8763-2.3622-1.8669-0.762-0.9906-0.762-2.3622 0-1.8288 1.524-2.8575 1.5621-1.0287 4.0005-1.0287 1.2954 0 2.2479 0.2286 0.9906 0.1905 1.7526 0.4953 0.8001 0.3048 1.4478 0.6096l1.0287-2.3241q-1.2192-0.6096-2.9718-1.1049t-3.6576-0.4953q-2.5527 0-4.4196 0.8763-1.8288 0.8763-2.8575 2.3241-0.9906 1.4478-0.9906 3.3147 0 1.3335 0.4191 2.4384 0.4572 1.1049 1.2954 2.0574 0.8763 0.9144 2.1336 1.7145 1.2954 0.762 2.9718 1.524 2.2479 0.9144 3.7719 1.7907 1.524 0.8382 2.286 1.8288 0.8001 0.9906 0.8001 2.4003 0 1.1811-0.7239 2.1717-0.6858 0.9525-2.0574 1.4859t-3.429 0.5334q-1.1811 0-2.4003-0.2286-1.2192-0.2667-2.2479-0.6477-0.9906-0.381-1.7145-0.6858z"/>
  <path d="m80.256 39.459q-1.0668 0.5334-2.2098 0.9144-1.1049 0.3429-2.9337 0.3429-1.905 0-3.2385-0.9525-1.2954-0.9525-1.9431-2.5908-0.6477-1.6764-0.6477-3.7338 0.0381-1.9812 0.7239-3.5814 0.7239-1.6002 2.0574-2.5527t3.2004-0.9525q1.7907 0 2.9337 0.4191 1.143 0.381 2.2098 0.8382l0.9144-2.0955q-0.762-0.5334-1.905-0.9144-1.1049-0.381-2.2098-0.5715-1.1049-0.2286-1.8669-0.2286-2.7813 0-4.8387 1.2573-2.0574 1.2192-3.1623 3.3909-1.0668 2.1717-1.1049 5.0292 0 2.8956 1.0668 5.1054t3.048 3.4671q2.0193 1.2192 4.8006 1.2192 0.8001 0 1.905-0.2286 1.1049-0.1905 2.2098-0.5715 1.143-0.381 1.9431-0.8763z"/>
  <path d="m87.799 42.774v-12.725q0.8382-0.8382 1.9431-1.6002t2.3241-1.2573q1.2573-0.4953 2.3241-0.4953l-0.7239-2.4003q-0.9906 0-2.1717 0.4953-1.143 0.4953-2.2098 1.2192-1.0287 0.6858-1.7526 1.2573l-0.9144-2.9718h-1.7907v18.478z"/>
  <path d="m99.458 37.516q0-1.4478 0.9525-2.5146 0.9906-1.1049 2.8575-1.1049h4.8387v4.2291q-0.9525 1.1049-2.286 1.905t-2.9337 0.8001q-1.1811 0-1.9431-0.4953t-1.143-1.2573q-0.3429-0.8001-0.3429-1.5621zm-0.7239-9.8298q1.0287-0.4191 2.2479-0.8382 1.2573-0.4191 3.048-0.4191 2.2098 0 3.1242 1.2573 0.9525 1.2573 0.9525 3.1623v1.0287h-4.7625q-2.9718 0-4.8387 1.4859-1.8669 1.4478-1.8669 4.1529 0 2.4384 1.5621 4.0767t4.8006 1.6383q1.524 0 3.048-0.7239 1.5621-0.7239 2.4384-1.6002l0.381 1.8669h2.286v-12.725q0-1.8288-0.9144-3.2385t-2.5527-2.2098q-1.6002-0.8001-3.7338-0.8001-0.762 0-1.9431 0.2286-1.1811 0.1905-2.3241 0.5715-1.1049 0.3429-1.8288 0.8382z"/>
  <path d="m123.04 24.6h-3.3528v-5.5245l-3.048 0.8382v4.6863h-2.667l0.0381 2.286h2.6289v11.087q0 1.7526 0.6477 2.9337t1.8288 1.8288q1.1811 0.6096 2.7432 0.6096 0.5334 0 1.0668-0.1143 0.5334-0.0762 0.9906-0.2286t0.762-0.3048l-0.7239-2.3622q-0.2667 0.1143-0.762 0.2667-0.4572 0.1143-0.9144 0.1143-1.3716 0-1.9812-0.8763t-0.6096-2.286v-10.668h4.3053z"/>
  <path d="m140.83 39.459q-1.0668 0.5334-2.2098 0.9144-1.1049 0.3429-2.9337 0.3429-1.905 0-3.2385-0.9525-1.2954-0.9525-1.9431-2.5908-0.6477-1.6764-0.6477-3.7338 0.0381-1.9812 0.7239-3.5814 0.7239-1.6002 2.0574-2.5527t3.2004-0.9525q1.7907 0 2.9337 0.4191 1.143 0.381 2.2098 0.8382l0.9144-2.0955q-0.762-0.5334-1.905-0.9144-1.1049-0.381-2.2098-0.5715-1.1049-0.2286-1.8669-0.2286-2.7813 0-4.8387 1.2573-2.0574 1.2192-3.1623 3.3909-1.0668 2.1717-1.1049 5.0292 0 2.8956 1.0668 5.1054t3.048 3.4671q2.0193 1.2192 4.8006 1.2192 0.8001 0 1.905-0.2286 1.1049-0.1905 2.2098-0.5715 1.143-0.381 1.9431-0.8763z"/>
  <path d="m148.76 29.667q0.9144-0.9525 1.9812-1.6764 1.0668-0.762 2.1717-1.2192 1.143-0.4572 2.0574-0.4572 1.905 0 2.5908 1.2192 0.7239 1.2192 0.7239 3.1242v12.116h3.0099v-12.497q0-1.905-0.6096-3.3528-0.6096-1.4859-1.905-2.3241-1.2573-0.8763-3.2766-0.8763-1.2192 0-2.5146 0.4191t-2.4384 1.143-2.0193 1.6383zm0 13.106v-26.899l-2.9718 0.4191v26.479z"/>
  <path d="m171.89 20.714q-2.5146 0-4.191 0.6858-1.6383 0.6477-2.7051 1.2954l0.8763 2.4384q0.6858-0.381 1.524-0.8382 0.87629-0.4572 1.9812-0.762 1.1049-0.3429 2.4765-0.3429 2.286 0 3.6576 1.0287 1.4097 0.9906 1.4097 2.9337 0 1.1049-0.4953 2.0955-0.4572 0.9906-1.4097 2.0193t-2.4765 2.3241l-8.0391 7.0104v2.1717h16.535l-0.4953-2.3622h-12.04l5.6769-4.7625q2.0574-1.7526 3.2766-3.2004 1.2573-1.4478 1.8288-2.8194t0.5715-2.7813q0-1.905-0.9906-3.2766-0.9906-1.3716-2.7813-2.0955-1.7526-0.762-4.191-0.762z"/>
  <path d="m188.31 42.774v-9.7917h3.6576q2.0574 0 3.8481-0.4572 1.7907-0.4953 3.1623-1.4859t2.1717-2.5527 0.8001-3.6576q0-2.8575-1.2573-4.6101t-3.429-2.5527-4.8768-0.8001h-7.0485v25.908zm4.0767-23.355q1.9812 0 3.3909 0.5334 1.4478 0.4953 2.2479 1.6764 0.8382 1.1811 0.8382 3.2766-0.0381 1.9812-0.9525 3.2004-0.8763 1.2192-2.4003 1.7907-1.524 0.5334-3.429 0.5334h-3.7719v-11.011z"/>
  <path d="m209.26 45.783q-0.3048 0.8382-0.8763 1.4097t-1.3335 0.9525q-0.762 0.4191-1.6764 0.8382l0.9144 2.1717q1.3335-0.3048 2.4765-0.9525 1.143-0.6096 1.9812-1.5621 0.8763-0.9144 1.2954-2.0574l8.1153-22.288h-3.0099l-5.2959 14.288-5.6007-14.859-2.667 1.143 6.858 17.793z"/>
  <path d="m230.22 24.6h-3.3528v-5.5245l-3.048 0.8382v4.6863h-2.667l0.0381 2.286h2.6289v11.087q0 1.7526 0.6477 2.9337t1.8288 1.8288q1.1811 0.6096 2.7432 0.6096 0.5334 0 1.0668-0.1143 0.5334-0.0762 0.9906-0.2286t0.762-0.3048l-0.7239-2.3622q-0.2667 0.1143-0.762 0.2667-0.4572 0.1143-0.9144 0.1143-1.3716 0-1.9812-0.8763t-0.6096-2.286v-10.668h4.3053z"/>
  <path d="m238.48 29.667q0.9144-0.9525 1.9812-1.6764 1.0668-0.762 2.1717-1.2192 1.143-0.4572 2.0574-0.4572 1.905 0 2.5908 1.2192 0.7239 1.2192 0.7239 3.1242v12.116h3.0099v-12.497q0-1.905-0.6096-3.3528-0.6096-1.4859-1.905-2.3241-1.2573-0.8763-3.2766-0.8763-1.2192 0-2.5146 0.4191t-2.4384 1.143-2.0193 1.6383zm0 13.106v-26.899l-2.9718 0.4191v26.479z"/>
  <path d="m263.33 43.269q-2.7432 0.0381-4.7244-1.2192-1.9812-1.2954-3.048-3.4671-1.0287-2.2098-1.0287-5.1054 0.0381-2.8194 1.1049-4.9911 1.1049-2.1717 3.1242-3.429 2.0574-1.2573 4.8387-1.2573t4.7625 1.2192 3.048 3.3909 1.0668 5.1816q0 2.8194-1.143 4.9911-1.1049 2.1717-3.1623 3.429-2.0193 1.2573-4.8387 1.2573zm0.0762-2.5527q1.905 0 3.2385-0.9525t2.0193-2.5527q0.7239-1.6002 0.7239-3.5814 0-2.0955-0.6858-3.7338-0.6477-1.6383-1.9431-2.5908-1.2573-0.9525-3.2004-0.9525-1.8669 0-3.2004 0.9525t-2.0574 2.5527q-0.6858 1.6002-0.7239 3.5814 0 2.0574 0.6477 3.7338 0.6477 1.6383 1.9431 2.5908 1.3335 0.9525 3.2385 0.9525z"/>
  <path d="m279.06 42.774v-13.106q0.9144-0.9525 1.9812-1.6764 1.0668-0.762 2.1717-1.2192 1.143-0.4572 2.0574-0.4572 1.905 0 2.5908 1.2192 0.7239 1.2192 0.7239 3.1242v12.116h3.0099v-12.497q0-1.905-0.6096-3.3528-0.6096-1.4859-1.905-2.3241-1.2573-0.8763-3.2766-0.8763-1.2192 0-2.5146 0.4191t-2.4384 1.143-2.0193 1.6383l-0.5334-2.6289h-2.2098v18.478z"/>
 </g>
 <g fill="#fff" stroke-width=".26458" aria-label="Run Scratch projects in Python">
  <path d="m92.219 58.213q0.635 0 1.1176 0.1524 0.4826 0.1397 0.762 0.508t0.2794 1.0414q0 0.6477-0.3175 1.0287-0.3175 0.3683-0.8255 0.5334t-1.1176 0.1651h-1.2573v-3.429zm-2.3495-0.8509v8.636h0.9906v-3.5433h1.2192q0.2159 0 0.4699-0.0127 0.2667-0.0127 0.4445-0.0381l1.9812 3.5941h1.1049l-2.1971-3.8608q0.6604-0.2794 1.0795-0.8255 0.4318-0.5588 0.4445-1.4351 0-0.9144-0.4191-1.4605-0.4191-0.5588-1.143-0.8001-0.7239-0.254-1.6256-0.254z"/>
  <path d="m101.12 59.838v4.3561q-0.2794 0.3048-0.6477 0.5715-0.3683 0.254-0.7366 0.4064-0.3556 0.1397-0.6858 0.1397-0.6223 0-0.8636-0.4064t-0.2413-1.0414v-4.0259h-0.9906v4.1656q0 0.6223 0.1905 1.1176 0.2032 0.4953 0.635 0.7747t1.1049 0.2794q0.4064 0 0.8255-0.1397 0.4318-0.1397 0.8128-0.381 0.3937-0.254 0.6731-0.5461l0.1778 0.889h0.7493v-6.1595z"/>
  <path d="m104.72 65.998v-4.3688q0.3048-0.3175 0.6604-0.5588 0.3556-0.254 0.7239-0.4064 0.381-0.1524 0.6858-0.1524 0.635 0 0.8636 0.4064 0.2413 0.4064 0.2413 1.0414v4.0386h1.0033v-4.1656q0-0.635-0.2032-1.1176-0.2032-0.4953-0.635-0.7747-0.4191-0.2921-1.0922-0.2921-0.4064 0-0.8382 0.1397-0.4318 0.1397-0.8128 0.381t-0.6731 0.5461l-0.1778-0.8763h-0.7366v6.1595z"/>
  <path d="m113.29 65.579q0.1778 0.1143 0.4572 0.2286 0.2794 0.1016 0.6223 0.1778t0.6731 0.127q0.3429 0.0508 0.6096 0.0508 0.9779 0 1.651-0.2921 0.6858-0.2921 1.0414-0.8001 0.3683-0.508 0.3683-1.1684 0-0.4699-0.1524-0.8255-0.1524-0.3683-0.4445-0.6604t-0.7112-0.5461-0.9779-0.4953q-0.7493-0.3683-1.27-0.6477-0.5207-0.2921-0.7874-0.6223-0.254-0.3302-0.254-0.7874 0-0.6096 0.508-0.9525 0.5207-0.3429 1.3335-0.3429 0.4318 0 0.7493 0.0762 0.3302 0.0635 0.5842 0.1651 0.2667 0.1016 0.4826 0.2032l0.3429-0.7747q-0.4064-0.2032-0.9906-0.3683t-1.2192-0.1651q-0.8509 0-1.4732 0.2921-0.6096 0.2921-0.9525 0.7747-0.3302 0.4826-0.3302 1.1049 0 0.4445 0.1397 0.8128 0.1524 0.3683 0.4318 0.6858 0.2921 0.3048 0.7112 0.5715 0.4318 0.254 0.9906 0.508 0.7493 0.3048 1.2573 0.5969 0.508 0.2794 0.762 0.6096 0.2667 0.3302 0.2667 0.8001 0 0.3937-0.2413 0.7239-0.2286 0.3175-0.6858 0.4953t-1.143 0.1778q-0.3937 0-0.8001-0.0762-0.4064-0.0889-0.7493-0.2159-0.3302-0.127-0.5715-0.2286z"/>
  <path d="m124.21 64.893q-0.3556 0.1778-0.7366 0.3048-0.3683 0.1143-0.9779 0.1143-0.635 0-1.0795-0.3175-0.4318-0.3175-0.6477-0.8636-0.2159-0.5588-0.2159-1.2446 0.0127-0.6604 0.2413-1.1938 0.2413-0.5334 0.6858-0.8509t1.0668-0.3175q0.5969 0 0.9779 0.1397 0.381 0.127 0.7366 0.2794l0.3048-0.6985q-0.254-0.1778-0.635-0.3048-0.3683-0.127-0.7366-0.1905-0.3683-0.0762-0.6223-0.0762-0.9271 0-1.6129 0.4191-0.6858 0.4064-1.0541 1.1303-0.3556 0.7239-0.3683 1.6764 0 0.9652 0.3556 1.7018t1.016 1.1557q0.6731 0.4064 1.6002 0.4064 0.2667 0 0.635-0.0762 0.3683-0.0635 0.7366-0.1905 0.381-0.127 0.6477-0.2921z"/>
  <path d="m126.72 65.998v-4.2418q0.2794-0.2794 0.6477-0.5334t0.7747-0.4191q0.4191-0.1651 0.7747-0.1651l-0.2413-0.8001q-0.3302 0-0.7239 0.1651-0.381 0.1651-0.7366 0.4064-0.3429 0.2286-0.5842 0.4191l-0.3048-0.9906h-0.5969v6.1595z"/>
  <path d="m130.61 64.245q0-0.4826 0.3175-0.8382 0.3302-0.3683 0.9525-0.3683h1.6129v1.4097q-0.3175 0.3683-0.762 0.635t-0.9779 0.2667q-0.3937 0-0.6477-0.1651t-0.381-0.4191q-0.1143-0.2667-0.1143-0.5207zm-0.2413-3.2766q0.3429-0.1397 0.7493-0.2794 0.4191-0.1397 1.016-0.1397 0.7366 0 1.0414 0.4191 0.3175 0.4191 0.3175 1.0541v0.3429h-1.5875q-0.9906 0-1.6129 0.4953-0.6223 0.4826-0.6223 1.3843 0 0.8128 0.5207 1.3589t1.6002 0.5461q0.508 0 1.016-0.2413 0.5207-0.2413 0.8128-0.5334l0.127 0.6223h0.762v-4.2418q0-0.6096-0.3048-1.0795t-0.8509-0.7366q-0.5334-0.2667-1.2446-0.2667-0.254 0-0.6477 0.0762-0.3937 0.0635-0.7747 0.1905-0.3683 0.1143-0.6096 0.2794z"/>
  <path d="m138.47 59.94h-1.1176v-1.8415l-1.016 0.2794v1.5621h-0.889l0.0127 0.762h0.8763v3.6957q0 0.5842 0.2159 0.9779t0.6096 0.6096q0.3937 0.2032 0.9144 0.2032 0.1778 0 0.3556-0.0381 0.1778-0.0254 0.3302-0.0762t0.254-0.1016l-0.2413-0.7874q-0.0889 0.0381-0.254 0.0889-0.1524 0.0381-0.3048 0.0381-0.4572 0-0.6604-0.2921t-0.2032-0.762v-3.556h1.4351z"/>
  <path d="m144.4 64.893q-0.3556 0.1778-0.7366 0.3048-0.3683 0.1143-0.9779 0.1143-0.635 0-1.0795-0.3175-0.4318-0.3175-0.6477-0.8636-0.21589-0.5588-0.21589-1.2446 0.0127-0.6604 0.24129-1.1938 0.2413-0.5334 0.6858-0.8509t1.0668-0.3175q0.5969 0 0.9779 0.1397 0.381 0.127 0.7366 0.2794l0.3048-0.6985q-0.254-0.1778-0.635-0.3048-0.3683-0.127-0.7366-0.1905-0.3683-0.0762-0.6223-0.0762-0.9271 0-1.6129 0.4191-0.68579 0.4064-1.0541 1.1303-0.3556 0.7239-0.3683 1.6764 0 0.9652 0.3556 1.7018t1.016 1.1557q0.6731 0.4064 1.6002 0.4064 0.2667 0 0.635-0.0762 0.3683-0.0635 0.7366-0.1905 0.381-0.127 0.6477-0.2921z"/>
  <path d="m147.04 61.629q0.3048-0.3175 0.6604-0.5588 0.3556-0.254 0.7239-0.4064 0.381-0.1524 0.6858-0.1524 0.635 0 0.8636 0.4064 0.2413 0.4064 0.2413 1.0414v4.0386h1.0033v-4.1656q0-0.635-0.2032-1.1176-0.2032-0.4953-0.635-0.7747-0.4191-0.2921-1.0922-0.2921-0.4064 0-0.8382 0.1397-0.4318 0.1397-0.8128 0.381t-0.6731 0.5461zm0 4.3688v-8.9662l-0.9906 0.1397v8.8265z"/>
  <path d="m156.8 68.639v-8.001l-0.3937-0.8001h-0.5969v8.9408zm-0.3048-7.2009q0.3683-0.4318 0.762-0.6731 0.4064-0.2413 1.0033-0.2413 0.635 0 1.0541 0.3175 0.4318 0.3048 0.635 0.8509t0.2032 1.2573q0 0.6604-0.2159 1.1938t-0.6477 0.8509q-0.4191 0.3175-1.0541 0.3175-0.5969 0-1.0033-0.2286-0.4064-0.2413-0.762-0.635l-0.3048 0.6858q0.2667 0.3175 0.6096 0.5461 0.3556 0.2286 0.7239 0.3556 0.381 0.127 0.7112 0.127 0.9271 0 1.5875-0.4064 0.6604-0.4191 1.016-1.143 0.3683-0.7366 0.3683-1.6764 0-0.9779-0.3429-1.7018-0.3429-0.7366-1.0033-1.143-0.6604-0.4191-1.5875-0.4191-0.3175 0-0.6985 0.1143-0.381 0.1143-0.7366 0.3556-0.3556 0.2286-0.6223 0.5715z"/>
  <path d="m163.38 65.998v-4.2418q0.2794-0.2794 0.6477-0.5334t0.7747-0.4191q0.4191-0.1651 0.7747-0.1651l-0.2413-0.8001q-0.3302 0-0.7239 0.1651-0.381 0.1651-0.7366 0.4064-0.3429 0.2286-0.5842 0.4191l-0.3048-0.9906h-0.5969v6.1595z"/>
  <path d="m169.05 66.163q-0.9144 0.0127-1.5748-0.4064-0.6604-0.4318-1.016-1.1557-0.3429-0.7366-0.3429-1.7018 0.0127-0.9398 0.3683-1.6637 0.3683-0.7239 1.0414-1.143 0.6858-0.4191 1.6129-0.4191t1.5875 0.4064q0.6604 0.4064 1.016 1.1303t0.3556 1.7272q0 0.9398-0.381 1.6637-0.3683 0.7239-1.0541 1.143-0.6731 0.4191-1.6129 0.4191zm0.0254-0.8509q0.635 0 1.0795-0.3175t0.6731-0.8509q0.2413-0.5334 0.2413-1.1938 0-0.6985-0.2286-1.2446-0.2159-0.5461-0.6477-0.8636-0.4191-0.3175-1.0668-0.3175-0.6223 0-1.0668 0.3175t-0.6858 0.8509q-0.2286 0.5334-0.2413 1.1938 0 0.6858 0.2159 1.2446 0.2159 0.5461 0.6477 0.8636 0.4445 0.3175 1.0795 0.3175z"/>
  <path d="m173.96 58.619q-0.1778 0-0.3429-0.0889-0.1524-0.0889-0.2413-0.2413-0.0889-0.1651-0.0889-0.3556 0-0.2794 0.1905-0.4826t0.4826-0.2032q0.2794 0 0.4826 0.2032 0.2159 0.2032 0.2159 0.4826t-0.2032 0.4826-0.4953 0.2032zm0.5207 1.2192v6.5405q0 0.635-0.1016 1.0668t-0.4318 0.7239-1.0414 0.5207l-0.3937-0.7239q0.4445-0.1651 0.635-0.3556 0.2032-0.1778 0.2667-0.4699t0.0508-0.762v-6.5405z"/>
  <path d="m181.32 63.077v-0.0889q0-0.9271-0.2794-1.6764-0.2667-0.7493-0.8509-1.1938-0.5715-0.4445-1.4986-0.4445-0.9144 0-1.5621 0.4191-0.635 0.4064-0.9779 1.1303-0.3302 0.7239-0.3302 1.6764 0 0.9652 0.3556 1.7018t1.0668 1.143q0.7239 0.4064 1.8034 0.4064 0.4572 0 0.8382-0.0889 0.3937-0.0762 0.7239-0.2159 0.3429-0.1524 0.635-0.3175l-0.3302-0.7366q-0.4826 0.2413-0.9144 0.3937-0.4318 0.1397-0.9652 0.1397-0.762 0-1.2319-0.2921t-0.6985-0.8001q-0.2159-0.508-0.254-1.1557zm-4.445-0.6858q0.0635-0.5588 0.2667-0.9779 0.2159-0.4191 0.5842-0.6477 0.381-0.2413 0.9271-0.2413 0.5334 0 0.8763 0.2413 0.3556 0.2286 0.5461 0.6477t0.254 0.9779z"/>
  <path d="m186.83 64.893q-0.3556 0.1778-0.7366 0.3048-0.3683 0.1143-0.9779 0.1143-0.635 0-1.0795-0.3175-0.4318-0.3175-0.6477-0.8636-0.2159-0.5588-0.2159-1.2446 0.0127-0.6604 0.2413-1.1938 0.2413-0.5334 0.6858-0.8509t1.0668-0.3175q0.5969 0 0.9779 0.1397 0.381 0.127 0.7366 0.2794l0.3048-0.6985q-0.254-0.1778-0.635-0.3048-0.3683-0.127-0.7366-0.1905-0.3683-0.0762-0.6223-0.0762-0.9271 0-1.6129 0.4191-0.6858 0.4064-1.0541 1.1303-0.3556 0.7239-0.3683 1.6764 0 0.9652 0.3556 1.7018t1.016 1.1557q0.6731 0.4064 1.6002 0.4064 0.2667 0 0.635-0.0762 0.3683-0.0635 0.7366-0.1905 0.381-0.127 0.6477-0.2921z"/>
  <path d="m190.78 59.94h-1.1176v-1.8415l-1.016 0.2794v1.5621h-0.889l0.0127 0.762h0.8763v3.6957q0 0.5842 0.2159 0.9779t0.6096 0.6096q0.3937 0.2032 0.9144 0.2032 0.1778 0 0.3556-0.0381 0.1778-0.0254 0.3302-0.0762t0.254-0.1016l-0.2413-0.7874q-0.0889 0.0381-0.254 0.0889-0.1524 0.0381-0.3048 0.0381-0.4572 0-0.6604-0.2921t-0.2032-0.762v-3.556h1.4351z"/>
  <path d="m192.1 65.642q0.254 0.1651 0.6096 0.2794t0.7239 0.1778q0.381 0.0635 0.635 0.0635 1.2065 0 1.8288-0.4699 0.635-0.4826 0.635-1.3208 0-0.508-0.3048-0.8763t-0.7747-0.635-0.9779-0.4318q-0.6096-0.2032-1.016-0.4445-0.4064-0.254-0.4191-0.5969 0-0.3937 0.3556-0.6477 0.3683-0.254 0.9398-0.254 0.5334 0 0.9271 0.1397t0.6985 0.2921l0.3175-0.6985q-0.2286-0.1651-0.5842-0.2794-0.3556-0.127-0.7239-0.1905-0.3556-0.0762-0.6223-0.0762-1.0541 0-1.6764 0.4699-0.6223 0.4572-0.6223 1.2827 0 0.4826 0.3048 0.8382 0.3048 0.3429 0.762 0.5842 0.4699 0.2286 0.9525 0.3937 0.4191 0.1397 0.762 0.3175 0.3429 0.1651 0.5461 0.381 0.2159 0.2159 0.2159 0.4953t-0.1905 0.4953q-0.1905 0.2032-0.5334 0.3175-0.3302 0.1016-0.7874 0.1016-0.2921 0-0.5842-0.0508-0.2921-0.0635-0.5715-0.1524-0.2667-0.1016-0.5207-0.2159z"/>
  <path d="m201.73 65.998v-6.1595h-1.016v6.1595zm-0.5207-7.3787q0.2794 0 0.4826-0.1905 0.2032-0.2032 0.2032-0.4953t-0.2159-0.4826q-0.2032-0.2032-0.4826-0.2032-0.2921 0-0.4826 0.2032-0.1905 0.1905-0.1905 0.4826t0.1905 0.4953q0.1905 0.1905 0.4953 0.1905z"/>
  <path d="m204.31 65.998v-4.3688q0.3048-0.3175 0.6604-0.5588 0.3556-0.254 0.7239-0.4064 0.381-0.1524 0.6858-0.1524 0.635 0 0.8636 0.4064 0.2413 0.4064 0.2413 1.0414v4.0386h1.0033v-4.1656q0-0.635-0.2032-1.1176-0.2032-0.4953-0.635-0.7747-0.4191-0.2921-1.0922-0.2921-0.4064 0-0.8382 0.1397-0.4318 0.1397-0.8128 0.381t-0.6731 0.5461l-0.1778-0.8763h-0.7366v6.1595z"/>
  <path d="m214.37 65.998v-3.2639h1.2192q0.6858 0 1.2827-0.1524 0.5969-0.1651 1.0541-0.4953t0.7239-0.8509 0.2667-1.2192q0-0.9525-0.4191-1.5367t-1.143-0.8509-1.6256-0.2667h-2.3495v8.636zm1.3589-7.7851q0.6604 0 1.1303 0.1778 0.4826 0.1651 0.7493 0.5588 0.2794 0.3937 0.2794 1.0922-0.0127 0.6604-0.3175 1.0668-0.2921 0.4064-0.8001 0.5969-0.508 0.1778-1.143 0.1778h-1.2573v-3.6703z"/>
  <path d="m221.35 67.001q-0.1016 0.2794-0.2921 0.4699t-0.4445 0.3175q-0.254 0.1397-0.5588 0.2794l0.3048 0.7239q0.4445-0.1016 0.8255-0.3175 0.381-0.2032 0.6604-0.5207 0.2921-0.3048 0.4318-0.6858l2.7051-7.4295h-1.0033l-1.7653 4.7625-1.8669-4.953-0.889 0.381 2.286 5.9309z"/>
  <path d="m228.34 59.94h-1.1176v-1.8415l-1.016 0.2794v1.5621h-0.889l0.0127 0.762h0.8763v3.6957q0 0.5842 0.2159 0.9779t0.6096 0.6096q0.3937 0.2032 0.9144 0.2032 0.1778 0 0.3556-0.0381 0.1778-0.0254 0.3302-0.0762t0.254-0.1016l-0.2413-0.7874q-0.0889 0.0381-0.254 0.0889-0.1524 0.0381-0.3048 0.0381-0.4572 0-0.6604-0.2921t-0.2032-0.762v-3.556h1.4351z"/>
  <path d="m231.09 61.629q0.3048-0.3175 0.6604-0.5588 0.3556-0.254 0.7239-0.4064 0.381-0.1524 0.6858-0.1524 0.635 0 0.8636 0.4064 0.2413 0.4064 0.2413 1.0414v4.0386h1.0033v-4.1656q0-0.635-0.2032-1.1176-0.2032-0.4953-0.635-0.7747-0.4191-0.2921-1.0922-0.2921-0.4064 0-0.8382 0.1397-0.4318 0.1397-0.8128 0.381t-0.6731 0.5461zm0 4.3688v-8.9662l-0.9906 0.1397v8.8265z"/>
  <path d="m239.37 66.163q-0.9144 0.0127-1.5748-0.4064-0.6604-0.4318-1.016-1.1557-0.3429-0.7366-0.3429-1.7018 0.0127-0.9398 0.3683-1.6637 0.3683-0.7239 1.0414-1.143 0.6858-0.4191 1.6129-0.4191t1.5875 0.4064q0.6604 0.4064 1.016 1.1303t0.3556 1.7272q0 0.9398-0.381 1.6637-0.3683 0.7239-1.0541 1.143-0.6731 0.4191-1.6129 0.4191zm0.0254-0.8509q0.635 0 1.0795-0.3175t0.6731-0.8509q0.2413-0.5334 0.2413-1.1938 0-0.6985-0.2286-1.2446-0.2159-0.5461-0.6477-0.8636-0.4191-0.3175-1.0668-0.3175-0.6223 0-1.0668 0.3175t-0.6858 0.8509q-0.2286 0.5334-0.2413 1.1938 0 0.6858 0.2159 1.2446 0.2159 0.5461 0.6477 0.8636 0.4445 0.3175 1.0795 0.3175z"/>
  <path d="m244.62 65.998v-4.3688q0.3048-0.3175 0.6604-0.5588 0.3556-0.254 0.7239-0.4064 0.381-0.1524 0.6858-0.1524 0.635 0 0.8636 0.4064 0.2413 0.4064 0.2413 1.0414v4.0386h1.0033v-4.1656q0-0.635-0.2032-1.1176-0.2032-0.4953-0.635-0.7747-0.4191-0.2921-1.0922-0.2921-0.4064 0-0.8382 0.1397-0.4318 0.1397-0.8128 0.381t-0.6731 0.5461l-0.1778-0.8763h-0.7366v6.1595z"/>
 </g>
</svg>
