<?xml version="1.0" encoding="UTF-8" standalone="no"?>
<!-- Created with Inkscape (http://www.inkscape.org/) -->

<svg
   width="64"
   height="64"
   viewBox="0 0 16.933333 16.933334"
   version="1.1"
   id="svg5"
   inkscape:version="1.1 (c68e22c387, 2021-05-23)"
   sodipodi:docname="icon.svg"
   xmlns:inkscape="http://www.inkscape.org/namespaces/inkscape"
   xmlns:sodipodi="http://sodipodi.sourceforge.net/DTD/sodipodi-0.dtd"
   xmlns="http://www.w3.org/2000/svg"
   xmlns:svg="http://www.w3.org/2000/svg">
  <sodipodi:namedview
     id="namedview7"
     pagecolor="#ffffff"
     bordercolor="#666666"
     borderopacity="1.0"
     inkscape:pageshadow="2"
     inkscape:pageopacity="0.0"
     inkscape:pagecheckerboard="0"
     inkscape:document-units="px"
     showgrid="false"
     units="px"
     width="793.70081px"
     inkscape:zoom="11.217621"
     inkscape:cx="37.931395"
     inkscape:cy="35.524468"
     inkscape:window-width="1920"
     inkscape:window-height="1052"
     inkscape:window-x="0"
     inkscape:window-y="0"
     inkscape:window-maximized="1"
     inkscape:current-layer="g1073" />
  <defs
     id="defs2" />
  <g
     inkscape:label="Strat 1"
     inkscape:groupmode="layer"
     id="layer1">
    <g
       style="fill:#000000"
       id="g1073"
       transform="scale(0.70555556)">
      <path
         d="M 21,2 H 3 C 1.9,2 1,2.9 1,4 v 12 c 0,1.1 0.9,2 2,2 h 7 v 2 H 8 v 2 h 8 v -2 h -2 v -2 h 7 c 1.1,0 2,-0.9 2,-2 V 4 C 23,2.9 22.1,2 21,2 Z m 0,14 H 3 V 4 h 18 z"
         id="path1063"
         style="fill:#212121" />
      <g
         style="fill:#000000"
         id="g1363"
         transform="matrix(0.6,0,0,0.6,39.724979,3.6526061)">
        <path
           d="m -44.308299,4.037323 -0.4,-1.9999998 h -9 V 19.037323 h 2 v -7 h 5.6 l 0.4,2 h 7 v -10 z"
           id="path1353"
           style="fill:#00c853" />
      </g>
    </g>
  </g>
</svg>
