<?xml version="1.0" encoding="UTF-8"?>
<!-- Created with Inkscape (http://www.inkscape.org/) -->
<svg width="64" height="64" version="1.1" viewBox="0 0 16.933 16.933" xmlns="http://www.w3.org/2000/svg">
 <g transform="scale(.70556)">
  <path d="m21 2h-18c-1.1 0-2 0.9-2 2v12c0 1.1 0.9 2 2 2h7v2h-2v2h8v-2h-2v-2h7c1.1 0 2-0.9 2-2v-12c0-1.1-0.9-2-2-2zm0 14h-18v-12h18z" fill="#546e7a"/>
  <g transform="matrix(.6 0 0 .6 39.725 3.6526)">
   <path d="m-44.308 4.0373-0.4-2h-9v17h2v-7h5.6l0.4 2h7v-10z" fill="#00c853"/>
  </g>
 </g>
</svg>
