<?xml version="1.0" encoding="UTF-8"?>
<!-- Created with Inkscape (http://www.inkscape.org/) -->
<svg width="362.72" height="96" version="1.1" viewBox="0 0 95.969 25.4" xmlns="http://www.w3.org/2000/svg">
 <path d="M 25.4,12.7 A 12.7,12.7 0 0 1 12.7,25.4 12.7,12.7 0 0 1 0,12.7 12.7,12.7 0 0 1 12.7,0 12.7,12.7 0 0 1 25.4,12.7 Z" fill="#26c6da" stroke-width="0" style="paint-order:markers fill stroke"/>
 <g transform="translate(-1.8521 -.66146)">
  <path d="m14.817 9.2604c-0.58208 0-1.053 0.47625-1.053 1.0583l-0.0052 8.4667c0 0.58208 0.47096 1.0583 1.053 1.0583h6.3553c0.58208 0 1.0583-0.47625 1.0583-1.0583v-6.35l-3.175-3.175zm3.7042 3.7042v-2.9104l2.9104 2.9104z" fill="#fff" stroke-width=".52917"/>
  <g fill="#26c6da" stroke-width=".26458" aria-label=".py">
   <path d="m17.436 18.004q0.09525 0 0.15875-0.06668 0.06667-0.06668 0.06667-0.1651t-0.06667-0.1651q-0.0635-0.06668-0.15875-0.06668-0.1016 0-0.17145 0.06668-0.06668 0.06668-0.06668 0.16828 0 0.09525 0.06668 0.16192 0.06985 0.06668 0.17145 0.06668z"/>
   <path d="m18.36 18.668v-1.9526l-0.20002-0.25082h-0.20955v2.2352zm-0.1397-1.6891q0.11112-0.1016 0.20638-0.1524t0.20638-0.0508q0.12065 0 0.20002 0.06032 0.07937 0.05715 0.12065 0.15875 0.04127 0.09842 0.04127 0.23178 0 0.13018-0.04127 0.23812-0.0381 0.10478-0.12065 0.1651-0.08255 0.06033-0.20002 0.06033-0.10795 0-0.20638-0.04445-0.09842-0.04763-0.20638-0.17145l-0.11748 0.2794q0.04763 0.07303 0.13652 0.1397 0.0889 0.06668 0.19368 0.10795 0.10795 0.04128 0.20002 0.04128 0.254 0 0.42862-0.1016 0.17462-0.10478 0.2667-0.28575 0.09525-0.18415 0.09525-0.42862t-0.09525-0.42545q-0.09208-0.18098-0.2667-0.2794-0.17145-0.09842-0.41275-0.09842-0.10795 0-0.20638 0.03493-0.09842 0.03492-0.18415 0.09842-0.08255 0.0635-0.15558 0.1524z"/>
   <path d="m19.992 18.077q-0.0254 0.06985-0.09525 0.12382-0.06668 0.05398-0.1524 0.09525-0.08255 0.04128-0.15558 0.07303l0.14605 0.33972q0.13652-0.03175 0.26352-0.1016 0.13018-0.06985 0.23178-0.17462 0.1016-0.1016 0.14922-0.22542l0.68898-1.7431h-0.43498l-0.33338 0.93345-0.35878-0.99378-0.4064 0.127 0.53022 1.3652z"/>
  </g>
  <path d="m12.382 8.4667-0.21167-1.0583h-4.7625v8.9958h1.0583v-3.7042h2.9633l0.21166 1.0583h3.7042v-5.2917z" fill="#fff" stroke="#26c6da" stroke-width="1.0583" style="paint-order:markers stroke fill"/>
 </g>
 <g stroke-width=".26458" aria-label="Scratch2Python">
  <path d="m28.162 14.922q0.14817 0.09525 0.381 0.1905 0.23283 0.08467 0.51858 0.14817 0.28575 0.0635 0.56092 0.10583 0.28575 0.04233 0.508 0.04233 0.81491 0 1.3758-0.24342 0.5715-0.24342 0.86783-0.66675 0.30692-0.42333 0.30692-0.97366 0-0.39158-0.127-0.68791-0.127-0.30691-0.37042-0.55033t-0.59266-0.45508-0.81491-0.41275q-0.62442-0.30692-1.0583-0.53975-0.43392-0.24342-0.65616-0.51858-0.21167-0.27517-0.21167-0.65616 0-0.508 0.42333-0.79375 0.43392-0.28575 1.1112-0.28575 0.35983 0 0.62441 0.0635 0.27517 0.052917 0.48683 0.13758 0.22225 0.084666 0.40217 0.16933l0.28575-0.64558q-0.33867-0.16933-0.8255-0.30692-0.48683-0.13758-1.016-0.13758-0.70908 0-1.2277 0.24342-0.508 0.24342-0.79375 0.64558-0.27516 0.40217-0.27516 0.92075 0 0.37042 0.11642 0.67733 0.127 0.30692 0.35983 0.5715 0.24342 0.254 0.59266 0.47625 0.35983 0.21167 0.8255 0.42333 0.62442 0.254 1.0477 0.49742 0.42333 0.23283 0.635 0.508 0.22225 0.27517 0.22225 0.66675 0 0.32808-0.20108 0.60325-0.1905 0.26458-0.5715 0.41275-0.381 0.14817-0.9525 0.14817-0.32808 0-0.66675-0.0635-0.33866-0.07408-0.62441-0.17992-0.27517-0.10583-0.47625-0.1905z"/>
  <path d="m37.264 14.351q-0.29633 0.14817-0.61383 0.254-0.30692 0.09525-0.81491 0.09525-0.52916 0-0.89958-0.26458-0.35983-0.26458-0.53975-0.71966-0.17992-0.46566-0.17992-1.0372 0.01058-0.55033 0.20108-0.99483 0.20108-0.4445 0.5715-0.70908 0.37042-0.26458 0.889-0.26458 0.49742 0 0.81491 0.11642 0.3175 0.10583 0.61383 0.23283l0.254-0.58208q-0.21167-0.14817-0.52916-0.254-0.30692-0.10583-0.61383-0.15875-0.30692-0.0635-0.51858-0.0635-0.77258 0-1.3441 0.34925-0.5715 0.33866-0.87841 0.94191-0.29633 0.60325-0.30692 1.397 0 0.80433 0.29633 1.4182 0.29633 0.61383 0.84666 0.96308 0.56092 0.33867 1.3335 0.33867 0.22225 0 0.52916-0.0635 0.30692-0.05292 0.61383-0.15875 0.3175-0.10583 0.53975-0.24342z"/>
  <path d="m39.359 15.272v-3.5348q0.23283-0.23283 0.53975-0.4445t0.64558-0.34925q0.34925-0.13758 0.64558-0.13758l-0.20108-0.66675q-0.27517 0-0.60325 0.13758-0.3175 0.13758-0.61383 0.33867-0.28575 0.1905-0.48683 0.34925l-0.254-0.8255h-0.49742v5.1329z"/>
  <path d="m42.598 13.811q0-0.40217 0.26458-0.6985 0.27516-0.30692 0.79375-0.30692h1.3441v1.1747q-0.26458 0.30692-0.635 0.52916-0.37042 0.22225-0.81491 0.22225-0.32808 0-0.53975-0.13758t-0.3175-0.34925q-0.09525-0.22225-0.09525-0.43392zm-0.20108-2.7305q0.28575-0.11642 0.62441-0.23283 0.34925-0.11642 0.84666-0.11642 0.61383 0 0.86783 0.34925 0.26458 0.34925 0.26458 0.87841v0.28575h-1.3229q-0.8255 0-1.3441 0.41275-0.51858 0.40216-0.51858 1.1536 0 0.67733 0.43392 1.1324 0.43392 0.45508 1.3335 0.45508 0.42333 0 0.84666-0.20108 0.43392-0.20108 0.67733-0.4445l0.10583 0.51858h0.635v-3.5348q0-0.508-0.254-0.89958t-0.70908-0.61383q-0.4445-0.22225-1.0372-0.22225-0.21167 0-0.53975 0.0635-0.32808 0.05292-0.64558 0.15875-0.30692 0.09525-0.508 0.23283z"/>
  <path d="m49.149 10.224h-0.93133v-1.5346l-0.84666 0.23283v1.3017h-0.74083l0.01058 0.635h0.73025v3.0797q0 0.48683 0.17992 0.81491t0.508 0.508q0.32808 0.16933 0.762 0.16933 0.14817 0 0.29633-0.03175 0.14817-0.02117 0.27517-0.0635 0.127-0.04233 0.21167-0.08467l-0.20108-0.65616q-0.07408 0.03175-0.21167 0.07408-0.127 0.03175-0.254 0.03175-0.381 0-0.55033-0.24342-0.16933-0.24342-0.16933-0.635v-2.9633h1.1959z"/>
  <path d="m54.091 14.351q-0.29633 0.14817-0.61383 0.254-0.30692 0.09525-0.81492 0.09525-0.52916 0-0.89958-0.26458-0.35983-0.26458-0.53975-0.71966-0.17992-0.46566-0.17992-1.0372 0.01058-0.55033 0.20108-0.99483 0.20108-0.4445 0.5715-0.70908 0.37042-0.26458 0.889-0.26458 0.49742 0 0.81491 0.11642 0.3175 0.10583 0.61383 0.23283l0.254-0.58208q-0.21167-0.14817-0.52916-0.254-0.30692-0.10583-0.61383-0.15875-0.30692-0.0635-0.51858-0.0635-0.77258 0-1.3441 0.34925-0.5715 0.33866-0.87841 0.94191-0.29633 0.60325-0.30692 1.397 0 0.80433 0.29633 1.4182t0.84666 0.96308q0.56092 0.33867 1.3335 0.33867 0.22225 0 0.52916-0.0635 0.30692-0.05292 0.61383-0.15875 0.3175-0.10583 0.53975-0.24342z"/>
  <path d="m56.293 11.631q0.254-0.26458 0.55033-0.46566 0.29633-0.21167 0.60325-0.33867 0.3175-0.127 0.5715-0.127 0.52916 0 0.71966 0.33867 0.20108 0.33867 0.20108 0.86783v3.3655h0.83608v-3.4713q0-0.52916-0.16933-0.93133-0.16933-0.41275-0.52916-0.64558-0.34925-0.24342-0.91016-0.24342-0.33867 0-0.6985 0.11642-0.35983 0.11642-0.67733 0.3175-0.3175 0.20108-0.56092 0.45508zm0 3.6407v-7.4718l-0.8255 0.11642v7.3554z"/>
  <path d="m62.717 9.144q-0.6985 0-1.1642 0.1905-0.45508 0.17992-0.75142 0.35983l0.24342 0.67733q0.1905-0.10583 0.42333-0.23283 0.24342-0.127 0.55033-0.21167 0.30692-0.09525 0.68791-0.09525 0.635 0 1.016 0.28575 0.39158 0.27517 0.39158 0.81491 0 0.30692-0.13758 0.58208-0.127 0.27517-0.39158 0.56092-0.26458 0.28575-0.68791 0.64558l-2.2331 1.9473v0.60325h4.5932l-0.13758-0.65616h-3.3443l1.5769-1.3229q0.5715-0.48683 0.91016-0.889 0.34925-0.40217 0.508-0.78316 0.15875-0.381 0.15875-0.77258 0-0.52916-0.27517-0.91016-0.27516-0.381-0.77258-0.58208-0.48683-0.21167-1.1642-0.21167z"/>
  <path d="m67.278 15.272v-2.7199h1.016q0.5715 0 1.0689-0.127 0.49742-0.13758 0.87841-0.41275 0.381-0.27517 0.60325-0.70908 0.22225-0.43392 0.22225-1.016 0-0.79375-0.34925-1.2806t-0.9525-0.70908-1.3547-0.22225h-1.9579v7.1966zm1.1324-6.4876q0.55033 0 0.94191 0.14817 0.40216 0.13758 0.62441 0.46567 0.23283 0.32808 0.23283 0.91016-0.01058 0.55033-0.26458 0.889-0.24342 0.33866-0.66675 0.49742-0.42333 0.14817-0.9525 0.14817h-1.0477v-3.0586z"/>
  <path d="m73.099 16.108q-0.08467 0.23283-0.24342 0.39158-0.15875 0.15875-0.37042 0.26458-0.21167 0.11642-0.46567 0.23283l0.254 0.60325q0.37042-0.08467 0.68791-0.26458 0.3175-0.16933 0.55033-0.43392 0.24342-0.254 0.35983-0.5715l2.2542-6.1912h-0.83608l-1.4711 3.9687-1.5557-4.1275-0.74083 0.3175 1.905 4.9424z"/>
  <path d="m78.92 10.224h-0.93133v-1.5346l-0.84666 0.23283v1.3017h-0.74083l0.01058 0.635h0.73025v3.0797q0 0.48683 0.17992 0.81491t0.508 0.508q0.32808 0.16933 0.762 0.16933 0.14817 0 0.29633-0.03175 0.14817-0.02117 0.27516-0.0635 0.127-0.04233 0.21167-0.08467l-0.20108-0.65616q-0.07408 0.03175-0.21167 0.07408-0.127 0.03175-0.254 0.03175-0.381 0-0.55033-0.24342t-0.16933-0.635v-2.9633h1.1959z"/>
  <path d="m81.216 11.631q0.254-0.26458 0.55033-0.46566 0.29633-0.21167 0.60325-0.33867 0.3175-0.127 0.5715-0.127 0.52916 0 0.71966 0.33867 0.20108 0.33867 0.20108 0.86783v3.3655h0.83608v-3.4713q0-0.52916-0.16933-0.93133-0.16933-0.41275-0.52916-0.64558-0.34925-0.24342-0.91016-0.24342-0.33867 0-0.6985 0.11642-0.35983 0.11642-0.67733 0.3175-0.3175 0.20108-0.56092 0.45508zm0 3.6407v-7.4718l-0.8255 0.11642v7.3554z"/>
  <path d="m88.117 15.409q-0.762 0.01058-1.3123-0.33867-0.55033-0.35983-0.84666-0.96308-0.28575-0.61383-0.28575-1.4182 0.01058-0.78316 0.30692-1.3864 0.30692-0.60325 0.86783-0.9525 0.5715-0.34925 1.3441-0.34925t1.3229 0.33866q0.55033 0.33867 0.84666 0.94191 0.29633 0.60325 0.29633 1.4393 0 0.78316-0.3175 1.3864-0.30692 0.60325-0.87841 0.9525-0.56092 0.34925-1.3441 0.34925zm0.02117-0.70908q0.52916 0 0.89958-0.26458 0.37042-0.26458 0.56092-0.70908 0.20108-0.4445 0.20108-0.99483 0-0.58208-0.1905-1.0372-0.17992-0.45508-0.53975-0.71966-0.34925-0.26458-0.889-0.26458-0.51858 0-0.889 0.26458-0.37042 0.26458-0.5715 0.70908-0.1905 0.4445-0.20108 0.99483 0 0.5715 0.17992 1.0372 0.17992 0.45508 0.53975 0.71966 0.37042 0.26458 0.89958 0.26458z"/>
  <path d="m92.487 15.272v-3.6407q0.254-0.26458 0.55033-0.46566 0.29633-0.21167 0.60325-0.33867 0.3175-0.127 0.5715-0.127 0.52916 0 0.71966 0.33867 0.20108 0.33867 0.20108 0.86783v3.3655h0.83608v-3.4713q0-0.52916-0.16933-0.93133-0.16933-0.41275-0.52916-0.64558-0.34925-0.24342-0.91016-0.24342-0.33867 0-0.6985 0.11642-0.35983 0.11642-0.67733 0.3175-0.3175 0.20108-0.56092 0.45508l-0.14817-0.73025h-0.61383v5.1329z"/>
 </g>
</svg>
