<svg version="1.1" xmlns="http://www.w3.org/2000/svg" xmlns:xlink="http://www.w3.org/1999/xlink" width="127.06301" height="66.55171" viewBox="0,0,127.06301,66.55171"><g transform="translate(-176.34999,-168.1813)"><g data-paper-data="{&quot;isPaintingLayer&quot;:true}" fill-rule="nonzero" stroke-linejoin="miter" stroke-miterlimit="10" stroke-dasharray="" stroke-dashoffset="0" style="mix-blend-mode: normal"><path d="M239.8815,206.2253c17.3034,0 32.9826,1.5517 44.336,4.0579c11.3534,2.507 18.381,5.9687 18.381,9.7887c0,3.8201 -7.0276,7.2817 -18.381,9.7888c-11.3534,2.5062 -27.0326,4.0578 -44.336,4.0578c-17.3034,0 -32.9826,-1.5516 -44.336,-4.0578c-11.3534,-2.5071 -18.381,-5.9687 -18.381,-9.7888c0,-3.82 7.0276,-7.2817 18.381,-9.7887c11.3534,-2.5062 27.0326,-4.0579 44.336,-4.0579z" fill="#b2b2b2" stroke="#b2b2b2" stroke-width="1.62901" stroke-linecap="butt"/><g stroke-linecap="round"><path d="M238.5002,169.7485c11.5505,0 20.124,2.9002 29.5959,7.8871c4.501,2.3753 8.4245,7.0217 11.2923,12.7013c2.2579,4.4786 3.9219,10.2242 3.6653,15.5683c-0.4895,6.0139 0.4651,14.3636 -5.7015,15.4413c-24.6633,4.3083 -49.7867,4.138 -74.5273,-0.7625c-6.1854,-1.2252 -4.8512,-10.3069 -5.7016,-15.8861c-0.6141,-4.5269 -0.9432,-9.9841 0.6516,-13.9162c2.5095,-6.066 6.5894,-10.6183 11.1294,-13.1461c9.4182,-5.2144 18.0454,-7.8871 29.5959,-7.8871z" fill="#660000" stroke="#703d00" stroke-width="2.12954"/><path d="M239.3121,169.1368c9.8955,-0.3091 19.8251,-0.1382 29.5259,1.3407c5.6005,1.1605 13.0549,1.5342 15.8828,6.4937c3.6743,6.4309 0.8944,14.5937 0.4073,22.4138c-0.2126,2.0822 -0.9554,6.3153 -2.8508,5.6977c-4.303,-2.0026 -5.8001,-11.1189 -10.1406,-12.5685c-2.2505,-0.7482 -0.3567,6.4385 -2.9322,7.7925c-3.5024,1.8216 -9.8099,-3.8275 -11.7696,-0.8798c-2.2204,3.3474 4.3429,8.8206 2.9322,12.9874c-0.6948,2.7048 -6.0005,4.3965 -7.5749,2.1786c-3.0006,-4.2314 0.4398,-11.0561 -2.1177,-15.5849c-1.3431,-2.3839 -5.581,-2.4928 -7.5749,-0.8798c-3.7476,3.0424 -3.3134,9.7506 -7.1269,12.5684c-2.0404,1.5058 -5.2797,0.4525 -7.1677,-0.8797c-4.773,-4.1493 -5.9679,-13.5656 -11.7696,-14.7052c-4.3772,-0.8655 -6.6961,10.8542 -9.6926,9.5102c-3.3859,-1.5351 0.4186,-14.9967 -2.525,-16.0039c-2.7636,-0.9208 -6.0217,13.4919 -8.4709,12.8199c-2.8043,-0.8572 -2.2659,-10.7846 -2.0362,-15.8782c0.1873,-4.182 -0.9717,-10.8307 2.8507,-12.2334c13.2977,-4.8489 28.0606,-3.7479 42.1507,-4.1895z" fill="#ff99e5" stroke="#ff00bf" stroke-width="1.65257"/><path d="M217.6896,178.7043l4.1947,-0.8145" fill="none" stroke="#9b4976" stroke-width="1.62504"/><path d="M236.1789,188.8042h-5.05" fill="none" stroke="#9b4976" stroke-width="1.62504"/><path d="M264.3608,184.2022v-3.7875" fill="none" stroke="#9b4976" stroke-width="1.62504"/><path d="M247.9485,172.8398l4.2354,2.525" fill="none" stroke="#9b4976" stroke-width="1.62504"/><path d="M279.1034,191.7771v-4.6427" fill="none" stroke="#9b4976" stroke-width="1.62504"/><path d="M274.9087,177.4418h-3.3802" fill="none" stroke="#9b4976" stroke-width="1.62504"/><path d="M205.472,183.7542l3.7875,-3.7874" fill="none" stroke="#9b4976" stroke-width="1.62504"/><path d="M210.1147,188.8042l3.3395,-0.8145" fill="none" stroke="#ffffff" stroke-width="1.62504"/><path d="M229.4592,172.8398l3.3802,2.9323" fill="none" stroke="#ffffff" stroke-width="1.62504"/><path d="M231.5769,201.877l3.3395,-2.973" fill="none" stroke="#ffffff" stroke-width="1.62504"/><path d="M249.211,194.3021l3.3802,2.5249" fill="none" stroke="#ffffff" stroke-width="1.62504"/><path d="M260.1661,194.7093l-0.4073,2.525z" fill="none" stroke="#ffffff" stroke-width="1.62504"/><path d="M260.5733,174.1023h3.7875" fill="none" stroke="#ffffff" stroke-width="1.62504"/><path d="M271.1212,186.7272l3.3395,-0.8553" fill="none" stroke="#ffffff" stroke-width="1.62504"/><path d="M200.8293,177.8898l4.6427,-1.7105" fill="none" stroke="#ffffff" stroke-width="1.62504"/><path d="M212.1917,174.1023l1.2625,2.9322z" fill="none" stroke="#ffffff" stroke-width="1.62504"/><path d="M247.9485,184.2022l0.448,2.077z" fill="none" stroke="#ffffff" stroke-width="1.62504"/><path d="M221.0291,189.6594l2.5249,-5.4572" fill="none" stroke="#6148a4" stroke-width="1.62504"/><path d="M238.2966,171.9846h5.0499" fill="none" stroke="#6148a4" stroke-width="1.62504"/><path d="M245.8715,193.4468l-5.0499,1.6698" fill="none" stroke="#6148a4" stroke-width="1.62504"/><path d="M260.1661,188.8042l-4.6427,-1.6698" fill="none" stroke="#6148a4" stroke-width="1.62504"/><path d="M210.5219,195.9718l4.1947,-1.6697" fill="none" stroke="#6148a4" stroke-width="1.62504"/><path d="M200.0148,182.4917v3.3802" fill="none" stroke="#6148a4" stroke-width="1.62504"/><path d="M220.2146,171.5774l3.7874,-0.4073" fill="none" stroke="#6148a4" stroke-width="1.62504"/><path d="M284.1533,188.8042v4.6426" fill="none" stroke="#6148a4" stroke-width="1.62504"/><path d="M255.9714,180.822h3.7874" fill="none" stroke="#6148a4" stroke-width="1.62504"/><path d="M255.1162,171.1701h2.5249z" fill="none" stroke="#6148a4" stroke-width="1.62504"/></g></g></g></svg>