<svg version="1.1" xmlns="http://www.w3.org/2000/svg" xmlns:xlink="http://www.w3.org/1999/xlink" width="73.22828" height="137.35516" viewBox="0,0,73.22828,137.35516"><defs><radialGradient cx="232.46095" cy="235.9813" r="35.2121" gradientUnits="userSpaceOnUse" id="color-1"><stop offset="0" stop-color="#0033cc"/><stop offset="1" stop-color="#00ffff"/></radialGradient><radialGradient cx="252.43125" cy="160.207" r="79.3137" gradientUnits="userSpaceOnUse" id="color-2"><stop offset="0" stop-color="#00ffff"/><stop offset="1" stop-color="#0033cc"/></radialGradient></defs><g transform="translate(-202.15297,-136.16324)"><g data-paper-data="{&quot;isPaintingLayer&quot;:true}" fill-rule="nonzero" stroke-linejoin="miter" stroke-miterlimit="10" stroke-dasharray="" stroke-dashoffset="0" style="mix-blend-mode: normal"><g><g fill="url(#color-1)" stroke="none" stroke-width="1" stroke-linecap="butt"><g><path d="M233.81285,223.0646c-0.8236,0.9431 0.7576,4.0196 -0.0968,4.9991c-1.0926,1.2519 -2.2616,2.5703 -2.9201,4.1207c-0.8188,1.9253 -0.0198,2.4471 -0.6988,-0.0157c0.3876,1.4049 1.1292,2.8156 2.4692,3.541c2.6218,1.4195 5.1437,0.4746 5.4564,-2.6248c-0.035,1.6366 -0.069,3.2722 -0.103,4.9099c-0.0273,-1.1618 0.287,-3.375 -1.2947,-1.8197c-0.8016,0.7875 -1.6147,1.6038 -2.0703,2.657c-0.8884,2.0531 -1.1827,1.6582 -0.3339,3.8243c0.3982,1.0179 0.8043,2.0901 1.5016,2.9529c0.0361,0.0457 2.2629,2.3247 2.2794,1.8419c0.0371,-1.0785 0.1893,-2.0097 0.7269,-2.9534c-0.0326,1.6667 -0.0652,3.3324 -0.0978,4.9991c-7.2851,5.2536 -4.3895,13.0767 0.9612,19.0224c0.8311,0.9235 -0.8936,4.1143 -0.0977,4.9991c-6.131,-6.8132 -9.5269,-22.7027 -0.7657,-29.0206c-0.7406,0.5347 0.4201,4.09 -0.0978,4.9991c-0.5645,0.9911 -0.6728,1.8252 -0.7124,2.9786c-0.0012,0.114 -0.0075,0.2289 -0.0197,0.3417c-4.9747,-3.746 -4.7328,-10.0805 -4.236,-15.6868c0.1746,-1.975 4.237,-9.319 4.3454,-4.737c0.0436,1.8623 0.0279,3.7413 -0.0755,5.6016c-0.3055,5.4401 -7.2926,3.4841 -7.9344,-0.8273c-0.7884,-5.3074 0.2439,-10.0151 3.8145,-14.1031z"/></g></g><path d="M239.33625,245.527c0,0 0.109,3.016 -0.1,4.5c-0.096,0.68 -0.8,1.9 -0.8,1.9" fill="none" stroke="#007fdf" stroke-width="2" stroke-linecap="round"/></g><path d="M274.85405,186.3155c-3.4047,24.7997 -33.0129,42.6341 -41.9529,42.3247c-9.7491,-0.3369 -33.8249,-27.4598 -30.4213,-52.2614c3.4057,-24.7998 22.3672,-42.6811 42.3521,-39.9377c19.9848,2.7434 33.4267,25.0746 30.0221,49.8744z" fill="url(#color-2)" stroke="none" stroke-width="1" stroke-linecap="butt"/></g></g></svg>