<svg version="1.1" xmlns="http://www.w3.org/2000/svg" xmlns:xlink="http://www.w3.org/1999/xlink" width="599.62292" height="449.71719" viewBox="0,0,599.62292,449.71719"><g transform="translate(59.81146,44.85859)"><g data-paper-data="{&quot;isPaintingLayer&quot;:true}" fill-rule="nonzero" stroke-width="1" stroke-linecap="butt" stroke-linejoin="miter" stroke-miterlimit="10" stroke-dasharray="" stroke-dashoffset="0" style="mix-blend-mode: normal"><path d="M-59.81146,-44.85859h599.62292v449.71719h-599.62292z" fill="#d0bdea" stroke="none"/><g stroke="none"><g fill="#ead6ff"><path d="M220.7621,375.25221c-10.4934,-11.74262 -36.85183,-34.85308 -58.46323,-51.09287c-63.95978,-48.3446 -72.70428,-55.3402 -98.68794,-79.20019c-47.96983,-44.22219 -68.20711,-88.5693 -68.20711,-148.65651c0,-29.35654 1.99874,-40.59947 10.24356,-57.96355c13.9912,-29.35654 34.47832,-51.09287 60.71182,-64.45946c18.61329,-9.49403 27.73256,-13.61644 58.838,-13.86628c32.47957,-0.12492 39.35025,3.62272 58.46323,14.11612c23.23539,12.74199 47.2203,40.09978 52.09224,59.46261l2.99811,11.99246l7.49529,-16.48963c42.59821,-93.19139 178.51274,-91.81726 225.85797,2.37351c14.99057,29.85622 16.61455,93.56616 3.37288,129.54353c-17.36408,46.84554 -49.96858,82.57307 -125.29621,137.28866c-49.46889,35.85245 -105.4337,90.19328 -109.30626,97.81349c-4.49717,8.86942 -0.24984,1.49906 -20.11235,-20.86188z"/></g><g fill="#f2e9ff"><path d="M223.63529,332.90384c-8.86942,-9.24419 -31.10544,-27.23287 -49.34397,-40.09978c-54.09098,-37.8512 -61.46135,-43.34774 -83.44752,-62.08596c-40.47455,-34.60324 -57.71371,-69.3314 -57.58878,-116.42678c0,-22.98555 1.7489,-31.85497 8.61958,-45.34648c11.74262,-22.98555 29.1067,-40.09978 51.34271,-50.46826c15.7401,-7.37037 23.48523,-10.74324 49.71873,-10.86817c27.48272,-0.12492 33.2291,2.87319 49.34397,10.99309c19.61267,9.99372 39.84994,31.35528 44.09727,46.5957l2.62335,9.36911l6.37099,-12.86691c35.97737,-72.95412 150.78018,-71.82983 190.75504,1.87382c12.74199,23.36031 14.11612,73.32889 2.87319,101.56113c-14.61581,36.7269 -42.22345,64.70931 -105.93338,107.55736c-41.72376,28.10732 -89.06899,70.70554 -92.31694,76.70176c-3.87256,6.9956 -0.24984,1.12429 -17.11424,-16.48963z"/></g></g><path d="M502.83471,-43.85922v0v0v0z" fill="none" stroke="#ffffff"/></g></g></svg>