<svg xmlns="http://www.w3.org/2000/svg" xmlns:xlink="http://www.w3.org/1999/xlink" version="1.1" width="113.53106968261719" height="65.47860233642578" viewBox="-0.29524274993896493 -0.2950600020980836 113.53106968261719 65.47860233642578"><g><g data-paper-data="{&quot;isPaintingLayer&quot;:true}" fill-rule="nonzero" stroke-linecap="none" stroke-linejoin="miter" stroke-miterlimit="10" stroke-dasharray="" stroke-dashoffset="0" font-family="none" font-weight="none" font-size="none" text-anchor="none" style="mix-blend-mode: normal"><g stroke-linecap="round"><path d="M 53.4175 1.7893 C 67.5985 1.7893 78.1245 5.3499 89.7535 11.4726 C 95.2795 14.3889 100.5485 19.6144 103.6175 27.0664 C 106.0475 33.0253 107.3605 41.7162 105.1675 47.7406 C 102.6315 54.7074 96.7705 57.8343 91.7675 59.599 C 80.3215 63.6184 68.3615 64.2175 56.6175 63.7338 C 43.3955 63.7448 29.9615 63.3157 17.0815 58.1854 C 12.2135 56.2474 7.8745 50.5086 4.9675 44.1519 C 3.1025 39.9078 1.6845 32.7413 3.4175 27.6125 C 6.3105 20.2619 11.5075 14.5761 17.0815 11.4726 C 28.6445 5.0706 39.2365 1.7893 53.4175 1.7893 Z " data-paper-data="{&quot;origPos&quot;:null}" id="ID0.9443309367634356" fill="#a85b00" stroke-width="2.61452" stroke="#703d00"/><path d="M 53.2788 1.8947 C 67.4668 1.8947 77.9292 2.5275 89.6319 7.2333 C 95.0758 9.4248 102.7573 14.7944 102.5562 21.3435 C 102.7573 27.6715 94.6845 31.4344 89.6319 32.9875 C 77.6687 36.663 65.3874 37.541 52.986 37.3395 C 40.5535 37.3423 27.5725 35.7991 15.2717 31.6317 C 11.1743 30.2491 4.9342 26.6807 5.465 21.3435 C 5.7616 14.4815 11.995 9.1908 16.9257 7.2333 C 28.6556 2.5796 39.0908 1.8947 53.2788 1.8947 Z " data-paper-data="{&quot;origPos&quot;:null}" id="ID0.20980827091261744" fill="#a85b00" stroke-width="2.4183" stroke="#703d00"/><path d="M 56.4508 2.1921 C 77.6061 2.1658 82.3608 6.1208 94.7008 9.5088 C 100.5028 11.1028 107.1168 14.9208 109.1508 20.3588 C 111.9828 27.9388 111.7838 41.2298 108.1008 44.6088 C 105.4898 47.0098 101.3288 33.3508 96.7508 32.7588 C 93.8538 32.0758 96.3128 40.4428 93.1508 42.0588 C 88.8508 44.2328 81.1068 37.4908 78.7008 41.0088 C 75.9748 45.0038 84.0328 51.5358 82.3008 56.5088 C 81.4478 59.7368 74.9338 61.7558 73.0008 59.1088 C 69.3168 54.0588 73.5408 45.9138 70.4008 40.5088 C 68.7518 37.6638 63.5488 37.5338 61.1008 39.4588 C 56.4998 43.0898 57.0328 51.0958 52.3508 54.4588 C 49.8458 56.2558 45.8688 54.9988 43.5508 53.4088 C 37.6908 48.4568 36.2238 37.2188 29.1008 35.8588 C 23.7268 34.8258 20.8798 48.8128 17.2008 47.2088 C 13.0438 45.3768 17.7068 31.4568 14.1008 28.1088 C 11.8718 26.0488 7.6108 38.0108 5.3508 36.3588 C 2.7248 34.1258 2.4148 25.3428 4.3008 20.3588 C 6.2688 15.3188 10.8568 10.6428 16.0588 9.1968 C 29.0658 5.5858 26.9308 3.7284 56.4508 2.1921 Z " data-paper-data="{&quot;origPos&quot;:null}" id="ID0.28453653072938323" fill="#703d00" stroke-width="1.99513" stroke="#703d00"/></g><path d="M 54.3675 1.0122 C 67.1895 1.328 80.3195 2.0718 92.6175 5.7957 C 98.9875 7.7297 106.9065 11.6841 109.8175 18.2433 C 112.9395 25.4165 112.7405 39.0677 108.2675 42.5211 C 105.1675 44.8028 100.2805 30.5231 94.6675 29.7135 C 91.5805 29.2382 94.2295 37.6182 91.0675 39.2806 C 86.7675 41.517 79.0235 34.5814 76.6175 38.2004 C 73.8915 42.3102 81.9495 49.0298 80.2175 54.1456 C 79.3645 57.4663 72.8505 59.5433 70.9175 56.8203 C 67.2335 51.6252 71.4575 43.2463 68.3175 37.6861 C 66.6685 34.7594 61.4655 34.6256 59.0175 36.6059 C 54.4165 40.3412 54.9495 48.5771 50.2675 52.0367 C 47.7625 53.8853 43.7855 52.5922 41.4675 50.9566 C 35.6075 45.8624 34.1405 34.3016 27.0175 32.9025 C 21.6435 31.8399 18.7965 46.2286 15.1175 44.5785 C 10.9605 42.6939 15.6235 28.3741 12.0175 24.9299 C 9.7885 22.8108 5.5275 35.1163 3.2675 33.4169 C 0.6415 31.1198 0.3315 22.0845 2.2175 16.9574 C 4.1855 11.7726 8.7735 6.9623 13.9755 5.4748 C 26.9825 1.7601 40.8475 1.221 54.3675 1.0122 Z " data-paper-data="{&quot;origPos&quot;:null}" id="ID0.28453653072938323" fill="#ddc6d2" stroke="#ddc6d2" stroke-width="2.02398" stroke-linecap="round"/><path d="M 55.7425 12.3088 C 59.0185 12.3088 61.9875 12.5388 64.1375 12.9098 C 66.2865 13.2808 67.6175 13.7928 67.6175 14.3588 C 67.6175 14.9248 66.2865 15.4368 64.1375 15.8078 C 61.9875 16.1788 59.0185 16.4088 55.7425 16.4088 C 52.4665 16.4088 49.4975 16.1788 47.3475 15.8078 C 45.1985 15.4368 43.8675 14.9248 43.8675 14.3588 C 43.8675 13.7928 45.1985 13.2808 47.3475 12.9098 C 49.4975 12.5388 52.4665 12.3088 55.7425 12.3088 Z " id="ID0.7229506736621261" fill="#a85b00" stroke="#703d00" stroke-width="1.99513" stroke-linecap="butt"/><g data-paper-data="{&quot;origPos&quot;:null}" stroke-linecap="round"><path d="M 31.9675 26.6054 L 35.0675 19.9054 " data-paper-data="{&quot;origPos&quot;:null}" id="ID0.8662396180443466" stroke-width="1.99513" fill="none" stroke="#6148a4"/><path d="M 53.1675 4.5588 L 59.3675 4.5588 " data-paper-data="{&quot;origPos&quot;:null}" id="ID0.7959343986585736" stroke-width="1.99513" fill="none" stroke="#6148a4"/><path d="M 56.2675 32.9588 L 62.4675 30.9088 " data-paper-data="{&quot;origPos&quot;:null}" id="ID0.47782517969608307" stroke-width="1.99513" fill="none" stroke="#6148a4"/><path d="M 74.3175 23.1588 L 80.0175 25.2088 " data-paper-data="{&quot;origPos&quot;:null}" id="ID0.0538422497920692" stroke-width="1.99513" fill="none" stroke="#6148a4"/><path d="M 19.0675 34.0088 L 24.2175 31.9588 " data-paper-data="{&quot;origPos&quot;:null}" id="ID0.7071157796308398" stroke-width="1.99513" fill="none" stroke="#6148a4"/><path d="M 6.1675 21.9554 L 6.1675 17.8054 " data-paper-data="{&quot;origPos&quot;:null}" id="ID0.3825798323377967" stroke-width="1.99513" fill="none" stroke="#6148a4"/><path d="M 30.9675 4.0588 L 35.6175 3.5588 " data-paper-data="{&quot;origPos&quot;:null}" id="ID0.12323137884959579" stroke-width="1.99513" fill="none" stroke="#6148a4"/><path d="M 109.4675 30.9088 L 109.4675 25.2088 " data-paper-data="{&quot;origPos&quot;:null}" id="ID0.6972495093941689" stroke-width="1.99513" fill="none" stroke="#6148a4"/><path d="M 74.8675 15.4088 L 79.5175 15.4088 " data-paper-data="{&quot;origPos&quot;:null}" id="ID0.2711392594501376" stroke-width="1.99513" fill="none" stroke="#6148a4"/><path d="M 73.8175 3.5588 L 76.9175 3.5588 Z " data-paper-data="{&quot;origPos&quot;:null}" id="ID0.8978235688991845" stroke-width="1.99513" fill="none" stroke="#6148a4"/></g><g data-paper-data="{&quot;origPos&quot;:null}" stroke-linecap="round"><path d="M 33.0175 11.8088 L 27.8675 12.8088 " data-paper-data="{&quot;origPos&quot;:null}" id="ID0.9467714759521186" stroke-width="1.99513" fill="none" stroke="#9b4976"/><path d="M 44.3675 25.2088 L 50.5675 25.2088 " data-paper-data="{&quot;origPos&quot;:null}" id="ID0.23042773781344295" stroke-width="1.99513" fill="none" stroke="#9b4976"/><path d="M 85.1675 19.5588 L 85.1675 14.9088 " data-paper-data="{&quot;origPos&quot;:null}" id="ID0.20588193368166685" stroke-width="1.99513" fill="none" stroke="#9b4976"/><path d="M 65.0175 5.6088 L 70.2175 8.7088 " data-paper-data="{&quot;origPos&quot;:null}" id="ID0.6261316067539155" stroke-width="1.99513" fill="none" stroke="#9b4976"/><path d="M 103.2675 23.1588 L 103.2675 28.8588 " data-paper-data="{&quot;origPos&quot;:null}" id="ID0.2090843333862722" stroke-width="1.99513" fill="none" stroke="#9b4976"/><path d="M 93.9675 11.2588 L 98.1175 11.2588 " data-paper-data="{&quot;origPos&quot;:null}" id="ID0.9659954085946083" stroke-width="1.99513" fill="none" stroke="#9b4976"/><path d="M 12.8675 19.0088 L 17.5175 14.3588 " data-paper-data="{&quot;origPos&quot;:null}" id="ID0.702816660515964" stroke-width="1.99513" fill="none" stroke="#9b4976"/></g><g data-paper-data="{&quot;origPos&quot;:null}" stroke-linecap="round"><path d="M 18.5675 25.2088 L 22.6675 24.2088 " data-paper-data="{&quot;origPos&quot;:null}" id="ID0.6778297000564635" stroke-width="1.99513" fill="none" stroke="#ffffff"/><path d="M 42.3175 5.6088 L 46.4675 9.2088 " data-paper-data="{&quot;origPos&quot;:null}" id="ID0.7210087068378925" stroke-width="1.99513" fill="none" stroke="#ffffff"/><path d="M 45.2641 41.2588 L 49.3641 37.6088 " data-paper-data="{&quot;origPos&quot;:null}" id="ID0.2551163868047297" stroke-width="1.99513" fill="none" stroke="#ffffff"/><path d="M 66.9141 31.9588 L 71.0641 35.0588 " data-paper-data="{&quot;origPos&quot;:null}" id="ID0.3400295590981841" stroke-width="1.99513" fill="none" stroke="#ffffff"/><path d="M 79.8641 35.5588 L 80.3641 32.4588 Z " data-paper-data="{&quot;origPos&quot;:null}" id="ID0.8367559141479433" stroke-width="1.99513" fill="none" stroke="#ffffff"/><path d="M 85.5141 7.1588 L 80.8641 7.1588 " data-paper-data="{&quot;origPos&quot;:null}" id="ID0.2565021519549191" stroke-width="1.99513" fill="none" stroke="#ffffff"/><path d="M 97.9141 21.6088 L 93.8141 22.6588 " data-paper-data="{&quot;origPos&quot;:null}" id="ID0.4049390903674066" stroke-width="1.99513" fill="none" stroke="#ffffff"/><path d="M 7.1675 11.8088 L 12.8675 9.7088 " data-paper-data="{&quot;origPos&quot;:null}" id="ID0.9062348022125661" stroke-width="1.99513" fill="none" stroke="#ffffff"/><path d="M 21.4641 7.1588 L 23.0141 10.7588 Z " data-paper-data="{&quot;origPos&quot;:null}" id="ID0.021216348744928837" stroke-width="1.99513" fill="none" stroke="#ffffff"/><path d="M 65.3641 19.5588 L 65.9141 22.1088 Z " data-paper-data="{&quot;origPos&quot;:null}" id="ID0.7581375841982663" stroke-width="1.99513" fill="none" stroke="#ffffff"/></g></g></g></svg>