<svg version="1.1" xmlns="http://www.w3.org/2000/svg" xmlns:xlink="http://www.w3.org/1999/xlink" width="81.55262" height="68.44116" viewBox="0,0,81.55262,68.44116"><g transform="translate(-199.22369,-145.32493)"><g data-paper-data="{&quot;isPaintingLayer&quot;:true}" fill-rule="nonzero" stroke-linejoin="miter" stroke-miterlimit="10" stroke-dasharray="" stroke-dashoffset="0" style="mix-blend-mode: normal"><path d="M245.65277,195.80629c6.1127,0 11.652,1.0059 15.663,2.6319c4.0104,1.6252 6.4933,3.8706 6.4933,6.348c0,2.4774 -2.4829,4.7228 -6.4933,6.348c-4.011,1.626 -9.5503,2.6319 -15.663,2.6319c-6.1128,0 -11.652,-1.0059 -15.6631,-2.6319c-4.0104,-1.6252 -6.4932,-3.8706 -6.4932,-6.348c0,-2.4774 2.4828,-4.7228 6.4932,-6.348c4.0111,-1.626 9.5503,-2.6319 15.6631,-2.6319z" fill="#703d00" stroke="none" stroke-width="0.71225" stroke-linecap="butt"/><path d="M239.13287,167.47829c9.4336,-0.1474 18.9139,-0.0187 28.335,0.4073c2.3584,0.1075 5.9445,-1.2894 5.7927,0.8145c-0.6071,8.4114 -4.53,16.8146 -7.9481,24.8831c-1.8896,4.58 -2.768,11.421 -7.9033,13.5208c-8.4924,3.2466 -18.7343,2.0958 -27.9309,0.8145c-3.3427,-0.4879 -5.4335,-3.2759 -7.2746,-5.4572c-3.0993,-3.6628 -5.3446,-7.9096 -7.3195,-11.8103c-3.3319,-6.6618 -8.1448,-13.3457 -9.1606,-20.2812c-0.2766,-1.8897 3.534,-1.7838 5.8825,-2.077c9.0816,-1.0703 18.4614,-0.6744 27.5268,-0.8145z" fill="#a85b00" stroke="#a85b00" stroke-width="1.71046" stroke-linecap="round"/><path d="M241.11707,170.29009c8.6118,0 16.4161,0.9448 22.0671,2.4704c5.651,1.5264 9.1488,3.6343 9.1488,5.9598c0,2.3254 -3.4978,4.4333 -9.1488,5.9597c-5.651,1.5256 -13.4553,2.4704 -22.0671,2.4704c-8.6118,0 -16.4161,-0.9448 -22.0671,-2.4704c-5.651,-1.5264 -9.1489,-3.6343 -9.1489,-5.9597c0,-2.3255 3.4979,-4.4334 9.1489,-5.9598c5.651,-1.5256 13.4553,-2.4704 22.0671,-2.4704z" fill="#703d00" stroke="none" stroke-width="0.92352" stroke-linecap="butt"/><path d="M240.11827,146.38129c2.2805,-0.5317 1.8823,0.5067 2.5424,1.0324c1.1848,0.7485 1.7604,2.1018 2.8781,2.7101c0.7991,0.4379 2.0127,-0.3011 2.8301,0.129c1.0294,0.7477 1.1638,2.2584 2.1586,3.0542c0.615,0.4965 1.5724,0.0207 2.3025,0.2151c1.3086,0.4182 2.5203,1.066 3.8855,1.2475c0.7531,0.253 1.5263,-0.1333 2.3504,0.043c1.2127,0.2693 2.103,1.5504 3.3578,1.5487c1.6856,-0.0224 2.9981,-2.3152 4.7009,-2.0218c2.6115,0.462 5.1356,2.2859 6.9075,4.3017c2.5376,2.815 6.7444,6.1196 5.6603,9.7863c-1.3278,4.4635 -4.4563,6.7984 -11.6544,9.1377c-7.1992,2.3401 -17.1402,3.7889 -28.1115,3.7889c-10.9714,0 -20.9124,-1.4488 -28.1115,-3.7889c-7.1982,-2.3393 -12.0977,-4.5452 -11.6545,-9.1377c0.6476,-6.0895 7.4966,-10.6742 13.0954,-14.045c8.1816,-4.232 17.7398,-5.8744 26.8624,-8.0012z" fill="#f0c444" stroke="#a85b00" stroke-width="1.81796" stroke-linecap="round"/></g></g></svg>