<svg version="1.1" xmlns="http://www.w3.org/2000/svg" xmlns:xlink="http://www.w3.org/1999/xlink" width="87.58671" height="77.16783" viewBox="0,0,87.58671,77.16783"><g transform="translate(-204.55665,-166.08809)"><g data-paper-data="{&quot;isPaintingLayer&quot;:true}" fill-rule="nonzero" stroke-linejoin="miter" stroke-miterlimit="10" stroke-dasharray="" stroke-dashoffset="0" style="mix-blend-mode: normal"><path d="M262.7597,219.0116c7.4226,-0.0318 14.1438,1.2131 19.0074,3.2497c4.8644,2.0378 7.8697,4.8662 7.8598,8.0026c-0.0099,3.1364 -3.0332,5.9906 -7.9105,8.0701c-4.8767,2.0784 -11.6059,3.3808 -19.0286,3.4126c-7.4226,0.0318 -14.1438,-1.2131 -19.0074,-3.2497c-4.8644,-2.0379 -7.8697,-4.8662 -7.8598,-8.0026c0.0099,-3.1365 3.0332,-5.9906 7.9106,-8.0702c4.8766,-2.0783 11.6059,-3.3807 19.0285,-3.4125z" fill="#919191" stroke="#919191" stroke-width="3.01865" stroke-linecap="butt"/><path d="M256.844,173.8124c11.6204,4.7163 21.2307,11.2556 27.3698,18.0104c6.139,6.7549 8.4097,12.7795 6.5428,19.3033c-2.5385,8.8527 -10.0405,17.193 -18.7644,20.7816c-9.6958,4.2779 -21.7946,4.6636 -32.0299,0.9099c-11.9018,-4.3667 -23.4217,-12.8386 -29.8009,-23.693c-5.685,-9.3033 -7.3134,-22.21 -3.6426,-32.188c2.3458,-6.3676 9.035,-8.7176 18.1452,-9.2832c9.1102,-0.5656 20.5596,1.4426 32.18,6.159z" fill="#a85b00" stroke="none" stroke-width="0.69108" stroke-linecap="round"/><path d="M256.9956,173.8923c11.0729,4.4942 20.382,10.3496 26.4784,16.1787c6.0961,5.8297 8.9788,11.6328 7.1969,16.023c-1.7819,4.3903 -7.8935,6.5428 -16.3282,6.475c-8.4344,-0.0685 -19.1911,-2.3573 -30.264,-6.8514c-11.0729,-4.4941 -20.3821,-10.3496 -26.4784,-16.1787c-6.0962,-5.8297 -8.9788,-11.6328 -7.197,-16.023c1.7819,-4.3902 7.8935,-6.5428 16.3282,-6.4749c8.4344,0.0685 19.1912,2.3572 30.2641,6.8513z" fill="#ef9300" stroke="#eac28e" stroke-width="1.9027" stroke-linecap="round"/><path d="M254.4928,173.5904c0,0 -4.3049,12.6078 -8.0795,17.977c-2.7915,3.9708 -11.1545,9.3825 -11.1545,9.3825" fill="none" stroke="#eac28e" stroke-width="1.37879" stroke-linecap="round"/><path d="M247.955,188.6877l35.296,1.6092" fill="none" stroke="#eac28e" stroke-width="1.37879" stroke-linecap="round"/><path d="M213.2758,170.3986l34.4063,18.9615l20.7028,22.3124" fill="none" stroke="#eac28e" stroke-width="1.37879" stroke-linecap="round"/><path d="M246.3694,188.8273l-29.1091,-0.5897" fill="none" stroke="#eac28e" stroke-width="1.37879" stroke-linecap="round"/><path d="M246.7689,189.7726l-14.1191,-22.3626" fill="none" stroke="#eac28e" stroke-width="1.37879" stroke-linecap="round"/><path d="M247.6315,190.4956l42.0426,16.3179" fill="none" stroke="#eac28e" stroke-width="1.37879" stroke-linecap="round"/></g></g></svg>