<svg version="1.1" xmlns="http://www.w3.org/2000/svg" xmlns:xlink="http://www.w3.org/1999/xlink" width="91.90781" height="105.00832" viewBox="0,0,91.90781,105.00832"><g transform="translate(-194.59219,-127.50077)"><g data-paper-data="{&quot;isPaintingLayer&quot;:true}" fill-rule="evenodd" stroke-miterlimit="10" stroke-dasharray="" stroke-dashoffset="0" style="mix-blend-mode: normal"><g data-paper-data="{&quot;index&quot;:null}"><path d="M274.84219,194.3c3.1,-7.8 1.4,-14.8 5.7,-14.4c4.4,0.4 9.5,12.1 -0.1,20.7c-8.9,7.9 -18,5 -21.6,2.9c-3.5,-2.2 -0.8,-3.4 -0.2,-4.2c0.6,-0.8 11.8,6.3 16.2,-5z" fill="#ffab19" stroke="#001026" stroke-width="1.2" stroke-linecap="round" stroke-linejoin="round"/><path d="M280.04219,180.4c2.5,-0.4 4.7,3.2 5.2,6.7c0.2,3.6 -0.4,5.7 -1.1,7.4c-0.1,-0.7 -1,-3.1 -3.9,-3.6c-2.4,-0.4 -4,1.6 -4,1.6c0,0 1,-3 1.5,-7.4c0.4,-2.7 0.3,-4.3 2.3,-4.7z" fill="#ffffff" stroke="none" stroke-width="1" stroke-linecap="butt" stroke-linejoin="miter"/></g><path d="M253.74219,200.5c4.2,-2.6 6.8,1.1 8.8,3.1c2.8,2.8 4.1,5.4 5.3,5.4c4.1,0 8.7,-2 12.1,-0.8c2.2,0.8 2.4,11.1 1.3,13.5c-1.4,3 -8.9,3.2 -8,-6c0,0 -8.5,3.5 -11.8,1.4c-4.8,-3 -6.8,-6.5 -7.5,-7.4c-1.9,-2.7 -3.8,-6.9 -0.2,-9.2z" data-paper-data="{&quot;index&quot;:null}" fill="#ffab19" stroke="#001026" stroke-width="1.2" stroke-linecap="round" stroke-linejoin="round"/><path d="M241.84219,188.7c4,6.6 0.8,17.3 -6.2,19.2c-5.4,1.5 -11.9,1.4 -11.5,-3.4c0.4,-4.9 7.4,-2.9 9.7,-4.1c2.4,-1.3 2.6,-9.7 2.9,-11.9c0.3,-2.3 3.6,-2.1 5.1,0.2z" data-paper-data="{&quot;index&quot;:null}" fill="#ffab19" stroke="#001026" stroke-width="1.2" stroke-linecap="round" stroke-linejoin="round"/><g data-paper-data="{&quot;index&quot;:null}"><path d="M244.64219,204.8c-1.2,-0.9 -3,-3.3 -4.6,-5.7c-1.3,-1.9 -2.7,-5.6 -2.7,-5.6c-0.9,-2.5 -1.5,-7.3 1.8,-7.2c2.2,0.1 4.2,-0.2 7.6,-0.7c6,-1.2 7.2,-2.4 9.6,2.1c4.5,8.3 10.5,14.2 2.3,19c-2,1.2 -5.2,3.2 -8,5.2c-2,1.9 1,6 3.1,8.4c0.9,1.1 0.9,2.7 -0.2,3.8c-7.3,7.1 -9.5,9.6 -12.3,6.5c-3.8,-4.2 2.2,-8.3 2.2,-8.3c0,0 -4.8,-7.5 -4.2,-10.8c0.7,-3.2 5.4,-6.7 5.4,-6.7z" fill="#ffab19" stroke="#001026" stroke-width="1.2" stroke-linecap="round" stroke-linejoin="round"/><path d="M240.11377,198.10286c0,0 -1.9,-2.5 2.4,-5.2c4.5,-2.9 6.2,0.3 8,2.7c2,3.1 0,4.6 -2,6.4c-1.6,1.5 -3.1,2.7 -3.1,2.7c0,0 -3.1,-2.1 -5.3,-6.6z" fill="#ffffff" stroke="none" stroke-width="1" stroke-linecap="butt" stroke-linejoin="miter"/></g><path d="M249.59586,184.95654c6.58716,-1.74825 16.44634,-4.55654 19.34634,-1.05654c1.3,1.5 5.2,9.8 4.9,14.1c-0.4,4.6 -7.2,5.9 -8.7,1.5c-1.1,-3.1 -2.9,-8.3 -3.2,-8.4c-1.1,-0.2 -5.2,1.6 -7.4,0.6" data-paper-data="{&quot;index&quot;:null}" fill="#ffab19" stroke="#001026" stroke-width="1.2" stroke-linecap="round" stroke-linejoin="round"/><g data-paper-data="{&quot;index&quot;:null}"><path d="M236.99219,136c2.3,-0.4 4.7,-0.6 7.5,-0.4c4.7,0.2 9.2,1.9 9.2,1.9l12.1,-7.9c0.4,-0.2 0.9,0.1 0.8,0.5l-2.1,17.9c-0.6,-0.8 10.6,12.8 3.5,24.2c-7.1,11.4 -22.2,16.5 -41,12.8c-18.8,-3.7 -23.2,-14.5 -22,-20.2c1.2,-5.7 8.3,-7.8 8.3,-7.8c0,0 0.1,-4.5 3.3,-10c1.9,-3.3 8.3,-8 8.3,-8l2.6,-10.7c0.1,-0.4 0.6,-0.5 0.9,-0.3z" fill="#ffab19" stroke="#001026" stroke-width="1.2" stroke-linecap="butt" stroke-linejoin="miter"/><path d="M230.09219,162.3c8.4,0.6 19.9,-8.5 26.6,2.2c6.7,10.6 -4.8,25 -29,20c-18.6,-3.6 -23.4,-13.9 -22.2,-19.6c1.2,-5.7 8.1,-7.5 8.1,-7.5c8.5,-1.9 9.3,4.4 16.5,4.9z" fill="#ffffff" stroke="none" stroke-width="1" stroke-linecap="butt" stroke-linejoin="miter"/><path d="M235.39219,180.4c-10.5,0.6 -14.3,-6.9 -15.2,-9.6c-0.2,-0.5 0.2,-1 0.7,-0.9c1.5,0.3 4.7,0.6 10.1,0.3c6,-0.4 11.4,-2 13.3,-2.7c0.4,-0.1 0.8,0.2 0.8,0.6c0.3,4.9 -0.6,11.3 -9.7,12.3z" fill="#ffffff" stroke="#001026" stroke-width="1.2" stroke-linecap="round" stroke-linejoin="round"/><path d="M207.09219,162.4c0,0 -7.2,-0.1 -11.9,-3.9" fill="none" stroke="#001026" stroke-width="1.2" stroke-linecap="round" stroke-linejoin="round"/><path d="M206.69219,168.3c0,0 -3.9,1.9 -10.2,1.4" fill="none" stroke="#001026" stroke-width="1.2" stroke-linecap="round" stroke-linejoin="round"/><path d="M235.09219,161c0,1.6 -4.2,4.1 -6,3.9c-1.6,-0.1 -3.1,-2.9 -3,-4.3c0.1,-0.7 2.3,-0.9 4.4,-0.9c2,0 4.7,0.1 4.6,1.3z" fill="#001026" stroke="#001026" stroke-width="1.2" stroke-linecap="round" stroke-linejoin="round"/><path d="M263.39219,164.1c3.5,-3.1 12.1,-5.9 12.1,-5.9" fill="none" stroke="#001026" stroke-width="1.2" stroke-linecap="round" stroke-linejoin="round"/><path d="M274.79219,168.2c0,0 -7.4,1.1 -11.7,-0.6" fill="none" stroke="#001026" stroke-width="1.2" stroke-linecap="round" stroke-linejoin="round"/><g><path d="M229.09219,143.2c2.8,1.8 2.7,6.9 -0.2,11.4c-3,4.5 -7.6,6.6 -10.4,4.8c-2.8,-1.8 -2.7,-6.9 0.2,-11.4c2.9,-4.5 7.6,-6.7 10.4,-4.8z" fill="#ffffff" stroke="#001026" stroke-width="1.2" stroke-linecap="round" stroke-linejoin="round"/><path d="M219.09219,153.7c0,-1.1 0.8,-2 1.8,-2c1,0 1.8,0.9 1.8,2c0,1.1 -0.8,2 -1.8,2c-1,0 -1.8,-0.9 -1.8,-2" fill="#001026" stroke="none" stroke-width="1" stroke-linecap="butt" stroke-linejoin="miter"/></g><g><path d="M254.29219,146.3c3.1,2.2 2.9,7.9 -0.2,12.3c-3,4.4 -7.4,5.8 -10.7,3.9c-2.7,-1.9 -2.9,-7.3 0.1,-11.7c3,-4.4 7.7,-6.8 10.8,-4.5z" fill="#ffffff" stroke="#001026" stroke-width="1.2" stroke-linecap="round" stroke-linejoin="round"/><path d="M244.09219,156.6c0,-1.1 0.8,-1.9 1.8,-2c1,0 1.8,0.9 1.8,2c0,1.1 -0.8,2 -1.8,2c-1,0 -1.8,-0.9 -1.8,-2" fill="#001026" stroke="none" stroke-width="1" stroke-linecap="butt" stroke-linejoin="miter"/></g></g></g></g></svg>