<svg version="1.1" xmlns="http://www.w3.org/2000/svg" xmlns:xlink="http://www.w3.org/1999/xlink" width="94.5028" height="115.72009" viewBox="0,0,94.5028,115.72009"><g transform="translate(-192.7486,-122.13995)"><g data-paper-data="{&quot;isPaintingLayer&quot;:true}" fill-rule="nonzero" stroke="none" stroke-linecap="butt" stroke-linejoin="miter" stroke-miterlimit="10" stroke-dasharray="" stroke-dashoffset="0" style="mix-blend-mode: normal"><path d="" fill="#ffffff" stroke-width="0.81242"/><g stroke-width="0.26459"><path d="M210.12532,236.67876c-7.40646,-0.42575 -12.51809,-2.00472 -14.76147,-4.55978c-2.3038,-2.62388 -2.13831,-5.77427 0.43322,-8.2473c1.65628,-1.59285 4.55969,-2.80555 5.01186,-2.09337c0.47214,0.74363 0.30479,1.08889 -0.90884,1.87499c-2.07823,1.34614 -2.04437,3.58535 0.07177,4.74892c2.18566,1.20175 4.74348,1.62827 9.70199,1.61779l4.66251,-0.01031l0.70709,1.25811c0.89721,1.59638 0.90645,3.37683 0.02332,4.49951c-0.50024,0.63595 -0.56887,0.91559 -0.2557,1.04185c0.23543,0.09497 0.27464,0.16164 0.0871,0.14823c-0.18751,-0.0134 -2.33535,-0.13901 -4.77298,-0.27913zM224.27382,229.60519c0,-0.6582 -2.27709,-1.77419 -3.61999,-1.77412c-0.72791,0.00002 -2.52595,0.23016 -3.99565,0.51138c-1.46969,0.28124 -4.42702,0.51133 -6.57183,0.51133h-3.89965l-1.47971,-1.47971c-2.10319,-2.10319 -2.76925,-4.22689 -2.7437,-8.74812c0.02307,-4.07201 0.56771,-6.31299 2.43958,-10.03701c1.58189,-3.14713 2.48019,-4.42851 7.43473,-10.60535c2.27957,-2.84194 4.43042,-5.85809 4.7797,-6.70255l0.63505,-1.53539l1.75758,0.77729c2.59384,1.14711 7.04524,2.43439 10.71875,3.09969c4.59389,0.83197 15.20884,0.82975 20.23091,-0.00387c2.03276,-0.33756 3.79028,-0.51939 3.90564,-0.40405c0.11533,0.11533 0.27271,2.10181 0.3497,4.41438c0.15809,4.74873 -0.43032,8.5245 -1.86424,11.96267c-2.44549,5.86369 -2.92553,7.48802 -2.9722,10.05737l-0.04652,2.55697l1.66694,0.19141c2.1963,0.25219 3.27651,1.42357 3.27651,3.55305c0,2.07657 -0.93103,2.75532 -4.17075,3.04063c-6.30069,0.55488 -7.95073,-0.7131 -8.64268,-6.64158l-0.222,-1.90204l1.38231,-0.82538c2.15,-1.28378 5.72163,-5.57224 7.21802,-8.66672c1.57244,-3.25176 2.17667,-6.08436 1.99263,-9.34138c-0.22471,-3.97682 -2.09215,-5.66518 -6.25119,-5.65172c-2.79934,0.00902 -4.57522,0.73452 -5.71726,2.33556c-0.69812,0.97872 -0.75201,1.38693 -0.65819,4.98665c0.1085,4.16356 -0.42191,7.84134 -1.13093,7.84134c-0.48662,0 -2.65859,4.2757 -3.2039,6.30716c-0.46573,1.73497 -0.47441,4.45203 -0.01688,5.3068c0.2559,0.47815 0.71685,0.65944 1.67676,0.65944c1.79902,0 2.34167,0.2574 2.92638,1.3881c0.70616,1.36555 0.63382,3.24984 -0.15504,4.03872c-1.07112,1.07112 -7.38137,1.41164 -9.67376,0.52203c-1.35659,-0.52646 -2.27953,-3.401 -2.59612,-8.08583c-0.11107,-1.64412 -0.35543,-2.98843 -0.54294,-2.98737c-0.18751,0.00102 -0.41763,1.19283 -0.51139,2.64837c-0.16544,2.5684 -0.1956,2.64486 -1.02279,2.59261c-1.7563,-0.11094 -4.77299,-0.55861 -4.77299,-0.70831c0,-0.08543 0.28005,-0.56261 0.62233,-1.06032c1.87702,-2.72944 2.13013,-6.46881 0.65548,-9.68385c-0.53244,-1.16081 -1.11543,-1.96033 -1.42942,-1.96033c-0.67352,0 -0.68671,-0.08324 0.34338,2.16678c1.6383,3.57851 0.92769,7.97806 -1.68169,10.41188c-0.48156,0.44915 -0.79453,0.94777 -0.69548,1.10801c0.09909,0.16025 1.09645,0.29138 2.21647,0.29138c2.32452,0 4.17739,0.64979 4.71448,1.65336c0.54155,1.0119 0.45528,3.30493 -0.14303,3.80148c-0.30977,0.25709 -0.51139,0.28451 -0.51139,0.06958zM255.32516,198.65328c0.01637,-0.39717 0.09716,-0.47795 0.20598,-0.20598c0.09845,0.2461 0.08633,0.54016 -0.02693,0.65344c-0.11326,0.11326 -0.19386,-0.08814 -0.17905,-0.44746zM214.87539,187.17537c-4.30431,-2.52974 -9.05158,-7.29401 -10.95572,-10.99492c-2.10879,-4.09867 -2.63064,-6.19605 -2.62966,-10.56877c0.00129,-6.55059 1.73959,-12.4795 4.86669,-16.60086c0.87017,-1.14682 1.72888,-2.28222 1.90826,-2.52311c0.21185,-0.28451 -0.01469,-4.09139 -0.64634,-10.86409c-0.53485,-5.73436 -0.89598,-10.50258 -0.80252,-10.59604c0.16739,-0.16739 11.8618,7.81728 15.71289,10.72841c1.4768,1.11634 2.07383,1.39561 2.36376,1.10567c0.21336,-0.21336 0.32144,-0.43863 0.24018,-0.50063c-0.08118,-0.06199 -0.58143,-0.4411 -1.11151,-0.84247l-0.96378,-0.72975l1.27029,-0.53076c3.79362,-1.58508 9.60487,-2.20009 15.1467,-1.60302l3.23883,0.34895l4.82041,-4.79152l4.82043,-4.79152l0.7551,3.36713c0.41531,1.85192 1.0869,4.81828 1.49242,6.59192l0.73731,3.2248l1.98207,1.3579c5.96445,4.08621 10.09147,11.06777 10.95318,18.52919l0.24607,2.1308h-1.72071h-1.72072l0.53557,-1.27848c1.13298,-2.70458 0.05103,-7.8138 -2.45351,-11.58589c-2.69475,-4.05858 -5.95133,-6.27831 -9.53793,-6.50116c-2.53346,-0.15741 -4.04923,0.71451 -5.19914,2.99075c-1.44892,2.86809 -0.73821,7.97343 1.63879,11.77225c1.42944,2.28446 4.27357,5.17838 5.93255,6.03641l1.3494,0.69791l-1.69033,0.84195c-0.9297,0.46308 -1.88212,1.08667 -2.1165,1.38575c-0.36953,0.47154 -0.42616,0.41958 -0.42616,-0.39107c0,-1.51165 -1.4845,-1.92647 -5.45485,-1.52426c-4.43472,0.44924 -5.69849,0.81491 -6.01248,1.73972c-0.14185,0.41776 -0.21592,0.97382 -0.16464,1.23569c0.07435,0.37945 -0.24089,0.4294 -1.55256,0.24602c-0.90522,-0.12654 -2.51978,-0.32344 -3.58793,-0.43754l-1.9421,-0.20747l0.78701,-1.06135c1.72544,-2.32697 2.05611,-6.04119 0.87751,-9.85702c-0.74009,-2.39613 -2.95268,-5.70491 -4.76152,-7.12054l-1.10414,-0.86411l1.05956,-1.46267c0.58276,-0.80447 1.05954,-1.66978 1.05954,-1.92291c0,-0.90167 -0.86569,-0.42007 -1.70463,0.94833c-2.46446,4.01978 -8.29864,7.74949 -13.38142,8.5545c-1.69473,0.26842 -2.64219,0.57429 -2.64219,0.853c0,0.25491 0.4201,0.43454 1.01629,0.43454c0.83107,0 1.05412,0.17087 1.22386,0.93756c0.7894,3.56539 2.10479,6.15107 4.32158,8.49501c1.50489,1.5912 1.62482,1.81805 0.96105,1.81805c-0.41711,0 -1.70697,0.3795 -2.86636,0.84333c-2.02722,0.81101 -2.17313,0.82345 -3.80836,0.32455c-2.88712,-0.88084 -5.96193,-1.44375 -6.15752,-1.12728c-0.33809,0.54705 0.16303,0.88992 1.63694,1.11999c0.80108,0.12499 2.34689,0.47456 3.43517,0.77671l1.97868,0.54936l-1.00022,1.05794c-0.55012,0.58187 -1.18188,1.41142 -1.4039,1.84344c-0.58544,1.13913 -1.3748,3.86249 -1.37909,4.75791c-0.00258,0.42373 -0.31052,1.03314 -0.68555,1.35424c-0.79148,0.6777 -0.87763,1.11415 -0.2199,1.11415c0.32698,0 0.5223,0.72001 0.66855,2.46449c0.27807,3.31676 1.96851,6.77375 4.36664,8.92987c0.95485,0.8585 1.67083,1.56089 1.59107,1.56089c-0.07976,0 -1.51547,-0.80545 -3.19046,-1.78987zM248.7567,173.73153c0.2461,-0.09845 0.54016,-0.08633 0.65345,0.02693c0.11326,0.11326 -0.08814,0.19386 -0.44747,0.17907c-0.39717,-0.01636 -0.47795,-0.09716 -0.20597,-0.20598zM248.7567,172.70875c0.2461,-0.09845 0.54016,-0.08633 0.65345,0.02693c0.11326,0.11326 -0.08814,0.19386 -0.44747,0.17907c-0.39717,-0.01636 -0.47795,-0.09716 -0.20597,-0.20598zM261.80278,152.62803c0.01637,-0.39717 0.09716,-0.47795 0.20598,-0.20597c0.09845,0.2461 0.08633,0.54015 -0.02693,0.65343c-0.11326,0.11326 -0.19388,-0.08814 -0.17907,-0.44746zM238.18793,131.45648c0.24611,-0.09849 0.54016,-0.08637 0.65345,0.02692c0.11326,0.11329 -0.08814,0.19387 -0.44746,0.17906c-0.39717,-0.01636 -0.47795,-0.09714 -0.20599,-0.20598z" fill="#f4a01d"/><path d="M208.87515,237.72035c-10.55225,-0.83987 -16.09564,-4.11751 -16.12642,-9.53503c-0.01946,-3.42868 2.10784,-5.92168 6.33389,-7.42263l1.66718,-0.59214v-1.59463c0,-4.11798 1.71964,-9.33152 4.53781,-13.75753c0.59697,-0.93756 2.96779,-4.05539 5.26851,-6.92854c3.95956,-4.94472 5.53912,-7.31852 5.53251,-8.31441c-0.00129,-0.24184 -1.05186,-1.08679 -2.3339,-1.87763c-6.3986,-3.94703 -10.98903,-9.59389 -12.7973,-15.74242c-1.16031,-3.94528 -1.02858,-9.75624 0.34474,-15.20782c0.73742,-2.92733 2.89776,-7.23396 4.5973,-9.16474l1.45938,-1.65796l-1.07398,-11.29158c-0.59069,-6.21037 -0.95584,-11.40971 -0.81145,-11.5541c0.14438,-0.14439 3.89291,2.26142 8.33004,5.34625l8.06751,5.60878l2.75411,-1.00513c3.85791,-1.40796 8.01,-1.86708 13.28585,-1.46908l4.26159,0.32149l5.17877,-5.10027c5.01677,-4.94072 5.18999,-5.07438 5.5371,-4.27243c0.2821,0.65174 3.09171,12.83623 3.09171,13.40786c0,0.07699 0.6812,0.53921 1.51378,1.02713c1.8668,1.09401 5.4576,4.59306 6.97129,6.79313c2.425,3.52461 4.15619,8.26275 4.63883,12.69609c0.21212,1.9485 0.29141,2.09575 1.33055,2.47152c1.44239,0.52158 3.83207,2.58139 4.50542,3.88351c0.51421,0.99435 0.58925,1.02097 2.25511,0.79998c2.53431,-0.33618 5.84291,-1.50702 7.86296,-2.78251c1.19314,-0.75337 1.8879,-1.00833 2.11694,-0.77685c0.7654,0.77353 -4.37818,3.40666 -8.30149,4.24973c-2.76343,0.59383 -2.81631,0.62414 -2.58441,1.48116c0.1302,0.48121 0.33153,2.24517 0.44739,3.91992c0.20929,3.025 0.21738,3.04688 1.23345,3.33317c0.56253,0.15849 2.59531,0.3839 4.51729,0.50088c2.60043,0.15829 3.49451,0.3304 3.49451,0.67272c0,0.329 -0.50979,0.45703 -1.78987,0.44949c-2.00273,-0.0116 -6.28146,-0.51932 -7.13313,-0.84615c-0.4388,-0.16839 -0.60497,0.08208 -0.79307,1.19543c-0.62367,3.69147 -4.27913,8.74812 -8.50284,11.76211c-2.61626,1.86691 -7.57337,4.29091 -10.47351,5.12147l-2.22822,0.63814l0.15303,4.79212c0.18279,5.72369 -0.50316,9.73428 -2.40455,14.05883c-1.59254,3.62208 -2.62524,7.0318 -2.62524,8.66789c0,1.19351 0.08736,1.3278 0.86327,1.3278c2.61583,0 4.25064,1.84013 4.25064,4.78445c0,3.10536 -1.36899,3.88818 -6.81856,3.899c-4.47538,0.00902 -5.53949,-0.38588 -6.77297,-2.51273l-0.71177,-1.22726l-0.00773,1.06203c-0.01031,1.42589 -1.12511,2.75809 -2.66552,3.18591c-1.69899,0.47187 -7.1138,0.41455 -8.58112,-0.09084c-1.38108,-0.47568 -2.60412,-2.12535 -3.13306,-4.22599c-0.20292,-0.80592 -0.48621,-1.46531 -0.62953,-1.46531c-0.14331,0 -0.03582,0.65203 0.239,1.44894c0.55022,1.59584 0.21439,3.54663 -0.74807,4.3454c-0.31522,0.2616 -0.43115,0.72071 -0.30695,1.21558c0.51055,2.03422 -1.67131,4.91726 -4.2076,5.55982c-1.89973,0.48127 -8.31697,0.68739 -12.07909,0.38796zM219.68239,236.50292c4.10706,-0.50268 5.93704,-4.46473 3.14663,-6.81271c-1.21744,-1.02442 -1.26643,-1.02435 -8.44211,0.0116c-5.8804,0.84874 -11.7873,0.28352 -14.6385,-1.40074c-1.8988,-1.12165 -1.82552,-3.36681 0.15169,-4.6475c1.21363,-0.78611 1.38097,-1.13136 0.90884,-1.875c-0.45218,-0.71218 -3.35558,0.50052 -5.01186,2.09337c-3.43179,3.30034 -2.40801,7.91862 2.28226,10.29537c4.17582,2.11604 14.3824,3.21965 21.60306,2.33589zM225.2966,227.76685c0,-0.7394 -0.16577,-1.65412 -0.36837,-2.03268c-0.53709,-1.00357 -2.38995,-1.65336 -4.71448,-1.65336c-1.12002,0 -2.11743,-0.13112 -2.21647,-0.29138c-0.09909,-0.16025 0.21391,-0.65886 0.69548,-1.108c2.60939,-2.43382 3.31997,-6.83337 1.68169,-10.41188c-1.0301,-2.25002 -1.01691,-2.16678 -0.34338,-2.16678c0.31399,0 0.89698,0.79951 1.42942,1.96033c1.47465,3.21502 1.22154,6.95441 -0.65548,9.68385c-0.34229,0.49771 -0.62233,0.97486 -0.62233,1.06032c0,0.14969 3.01669,0.59737 4.77298,0.70831c0.82718,0.05219 0.85735,-0.02422 1.02278,-2.59261c0.0938,-1.45554 0.32389,-2.64732 0.5114,-2.64839c0.18751,-0.00102 0.43183,1.34326 0.54294,2.98738c0.3166,4.68483 1.23952,7.55937 2.59611,8.08583c2.29239,0.88961 8.60265,0.54909 9.67377,-0.52203c0.78886,-0.78887 0.8612,-2.67317 0.15504,-4.03873c-0.5847,-1.13069 -1.12736,-1.38808 -2.92638,-1.38808c-0.95992,0 -1.42085,-0.18129 -1.67676,-0.65944c-0.45746,-0.85477 -0.44879,-3.57182 0.01688,-5.3068c0.56934,-2.121 2.72674,-6.30716 3.25048,-6.30716c0.65288,0 0.58852,0.58132 -0.20684,1.86825c-1.10859,1.79372 -2.39073,5.54978 -2.39073,7.00366c0,0.74576 0.0527,1.35593 0.11713,1.35593c1.12005,0 7.00732,-2.71591 7.70217,-3.55315c0.57088,-0.68787 1.38579,-0.69522 1.38579,-0.01289c0,0.28902 -0.78426,1.013 -1.74281,1.60886l-1.7428,1.08338l0.22007,1.88566c0.68978,5.91024 2.34532,7.1796 8.64076,6.62518c3.23973,-0.28531 4.17075,-0.96407 4.17075,-3.04063c0,-2.12948 -1.08021,-3.30087 -3.27651,-3.55306l-1.66694,-0.1914l0.04652,-2.55697c0.04665,-2.56935 0.52671,-4.19369 2.9722,-10.05737c1.43392,-3.43816 2.02234,-7.21394 1.86424,-11.96267c-0.07705,-2.31256 -0.23436,-4.29902 -0.3497,-4.41437c-0.11533,-0.11533 -1.87288,0.06649 -3.90564,0.40405c-5.02207,0.834 -15.63702,0.83623 -20.23091,0.00387c-3.67351,-0.6653 -8.12491,-1.95257 -10.71875,-3.0997l-1.75758,-0.77728l-0.63505,1.53539c-0.34927,0.84446 -2.50013,3.86062 -4.77969,6.70255c-4.95454,6.17684 -5.85283,7.45822 -7.43473,10.60535c-1.87187,3.72402 -2.41655,5.965 -2.43958,10.03701c-0.02551,4.52122 0.64051,6.64493 2.7437,8.74812l1.47971,1.47971h3.89966c2.14481,0 5.10214,-0.2301 6.57183,-0.51133c1.4697,-0.28122 3.26774,-0.51136 3.99565,-0.51138c1.3429,-0.00005 3.61999,1.11593 3.61999,1.77414c0,0.21497 0.20162,0.18754 0.51138,-0.06958c0.29637,-0.24596 0.5114,-0.98971 0.5114,-1.7688zM202.96358,226.95258c-0.65504,-0.85816 -1.19099,-1.76961 -1.19099,-2.02545c0,-0.8588 -0.7254,-0.92427 -1.55941,-0.14076c-1.44773,1.36008 -0.99379,2.3597 1.47094,3.23921c2.37194,0.84639 2.59914,0.65587 1.27946,-1.073zM240.42447,222.63187c-0.12203,-0.79693 -0.2658,-1.50139 -0.31943,-1.56548c-0.0536,-0.06404 -0.64595,0.08182 -1.31626,0.32418c-1.23284,0.4458 -1.63067,0.98559 -0.72639,0.98559c0.27081,0 0.92283,0.37869 1.44894,0.84155c0.52611,0.46285 0.99673,0.84639 1.04582,0.85231c0.04909,0.00644 -0.01031,-0.64124 -0.13268,-1.43816zM250.36171,192.37196c8.96611,-1.52954 16.54891,-5.16675 20.77533,-9.96521c1.76587,-2.0049 3.84732,-5.91814 4.15232,-7.80663c0.19113,-1.18346 0.14458,-1.25777 -1.03135,-1.64585c-1.41345,-0.46648 -1.78408,-1.58894 -0.41087,-1.24429c0.45135,0.11326 1.06502,0.29974 1.36372,0.41437c0.4606,0.17675 0.54306,-0.11069 0.54306,-1.89314c0,-1.15585 -0.17577,-2.7996 -0.39061,-3.65277c-0.38086,-1.51255 -0.41896,-1.54663 -1.52792,-1.36666c-1.48479,0.24094 -1.8428,-0.36515 -0.49354,-0.83551c0.5766,-0.201 1.04836,-0.50791 1.04836,-0.682c0,-0.69401 -3.04069,-3.29999 -4.50137,-3.85783l-1.55328,-0.59321l-0.23334,-2.36811c-0.34777,-3.52925 -1.04666,-5.91809 -2.74369,-9.37801c-1.74358,-3.55485 -4.98411,-7.30564 -8.23734,-9.53441l-1.98207,-1.3579l-0.73731,-3.2248c-0.40552,-1.77364 -1.07711,-4.74 -1.49242,-6.59192l-0.7551,-3.36713l-4.82043,4.79152l-4.82041,4.79152l-3.23883,-0.34895c-5.54183,-0.59708 -11.35308,0.01794 -15.1467,1.60302l-1.27029,0.53076l0.96378,0.72975c0.53008,0.40137 1.03027,0.78048 1.11151,0.84247c0.08131,0.06199 -0.0268,0.28727 -0.24018,0.50063c-0.28993,0.28994 -0.88696,0.01069 -2.36376,-1.10567c-3.85109,-2.91113 -15.54549,-10.8958 -15.71289,-10.7284c-0.09342,0.09347 0.26767,4.86168 0.80252,10.59604c0.63171,6.7727 0.85818,10.57958 0.64634,10.86409c-0.17938,0.2409 -1.03809,1.3763 -1.90826,2.52311c-3.12711,4.12136 -4.86523,10.05027 -4.86669,16.60086c-0.00058,2.62831 0.18273,4.36216 0.61278,5.79578c3.08758,10.29281 13.31212,18.27438 26.84894,20.95901c5.6859,1.12763 15.01807,1.13 21.60999,0.00515zM211.04545,175.63246c0.11648,-0.352 1.16394,-0.52786 4.05052,-0.68003c2.14141,-0.11288 5.34374,-0.53477 7.11632,-0.93755c1.77256,-0.40277 3.26838,-0.73232 3.32405,-0.73232c0.05567,0 0.10115,0.2272 0.10115,0.50489c0,0.27769 -0.34519,0.585 -0.76709,0.68289c-4.02565,0.93412 -6.47852,1.29248 -9.93153,1.45098c-3.36774,0.15458 -4.02405,0.10592 -3.89346,-0.28887zM247.62737,173.62602c-4.98497,-0.57123 -9.03459,-2.41707 -9.03459,-4.11801c0,-0.87037 0.89366,-0.84716 1.12283,0.02912c0.18841,0.72049 2.92233,2.13425 4.92693,2.54779c0.99154,0.20456 1.14495,0.12821 1.47886,-0.73603c0.20492,-0.53035 0.45251,-1.44205 0.55021,-2.02601c0.15694,-0.93802 0.06791,-1.0893 -0.76412,-1.29812c-0.51797,-0.13 -1.62336,-0.70533 -2.45643,-1.27849c-2.7446,-1.88833 -2.97051,-4.38707 -0.45529,-5.03603c0.67229,-0.17345 2.6798,-0.46301 4.46114,-0.64346c4.2795,-0.43352 5.45555,-0.02693 5.45339,1.88526c-0.00258,2.19104 -2.73174,5.54852 -4.51582,5.55523c-0.33433,0.00129 -0.60321,0.26454 -0.6116,0.59888c-0.00773,0.32814 -0.23144,1.20442 -0.49603,1.94728c-0.26459,0.74286 -0.44176,1.38997 -0.39373,1.438c0.04806,0.04806 0.94559,0.1882 1.99457,0.31149c1.43158,0.16826 2.18424,0.08595 3.01804,-0.32998c1.34479,-0.67087 1.34697,-0.67101 1.34697,-0.08453c0,1.14359 -2.20736,1.62918 -5.6253,1.23752zM222.56918,168.50531c-2.23255,-1.18452 -9.38988,-3.59086 -11.68097,-3.92719c-1.62319,-0.23829 -2.16,-0.5768 -1.81077,-1.14187c0.46219,-0.74783 9.85913,2.04828 14.15628,4.2123c1.33675,0.67317 2.3387,1.37242 2.22655,1.55388c-0.31567,0.51075 -0.86356,0.37865 -2.8911,-0.69712zM225.93833,164.97055c-4.54729,-1.62497 -8.02088,-6.0598 -9.31127,-11.88795c-0.16974,-0.76668 -0.39279,-0.93756 -1.22386,-0.93756c-0.59619,0 -1.01629,-0.17963 -1.01629,-0.43454c0,-0.27871 0.94746,-0.58459 2.64219,-0.853c5.08278,-0.80502 10.91696,-4.53472 13.38142,-8.5545c0.83893,-1.3684 1.70463,-1.85001 1.70463,-0.94833c0,0.25313 -0.47679,1.11844 -1.05954,1.92291l-1.05956,1.46267l1.10414,0.86411c3.08355,2.41324 5.44703,7.35768 5.44703,11.39527c0,3.74981 -1.3933,6.38342 -4.11054,7.76964c-1.53863,0.78496 -4.5997,0.87978 -6.49836,0.20128zM232.99789,163.22511c1.77385,-1.35299 2.35813,-2.96909 2.34179,-6.47753c-0.0116,-2.56566 -0.15816,-3.37555 -0.89252,-4.94345c-0.96862,-2.06809 -2.67848,-4.33225 -4.11811,-5.4532l-0.9338,-0.72707l-1.94521,1.58454c-2.17365,1.77065 -4.80206,3.17973 -7.60829,4.0788c-1.0313,0.33042 -1.98248,0.69696 -2.11372,0.81454c-0.36706,0.32886 0.3342,3.00167 1.31086,4.99626c3.06198,6.2534 9.87355,9.24325 13.959,6.12713zM228.51991,158.12678c-1.0352,-1.0352 -1.08662,-2.50386 -0.13022,-3.71972c1.47904,-1.88031 4.40732,-0.62417 4.40732,1.8906c0,1.24648 -1.36144,2.66595 -2.55695,2.66595c-0.48583,0 -1.25989,-0.37658 -1.72014,-0.83682zM258.02567,161.03128c-2.81449,-0.85923 -6.05513,-3.64263 -8.16289,-7.01113c-2.37699,-3.79881 -3.08771,-8.90416 -1.63879,-11.77225c1.14991,-2.27625 2.66568,-3.14816 5.19914,-2.99075c2.52467,0.15687 4.65692,1.15295 6.73941,3.1483c3.31028,3.17182 5.29835,7.18864 5.6139,11.34271c0.16609,2.18648 0.08646,2.65998 -0.72714,4.32289c-0.72402,1.47983 -1.21627,2.01393 -2.37165,2.57324c-1.48446,0.71862 -3.12005,0.85468 -4.65198,0.38699zM262.39232,159.63714c0.65118,-0.39701 1.40446,-1.29701 1.78238,-2.12953c2.7444,-6.04562 -4.29262,-17.25404 -10.85372,-17.28754c-2.06076,-0.01031 -3.40925,0.79198 -4.17874,2.48684c-2.31532,5.09965 1.88797,13.95988 7.96477,16.78919c2.16133,1.00631 3.79463,1.04989 5.28531,0.14104zM257.70949,154.31509c-1.41995,-1.80517 -0.45941,-4.21562 1.67989,-4.21562c1.43733,0 2.38649,1.06374 2.38649,2.67458c0,2.406 -2.60844,3.39452 -4.06638,1.54104z" fill="#464444"/></g><path d="M231.81304,192.72809c-2.81541,-0.32965 -7.71471,-1.58969 -10.78231,-2.77309c-2.25364,-0.86939 -2.84115,-1.2215 -4.20578,-2.52063c-2.60393,-2.47896 -3.9342,-4.99428 -4.49657,-8.50233c-0.14937,-0.93179 -0.32377,-1.94543 -0.38756,-2.25256c-0.10862,-0.5231 -0.03324,-0.55843 1.19171,-0.55863c3.43251,-0.00069 11.5605,-1.18331 12.2895,-1.78833c0.28422,-0.23588 0.44959,-1.18965 0.20627,-1.18965c-0.05734,0 -1.3696,0.27251 -2.91615,0.60559c-1.54655,0.33308 -4.04041,0.72437 -5.54192,0.86954c-1.50152,0.14517 -3.3211,0.32091 -4.04354,0.39055c-1.22296,0.1179 -1.29643,0.09471 -1.06577,-0.3363c0.13625,-0.25461 0.41947,-1.28657 0.62936,-2.29324c0.44675,-2.14264 1.29405,-3.9401 2.4931,-5.28891l0.85788,-0.96503l1.92948,0.67401c1.06122,0.37071 3.02097,1.17889 4.35503,1.79596c2.35701,1.09025 3.15858,1.21415 3.15858,0.48824c0,-0.45381 -3.47526,-2.26142 -6.2578,-3.25492l-2.16379,-0.77257l2.34018,-0.79603c1.28711,-0.43782 2.54344,-0.79604 2.79187,-0.79604c0.24842,0 1.2298,0.41413 2.18084,0.92029c1.55498,0.82758 1.95762,0.93044 3.99715,1.02112c2.4606,0.1094 3.63592,-0.14205 5.0534,-1.08112l0.86865,-0.57546l3.47456,0.40055c1.911,0.2203 3.5154,0.50208 3.56531,0.62618c0.31658,0.78719 1.8313,2.04034 3.40821,2.81969c1.20042,0.59328 1.83698,1.05315 1.83698,1.32707c0,0.72389 -0.70631,2.80288 -1.01759,2.99526c-0.34547,0.21352 -2.38497,-0.34859 -3.82197,-1.05338c-0.54601,-0.26779 -1.35144,-0.89765 -1.78986,-1.39968c-0.75274,-0.86196 -0.82083,-0.88911 -1.22288,-0.48763c-0.34559,0.34509 -0.37394,0.5389 -0.15054,1.0292c0.6686,1.46742 3.53903,2.78886 7.59399,3.49599c1.20264,0.20971 2.26941,0.43249 2.37063,0.49504c0.28032,0.17326 3.37239,-0.31093 4.09854,-0.64178c0.42298,-0.19272 0.64063,-0.48914 0.64063,-0.87251c0,-0.68206 -0.14026,-0.70408 -1.32674,-0.20834c-0.90338,0.37746 -3.2839,0.49326 -4.33786,0.21102c-0.44443,-0.11901 -0.54277,-0.2749 -0.42844,-0.67912c0.08156,-0.28856 0.29628,-1.07738 0.47701,-1.75296c0.29965,-1.12001 0.41914,-1.25849 1.35505,-1.57046c1.25337,-0.41779 2.85672,-2.14376 3.66153,-3.94154c0.59592,-1.33115 1.45689,-2.13017 3.2849,-3.04852c0.96872,-0.48666 1.20348,-0.51144 2.431,-0.25661c2.29408,0.47624 4.59154,-0.20057 5.88044,-1.73235c0.58944,-0.70051 0.75409,-0.75543 2.26488,-0.75543c1.24223,0 1.62921,0.08374 1.62921,0.35255c0,0.19391 0.323,0.4235 0.71777,0.51021c1.38802,0.30487 5.23861,3.21742 5.23861,3.96245c0,0.16208 -0.39944,0.48518 -0.88764,0.71799c-1.13803,0.54269 -0.9774,1.03365 0.33821,1.03365c0.559,0 1.12563,0.11167 1.25918,0.24818c0.35537,0.36319 0.77935,2.95457 0.77935,4.76322v1.56978l-1.36499,-0.16043c-1.16807,-0.13728 -1.36501,-0.10132 -1.36501,0.24924c0,0.24104 0.47013,0.63808 1.14214,0.96457c1.13882,0.55328 1.14178,0.55807 1.01959,1.6421c-0.16246,1.44138 -2.08103,5.24673 -3.577,7.09476c-4.20087,5.18949 -12.27177,9.10733 -22.03803,10.69787c-2.93774,0.47845 -14.51266,0.69764 -17.62098,0.33369z" fill="#ffffff" stroke-width="0.81242"/><path d="M235.65988,220.38214c0,-1.42176 0.70266,-3.76382 1.87522,-6.25032c0.60146,-1.27544 1.08708,-2.55978 1.07918,-2.8541c-0.00773,-0.29432 0.10991,-0.98185 0.26181,-1.52785c0.15189,-0.546 0.33967,-3.1147 0.41728,-5.70821c0.13371,-4.46821 0.17323,-4.76543 0.75372,-5.66817c0.94413,-1.46825 2.78457,-2.20889 5.50452,-2.21516c4.59324,-0.01031 6.1329,1.66615 6.09931,6.64243c-0.01933,2.86665 -0.48224,4.8973 -1.70799,7.49291c-1.5646,3.3131 -4.5403,7.15821 -5.34263,6.90355c-0.26397,-0.08376 -0.95924,0.21921 -1.77133,0.77192c-1.45677,0.99148 -3.81895,2.13681 -5.86614,2.84426l-1.30295,0.45026z" fill="#ffffff" stroke-width="0.81242"/><path d="M227.87946,164.18633c-1.82475,-0.29133 -3.7665,-1.36445 -5.58996,-3.08932c-1.87959,-1.77797 -3.02731,-3.54444 -3.88848,-5.98485c-0.95578,-2.70849 -0.90671,-2.87184 1.06492,-3.54523c2.90667,-0.99275 5.71028,-2.46273 7.93619,-4.1611l2.1533,-1.64297l1.75834,1.86393c1.13145,1.19941 2.10717,2.55121 2.73679,3.79165c0.92161,1.81571 0.9841,2.07999 1.07546,4.54816c0.12795,3.45801 -0.20816,4.90875 -1.46955,6.34175c-1.40875,1.60043 -3.42005,2.25425 -5.77701,1.87795zM231.74598,158.50849c1.87159,-1.47219 1.22247,-4.5971 -1.05902,-5.0982c-2.79156,-0.61313 -4.20685,3.84732 -1.66811,5.25725c0.83272,0.46247 2.02543,0.39291 2.72713,-0.15905z" fill="#ffffff" stroke-width="0.81242"/><path d="M258.36538,159.79093c-2.04109,-0.70579 -3.4319,-1.66463 -5.27096,-3.63389c-4.95435,-5.30508 -5.98066,-13.27125 -1.97318,-15.31572c1.46815,-0.749 3.57289,-0.54451 5.6187,0.54589c4.39793,2.34407 8.43039,9.53429 7.84289,13.98453c-0.29326,2.22151 -1.69482,4.13983 -3.37715,4.62231c-1.12151,0.32164 -1.37516,0.30351 -2.8403,-0.20313zM260.74055,155.01792c0.26286,-0.14068 0.70348,-0.72263 0.97917,-1.29322l0.50123,-1.03744l-0.49533,-1.05376c-0.58466,-1.24384 -1.10275,-1.57164 -2.48389,-1.57164c-1.3609,0 -2.23812,0.8945 -2.23812,2.28221c0,1.09041 0.52798,2.28247 1.17887,2.66157c0.56656,0.32999 1.952,0.33664 2.55807,0.01224z" fill="#ffffff" stroke-width="0.81242"/><path d="M215.25125,235.72386c0.72584,-1.17443 0.68807,-2.96042 -0.09535,-4.50785c-0.33657,-0.66483 -0.56046,-1.26025 -0.49755,-1.32317c0.20408,-0.20407 4.42223,-0.7677 5.78667,-0.77322c3.75104,-0.01521 4.79248,4.1922 1.57448,6.36083c-1.06462,0.71744 -2.83864,1.0793 -5.29137,1.0793h-1.9935z" fill="#ffffff" stroke-width="0.81242"/></g></g></svg>