<svg version="1.1" xmlns="http://www.w3.org/2000/svg" xmlns:xlink="http://www.w3.org/1999/xlink" width="101.86568" height="124.73605" viewBox="0,0,101.86568,124.73605"><g transform="translate(-189.06716,-117.63198)"><g data-paper-data="{&quot;isPaintingLayer&quot;:true}" fill-rule="nonzero" stroke="none" stroke-linecap="butt" stroke-linejoin="miter" stroke-miterlimit="10" stroke-dasharray="" stroke-dashoffset="0" style="mix-blend-mode: normal"><path d="" fill="#ffffff" stroke-width="0.81242"/><g stroke-width="0.26459"><path d="M207.79773,241.0947c-7.98351,-0.45892 -13.4934,-2.16091 -15.91156,-4.91504c-2.4833,-2.82831 -2.30491,-6.22416 0.46698,-8.88986c1.78533,-1.71695 4.91494,-3.02414 5.40235,-2.25647c0.50892,0.80157 0.32854,1.17372 -0.97964,2.02107c-2.24015,1.45102 -2.20365,3.86469 0.07736,5.11892c2.35595,1.29538 5.11306,1.75513 10.45789,1.74384l5.02578,-0.01111l0.76218,1.35613c0.96712,1.72076 0.97708,3.63993 0.02514,4.85008c-0.53922,0.6855 -0.61319,0.98692 -0.27562,1.12303c0.25377,0.10236 0.29604,0.17423 0.09389,0.15978c-0.20212,-0.01444 -2.5173,-0.14984 -5.14485,-0.30087zM223.04857,233.47002c0,-0.70948 -2.4545,-1.91242 -3.90203,-1.91235c-0.78462,0.00003 -2.72275,0.24809 -4.30696,0.55123c-1.5842,0.30315 -4.77194,0.55117 -7.08385,0.55117h-4.20348l-1.595,-1.595c-2.26705,-2.26705 -2.98501,-4.55622 -2.95747,-9.4297c0.02486,-4.38927 0.61194,-6.80484 2.62965,-10.81902c1.70514,-3.39233 2.67343,-4.77354 8.01398,-11.43163c2.45717,-3.06336 4.7756,-6.31451 5.15209,-7.22476l0.68452,-1.65502l1.89451,0.83785c2.79593,1.23649 7.59415,2.62405 11.55387,3.34119c4.9518,0.8968 16.39378,0.8944 21.80713,-0.00417c2.19114,-0.36386 4.08559,-0.55985 4.20993,-0.43553c0.12431,0.12431 0.29395,2.26557 0.37694,4.75831c0.17041,5.11871 -0.46385,9.18866 -2.00949,12.8947c-2.63602,6.32054 -3.15346,8.07143 -3.20377,10.84096l-0.05014,2.75618l1.79682,0.20632c2.36742,0.27184 3.53179,1.53449 3.53179,3.82987c0,2.23836 -1.00356,2.97 -4.4957,3.27753c-6.79159,0.59812 -8.57018,-0.76866 -9.31605,-7.15903l-0.2393,-2.05023l1.49001,-0.88968c2.31751,-1.3838 6.16742,-6.00638 7.78039,-9.34196c1.69495,-3.50511 2.34625,-6.5584 2.14788,-10.06918c-0.24221,-4.28667 -2.25515,-6.10657 -6.73823,-6.09205c-3.01744,0.00972 -4.93169,0.79175 -6.1627,2.51753c-0.75251,1.05497 -0.8106,1.49498 -0.70947,5.37517c0.11695,4.48795 -0.45478,8.45228 -1.21904,8.45228c-0.52453,0 -2.86573,4.60883 -3.45352,6.79856c-0.50202,1.87015 -0.51137,4.7989 -0.01819,5.72026c0.27584,0.51541 0.7727,0.71082 1.8074,0.71082c1.93918,0 2.52412,0.27746 3.15438,1.49625c0.76118,1.47194 0.6832,3.50304 -0.16711,4.35338c-1.15457,1.15457 -7.95646,1.52162 -10.42745,0.5627c-1.46229,-0.56748 -2.45713,-3.66598 -2.79839,-8.71581c-0.11972,-1.77221 -0.38312,-3.22127 -0.58524,-3.22012c-0.20212,0.0011 -0.45017,1.28577 -0.55123,2.85471c-0.17833,2.76851 -0.21084,2.85092 -1.10247,2.7946c-1.89314,-0.11959 -5.14486,-0.60213 -5.14486,-0.7635c0,-0.09209 0.30187,-0.60644 0.67082,-1.14293c2.02326,-2.94209 2.2961,-6.9728 0.70655,-10.43833c-0.57392,-1.25125 -1.20234,-2.11306 -1.54079,-2.11306c-0.726,0 -0.74021,-0.08973 0.37014,2.3356c1.76594,3.85732 0.99997,8.59964 -1.81271,11.22308c-0.51907,0.48415 -0.85643,1.02161 -0.74967,1.19434c0.10681,0.17274 1.18187,0.31408 2.38915,0.31408c2.50563,0 4.50286,0.70042 5.08179,1.78218c0.58375,1.09074 0.49076,3.56242 -0.15417,4.09766c-0.3339,0.27712 -0.55123,0.30668 -0.55123,0.075zM256.51917,200.10659c0.01764,-0.42811 0.10473,-0.51519 0.22202,-0.22202c0.10612,0.26528 0.09305,0.58224 -0.02903,0.70435c-0.12209,0.12209 -0.20896,-0.09501 -0.193,-0.48232zM212.91788,187.73442c-4.63967,-2.72684 -9.75681,-7.8623 -11.8093,-11.85155c-2.27308,-4.41801 -2.8356,-6.6788 -2.83455,-11.3922c0.00139,-7.06096 1.87512,-13.4518 5.24587,-17.89427c0.93797,-1.23617 1.86358,-2.46003 2.05694,-2.71969c0.22835,-0.30668 -0.01583,-4.41016 -0.69669,-11.71053c-0.57652,-6.18113 -0.96579,-11.32085 -0.86505,-11.42159c0.18044,-0.18044 12.78597,8.42634 16.93711,11.56428c1.59186,1.20332 2.2354,1.50435 2.54793,1.19181c0.22998,-0.22998 0.34649,-0.47281 0.2589,-0.53963c-0.0875,-0.06682 -0.62673,-0.47547 -1.19811,-0.90811l-1.03887,-0.78661l1.36926,-0.57211c4.08919,-1.70857 10.3532,-2.37151 16.32681,-1.72791l3.49117,0.37614l5.19598,-5.16483l5.196,-5.16484l0.81393,3.62947c0.44767,1.99621 1.17158,5.19368 1.6087,7.10551l0.79475,3.47605l2.13649,1.46369c6.42915,4.40458 10.87771,11.93008 11.80657,19.97283l0.26525,2.29682h-1.85478h-1.85479l0.5773,-1.37809c1.22125,-2.9153 0.055,-8.42258 -2.64466,-12.48856c-2.9047,-4.3748 -6.41501,-6.76746 -10.28105,-7.00768c-2.73085,-0.16967 -4.36472,0.77018 -5.60422,3.22377c-1.5618,3.09154 -0.79572,8.59465 1.76647,12.68944c1.54081,2.46245 4.60653,5.58184 6.39477,6.50672l1.45454,0.75229l-1.82203,0.90755c-1.00213,0.49915 -2.02875,1.17133 -2.2814,1.49372c-0.39832,0.50828 -0.45936,0.45227 -0.45936,-0.42154c0,-1.62942 -1.60016,-2.07656 -5.87985,-1.64302c-4.78024,0.48424 -6.14247,0.8784 -6.48093,1.87526c-0.1529,0.45031 -0.23274,1.04969 -0.17746,1.33196c0.08014,0.40901 -0.25966,0.46285 -1.67352,0.26519c-0.97575,-0.13639 -2.7161,-0.34864 -3.86747,-0.47163l-2.09341,-0.22364l0.84832,-1.14404c1.85987,-2.50827 2.2163,-6.51187 0.94588,-10.625c-0.79775,-2.58281 -3.18272,-6.14939 -5.1325,-7.67532l-1.19017,-0.93143l1.14211,-1.57663c0.62816,-0.86714 1.1421,-1.79987 1.1421,-2.07273c0,-0.97192 -0.93314,-0.45279 -1.83744,1.02222c-2.65647,4.33297 -8.9452,8.35326 -14.42399,9.221c-1.82677,0.28933 -2.84805,0.61904 -2.84805,0.91946c0,0.27477 0.45283,0.46839 1.09547,0.46839c0.89582,0 1.13625,0.18418 1.31921,1.0106c0.8509,3.84318 2.26878,6.63031 4.65828,9.15687c1.62214,1.71517 1.75141,1.9597 1.03592,1.9597c-0.44961,0 -1.83997,0.40907 -3.08968,0.90903c-2.18516,0.8742 -2.34245,0.8876 -4.10508,0.34983c-3.11206,-0.94947 -6.42644,-1.55624 -6.63727,-1.21511c-0.36443,0.58967 0.17573,0.95925 1.76448,1.20725c0.86349,0.13473 2.52974,0.51153 3.70282,0.83723l2.13284,0.59216l-1.07815,1.14036c-0.59298,0.6272 -1.27396,1.52139 -1.51328,1.98707c-0.63105,1.22788 -1.48191,4.16343 -1.48654,5.12861c-0.00278,0.45674 -0.33471,1.11364 -0.73896,1.45975c-0.85314,0.7305 -0.94601,1.20096 -0.23703,1.20096c0.35245,0 0.56299,0.77611 0.72064,2.6565c0.29973,3.57517 2.12188,7.3015 4.70685,9.62561c1.02925,0.92538 1.80101,1.68251 1.71504,1.68251c-0.08597,0 -1.63355,-0.8682 -3.43903,-1.92932zM249.43895,173.24315c0.26528,-0.10612 0.58224,-0.09306 0.70436,0.02903c0.12209,0.12209 -0.095,0.20897 -0.48234,0.19302c-0.42811,-0.01764 -0.51518,-0.10473 -0.22202,-0.22202zM249.43895,172.14068c0.26528,-0.10612 0.58224,-0.09305 0.70436,0.02903c0.12209,0.12209 -0.095,0.20896 -0.48234,0.19302c-0.42811,-0.01764 -0.51518,-0.10473 -0.22202,-0.22202zM263.50148,150.49543c0.01764,-0.42811 0.10473,-0.51518 0.22202,-0.22202c0.10612,0.26528 0.09306,0.58223 -0.02903,0.70434c-0.12209,0.12209 -0.20898,-0.095 -0.19302,-0.48232zM238.04674,127.67437c0.26529,-0.10616 0.58224,-0.0931 0.70436,0.02902c0.12209,0.12212 -0.095,0.20897 -0.48232,0.19301c-0.42811,-0.01764 -0.51519,-0.10471 -0.22204,-0.22202z" fill="#f4a01d"/><path d="M206.45016,242.21745c-11.3744,-0.90531 -17.34968,-4.43831 -17.38286,-10.27792c-0.02097,-3.69581 2.27207,-6.38305 6.82737,-8.00094l1.79708,-0.63827v-1.71887c0,-4.43882 1.85362,-10.05855 4.89136,-14.82941c0.64348,-1.01061 3.19902,-4.37135 5.67899,-7.46835c4.26805,-5.32997 5.97068,-7.88872 5.96356,-8.9622c-0.00139,-0.26069 -1.13382,-1.17146 -2.51574,-2.02392c-6.89712,-4.25455 -11.8452,-10.34137 -13.79436,-16.96894c-1.25071,-4.25267 -1.10872,-10.51637 0.3716,-16.39269c0.79488,-3.15541 3.12353,-7.79757 4.95548,-9.87879l1.57309,-1.78713l-1.15766,-12.17133c-0.63672,-6.69423 -1.03032,-12.29866 -0.87467,-12.4543c0.15563,-0.15564 4.19621,2.43761 8.97905,5.76279l8.69606,6.04577l2.96869,-1.08344c4.15848,-1.51766 8.63408,-2.01255 14.32097,-1.58354l4.59362,0.34653l5.58226,-5.49764c5.40764,-5.32566 5.59435,-5.46973 5.96851,-4.6053c0.30408,0.70252 3.33259,13.83632 3.33259,14.45249c0,0.08299 0.73428,0.58122 1.63173,1.10716c2.01224,1.17924 5.88281,4.95091 7.51444,7.32239c2.61394,3.79922 4.48001,8.90651 5.00025,13.68527c0.22865,2.10031 0.31411,2.25904 1.43422,2.66408c1.55477,0.56222 4.13064,2.78251 4.85644,4.18608c0.55427,1.07182 0.63516,1.10051 2.43081,0.86231c2.73176,-0.36237 6.29814,-1.62443 8.47558,-2.9993c1.2861,-0.81207 2.03499,-1.08689 2.28187,-0.83738c0.82503,0.8338 -4.7193,3.67208 -8.94827,4.58083c-2.97873,0.64009 -3.03573,0.67276 -2.78577,1.59656c0.14035,0.5187 0.35736,2.4201 0.48225,4.22533c0.22559,3.26069 0.23432,3.28427 1.32955,3.59287c0.60636,0.17084 2.79751,0.41381 4.86924,0.53991c2.80303,0.17062 3.76677,0.35614 3.76677,0.72514c0,0.35464 -0.5495,0.49264 -1.92932,0.48451c-2.15877,-0.0125 -6.77086,-0.55978 -7.68889,-0.91207c-0.47299,-0.18151 -0.65211,0.08847 -0.85486,1.28857c-0.67226,3.97908 -4.61253,9.4297 -9.16531,12.67851c-2.8201,2.01236 -8.16342,4.62522 -11.28952,5.52049l-2.40182,0.68786l0.16495,5.16548c0.19703,6.16964 -0.54237,10.4927 -2.5919,15.15418c-1.71662,3.90428 -2.82978,7.57966 -2.82978,9.34322c0,1.2865 0.09417,1.43125 0.93053,1.43125c2.81963,0 4.58182,1.9835 4.58182,5.15721c0,3.3473 -1.47565,4.19111 -7.34981,4.20278c-4.82406,0.00972 -5.97108,-0.41594 -7.30067,-2.7085l-0.76722,-1.32288l-0.00833,1.14478c-0.01111,1.53698 -1.21277,2.97298 -2.8732,3.43414c-1.83136,0.50863 -7.66805,0.44685 -9.24969,-0.09792c-1.48868,-0.51274 -2.80701,-2.29094 -3.37717,-4.55525c-0.21873,-0.86871 -0.52409,-1.57947 -0.67858,-1.57947c-0.15448,0 -0.03861,0.70283 0.25762,1.56183c0.59309,1.72017 0.23109,3.82295 -0.80635,4.68396c-0.33978,0.28198 -0.46474,0.77686 -0.33086,1.31028c0.55033,2.1927 -1.80152,5.30037 -4.53543,5.99299c-2.04774,0.51877 -8.96496,0.74094 -13.02019,0.41818zM218.09941,240.90517c4.42705,-0.54184 6.39961,-4.81259 3.39179,-7.3435c-1.3123,-1.10423 -1.3651,-1.10416 -9.09985,0.0125c-6.33855,0.91487 -12.70566,0.30561 -15.77901,-1.50988c-2.04674,-1.20904 -1.96775,-3.62913 0.16351,-5.0096c1.30819,-0.84736 1.48856,-1.2195 0.97964,-2.02109c-0.48741,-0.76767 -3.61702,0.53952 -5.40235,2.25647c-3.69916,3.55748 -2.59562,8.53557 2.46008,11.0975c4.50116,2.2809 15.50296,3.4705 23.28619,2.51788zM224.15103,231.48845c0,-0.79701 -0.17869,-1.783 -0.39707,-2.19105c-0.57893,-1.08176 -2.57616,-1.78217 -5.08179,-1.78217c-1.20728,0 -2.2824,-0.14134 -2.38915,-0.31408c-0.10681,-0.17274 0.23058,-0.71019 0.74967,-1.19433c2.81269,-2.62344 3.57864,-7.36577 1.81271,-11.22308c-1.11036,-2.42533 -1.09614,-2.3356 -0.37014,-2.3356c0.33845,0 0.96687,0.86181 1.54079,2.11306c1.58954,3.46551 1.31671,7.49624 -0.70655,10.43833c-0.36896,0.53649 -0.67082,1.05081 -0.67082,1.14293c0,0.16135 3.25173,0.64391 5.14485,0.7635c0.89163,0.05625 0.92414,-0.02611 1.10247,-2.7946c0.10111,-1.56894 0.34913,-2.85358 0.55124,-2.85473c0.20212,-0.0011 0.46547,1.44792 0.58524,3.22013c0.34126,5.04984 1.33609,8.14833 2.79837,8.71581c2.47099,0.95892 9.2729,0.59187 10.42747,-0.5627c0.85032,-0.85034 0.92829,-2.88144 0.16711,-4.35339c-0.63026,-1.21878 -1.21519,-1.49623 -3.15438,-1.49623c-1.03471,0 -1.53156,-0.19541 -1.8074,-0.71082c-0.4931,-0.92137 -0.48375,-3.85011 0.01819,-5.72026c0.6137,-2.28625 2.93919,-6.79857 3.50374,-6.79857c0.70374,0 0.63437,0.62661 -0.22295,2.01381c-1.19496,1.93347 -2.577,5.98218 -2.577,7.54933c0,0.80386 0.05681,1.46157 0.12625,1.46157c1.20731,0 7.55327,-2.92751 8.30226,-3.82999c0.61536,-0.74146 1.49376,-0.74939 1.49376,-0.01389c0,0.31154 -0.84537,1.09193 -1.8786,1.73421l-1.87858,1.16779l0.23722,2.03257c0.74352,6.37072 2.52805,7.73897 9.31397,7.14136c3.49214,-0.30754 4.4957,-1.03918 4.4957,-3.27753c0,-2.29539 -1.16437,-3.55805 -3.53179,-3.82989l-1.79682,-0.20631l0.05014,-2.75618c0.05028,-2.76953 0.56774,-4.52043 3.20377,-10.84096c1.54564,-3.70604 2.1799,-7.77599 2.00949,-12.8947c-0.08306,-2.49274 -0.25262,-4.63397 -0.37694,-4.75831c-0.12431,-0.12431 -2.0188,0.07167 -4.20993,0.43553c-5.41335,0.89898 -16.85533,0.90138 -21.80713,0.00417c-3.95972,-0.71714 -8.75794,-2.1047 -11.55387,-3.3412l-1.89451,-0.83783l-0.68452,1.65501c-0.37649,0.91026 -2.69492,4.1614 -5.15209,7.22476c-5.34055,6.65809 -6.30883,8.0393 -8.01398,11.43163c-2.01771,4.01417 -2.60483,6.42975 -2.62965,10.81902c-0.0275,4.87348 0.69041,7.16265 2.95747,9.4297l1.595,1.595h4.20349c2.31192,0 5.49966,-0.24803 7.08385,-0.55117c1.58421,-0.30313 3.52233,-0.5512 4.30696,-0.55123c1.44752,-0.00006 3.90203,1.20288 3.90203,1.91236c0,0.23172 0.21733,0.20216 0.55123,-0.075c0.31946,-0.26512 0.55124,-1.06682 0.55124,-1.90661zM200.078,230.61074c-0.70608,-0.92502 -1.28378,-1.90749 -1.28378,-2.18326c0,-0.92571 -0.78192,-0.99628 -1.68091,-0.15172c-1.56053,1.46604 -1.07122,2.54355 1.58554,3.49158c2.55674,0.91234 2.80164,0.70697 1.37915,-1.1566zM240.45754,225.95339c-0.13153,-0.85902 -0.28651,-1.61836 -0.34432,-1.68745c-0.05778,-0.06903 -0.69628,0.0882 -1.41882,0.34944c-1.3289,0.48053 -1.75771,1.06238 -0.78299,1.06238c0.29191,0 0.99473,0.40819 1.56183,0.90712c0.5671,0.49891 1.07439,0.91234 1.1273,0.91871c0.05292,0.00695 -0.01111,-0.6912 -0.14302,-1.55021zM251.16901,193.33589c9.66468,-1.64871 17.83827,-5.5693 22.39397,-10.74162c1.90346,-2.16111 4.14707,-6.37923 4.47583,-8.41486c0.20602,-1.27567 0.15584,-1.35576 -1.1117,-1.77408c-1.52357,-0.50283 -1.92309,-1.71274 -0.44288,-1.34124c0.48652,0.12209 1.148,0.32309 1.46997,0.44665c0.49649,0.19052 0.58537,-0.11931 0.58537,-2.04064c0,-1.2459 -0.18946,-3.01772 -0.42104,-3.93736c-0.41053,-1.63039 -0.4516,-1.66713 -1.64696,-1.47314c-1.60047,0.25972 -1.98638,-0.3936 -0.53199,-0.9006c0.62152,-0.21666 1.13004,-0.54748 1.13004,-0.73514c0,-0.74808 -3.27759,-3.5571 -4.85208,-4.1584l-1.6743,-0.63942l-0.25152,-2.55262c-0.37486,-3.80422 -1.12821,-6.37917 -2.95745,-10.10867c-1.87943,-3.83182 -5.37243,-7.87484 -8.87913,-10.27726l-2.13649,-1.46369l-0.79475,-3.47605c-0.43712,-1.91183 -1.16103,-5.1093 -1.6087,-7.10551l-0.81393,-3.62947l-5.196,5.16484l-5.19598,5.16483l-3.49117,-0.37614c-5.97361,-0.6436 -12.23762,0.01933 -16.32681,1.72791l-1.36926,0.57211l1.03887,0.78661c0.57138,0.43264 1.11054,0.84129 1.19811,0.90811c0.08764,0.06682 -0.02889,0.30965 -0.2589,0.53963c-0.31252,0.31253 -0.95606,0.01153 -2.54793,-1.19181c-4.15114,-3.13794 -16.75667,-11.74471 -16.93711,-11.56427c-0.1007,0.10075 0.28853,5.24047 0.86505,11.4216c0.68093,7.30038 0.92505,11.40386 0.69669,11.71053c-0.19335,0.25967 -1.11897,1.48353 -2.05694,2.71969c-3.37075,4.44247 -5.24429,10.83331 -5.24587,17.89427c-0.00063,2.83309 0.19696,4.70202 0.66052,6.24734c3.32814,11.09475 14.3493,19.69817 28.94079,22.59197c6.1289,1.21549 16.18815,1.21804 23.29366,0.00555zM208.78955,175.29218c0.12556,-0.37943 1.25463,-0.56899 4.3661,-0.73301c2.30825,-0.12167 5.76008,-0.57644 7.67076,-1.01059c1.91067,-0.43415 3.52303,-0.78938 3.58303,-0.78938c0.06,0 0.10903,0.2449 0.10903,0.54423c0,0.29933 -0.37208,0.63058 -0.82685,0.7361c-4.33929,1.0069 -6.98327,1.39318 -10.70531,1.56403c-3.63013,0.16663 -4.33757,0.11417 -4.1968,-0.31137zM248.22164,173.12941c-5.37336,-0.61573 -9.73849,-2.60538 -9.73849,-4.43885c0,-0.93819 0.96328,-0.91316 1.21031,0.03139c0.20309,0.77663 3.15002,2.30053 5.31079,2.74629c1.06879,0.22049 1.23415,0.1382 1.59409,-0.79337c0.22089,-0.57168 0.48777,-1.5544 0.59308,-2.18386c0.16917,-1.0111 0.0732,-1.17417 -0.82365,-1.39926c-0.55833,-0.14013 -1.74984,-0.76028 -2.64782,-1.3781c-2.95844,-2.03545 -3.20195,-4.72888 -0.49077,-5.42839c0.72466,-0.18697 2.88859,-0.49909 4.80871,-0.6936c4.61293,-0.46729 5.8806,-0.02903 5.87827,2.03214c-0.00278,2.36175 -2.94457,5.98081 -4.86766,5.98805c-0.36037,0.00139 -0.6502,0.28515 -0.65925,0.64554c-0.00834,0.35371 -0.24947,1.29826 -0.53467,2.09899c-0.28521,0.80074 -0.47618,1.49826 -0.42441,1.55004c0.05181,0.05181 1.01926,0.20286 2.14997,0.33576c1.54312,0.18137 2.35442,0.09264 3.25318,-0.35569c1.44957,-0.72313 1.45191,-0.72329 1.45191,-0.09112c0,1.23269 -2.37934,1.75611 -6.06358,1.33393zM221.21111,167.60974c-2.40649,-1.27681 -10.12146,-3.87063 -12.59105,-4.23317c-1.74966,-0.25686 -2.32829,-0.62174 -1.95185,-1.23083c0.4982,-0.8061 10.62727,2.20787 15.25922,4.54048c1.4409,0.72562 2.52091,1.47935 2.40003,1.67495c-0.34026,0.55055 -0.93084,0.40815 -3.11635,-0.75143zM224.84276,163.79957c-4.90158,-1.75158 -8.6458,-6.53193 -10.03672,-12.81416c-0.18296,-0.82642 -0.42339,-1.0106 -1.31921,-1.0106c-0.64264,0 -1.09547,-0.19362 -1.09547,-0.46839c0,-0.30043 1.02127,-0.63013 2.84805,-0.91946c5.47879,-0.86774 11.76752,-4.88802 14.42399,-9.221c0.9043,-1.47501 1.83744,-1.99414 1.83744,-1.02222c0,0.27286 -0.51394,1.20558 -1.1421,2.07273l-1.14211,1.57663l1.19017,0.93143c3.3238,2.60126 5.87142,7.93093 5.87142,12.2831c0,4.04197 -1.50186,6.88076 -4.4308,8.37498c-1.6585,0.84611 -4.95807,0.94832 -7.00466,0.21697zM232.45235,161.91814c1.91205,-1.4584 2.54186,-3.20042 2.52424,-6.98221c-0.0125,-2.76556 -0.17048,-3.63855 -0.96206,-5.32861c-1.04409,-2.22922 -2.88716,-4.66978 -4.43896,-5.87807l-1.00655,-0.78372l-2.09676,1.70799c-2.343,1.90861 -5.1762,3.42747 -8.20107,4.39659c-1.11165,0.35617 -2.13694,0.75127 -2.2784,0.87801c-0.39565,0.35448 0.36023,3.23553 1.413,5.38553c3.30055,6.74062 10.64281,9.96341 15.04657,6.6045zM227.62548,156.4226c-1.11586,-1.11586 -1.17128,-2.69894 -0.14037,-4.00953c1.59428,-2.02681 4.7507,-0.6728 4.7507,2.03789c0,1.34359 -1.46751,2.87366 -2.75617,2.87366c-0.52369,0 -1.35805,-0.40592 -1.85416,-0.90202zM259.43008,159.55339c-3.03377,-0.92617 -6.5269,-3.92643 -8.79887,-7.55738c-2.56219,-4.09478 -3.32828,-9.5979 -1.76647,-12.68944c1.2395,-2.45359 2.87337,-3.39344 5.60422,-3.22377c2.72138,0.16909 5.01975,1.24278 7.26449,3.39359c3.56819,3.41894 5.71115,7.74872 6.05129,12.22644c0.17903,2.35684 0.0932,2.86723 -0.78379,4.6597c-0.78043,1.59512 -1.31103,2.17084 -2.55643,2.77373c-1.60011,0.77461 -3.36313,0.92127 -5.01443,0.41714zM264.13695,158.05063c0.70191,-0.42795 1.51389,-1.39806 1.92125,-2.29544c2.95822,-6.51665 -4.62707,-18.59833 -11.69935,-18.63445c-2.22132,-0.01111 -3.67487,0.85368 -4.50431,2.6806c-2.49571,5.49697 2.03506,15.04752 8.58532,18.09726c2.32972,1.08471 4.09027,1.13169 5.69709,0.15203zM259.08927,152.31394c-1.53058,-1.94582 -0.4952,-4.54407 1.81077,-4.54407c1.54932,0 2.57243,1.14662 2.57243,2.88297c0,2.59345 -2.81167,3.65899 -4.3832,1.6611z" fill="#464444"/></g><path d="M231.17518,193.71975c-3.03476,-0.35533 -8.31577,-1.71355 -11.62238,-2.98915c-2.42923,-0.93713 -3.06251,-1.31667 -4.53346,-2.71701c-2.80681,-2.6721 -4.24072,-5.38339 -4.84691,-9.16476c-0.16101,-1.00438 -0.349,-2.097 -0.41775,-2.42806c-0.11709,-0.56386 -0.03583,-0.60194 1.28456,-0.60215c3.69994,-0.00074 12.4612,-1.2755 13.247,-1.92767c0.30636,-0.25426 0.48461,-1.28234 0.22234,-1.28234c-0.06181,0 -1.4763,0.29375 -3.14335,0.65277c-1.66705,0.35903 -4.35521,0.7808 -5.9737,0.93728c-1.6185,0.15648 -3.57985,0.34592 -4.35857,0.42098c-1.31824,0.12709 -1.39744,0.10209 -1.14881,-0.3625c0.14687,-0.27444 0.45215,-1.3868 0.6784,-2.47191c0.48156,-2.30958 1.39487,-4.24708 2.68735,-5.70097l0.92472,-1.04021l2.07981,0.72652c1.1439,0.39959 3.25634,1.27074 4.69434,1.93589c2.54065,1.1752 3.40467,1.30875 3.40467,0.52628c0,-0.48917 -3.74602,-2.43761 -6.74536,-3.50851l-2.33238,-0.83277l2.52251,-0.85805c1.38739,-0.47194 2.7416,-0.85806 3.00938,-0.85806c0.26777,0 1.32562,0.4464 2.35075,0.99199c1.67613,0.89206 2.11014,1.00293 4.30857,1.10068c2.65231,0.11792 3.9192,-0.15311 5.44712,-1.16535l0.93633,-0.6203l3.74527,0.43175c2.05989,0.23747 3.78929,0.5412 3.84309,0.67497c0.34125,0.84852 1.97397,2.19931 3.67375,3.03938c1.29395,0.6395 1.9801,1.1352 1.9801,1.43046c0,0.78029 -0.76134,3.02126 -1.09687,3.22863c-0.37239,0.23016 -2.57079,-0.37575 -4.11975,-1.13545c-0.58855,-0.28866 -1.45673,-0.96759 -1.92931,-1.50873c-0.81139,-0.92912 -0.88478,-0.95838 -1.31816,-0.52562c-0.37251,0.37198 -0.40307,0.58089 -0.16227,1.10939c0.72069,1.58175 3.81476,3.00615 8.18565,3.76837c1.29634,0.22605 2.44623,0.46619 2.55533,0.53361c0.30216,0.18676 3.63514,-0.33515 4.41786,-0.69179c0.45593,-0.20774 0.69054,-0.52725 0.69054,-0.94049c0,-0.7352 -0.15119,-0.75894 -1.43011,-0.22458c-0.97376,0.40686 -3.53976,0.53169 -4.67584,0.22747c-0.47906,-0.12828 -0.58506,-0.29632 -0.46182,-0.73203c0.08792,-0.31104 0.31936,-1.16132 0.51417,-1.88954c0.323,-1.20728 0.45179,-1.35654 1.46062,-1.69282c1.35102,-0.45034 3.07929,-2.31078 3.94681,-4.24864c0.64235,-1.43486 1.5704,-2.29613 3.54083,-3.28604c1.04419,-0.52457 1.29724,-0.55129 2.6204,-0.2766c2.47281,0.51335 4.94927,-0.2162 6.3386,-1.86732c0.63537,-0.75509 0.81285,-0.81429 2.44134,-0.81429c1.33901,0 1.75615,0.09026 1.75615,0.38002c0,0.20902 0.34816,0.45649 0.77369,0.54996c1.49616,0.32862 5.64676,3.46809 5.64676,4.27117c0,0.17471 -0.43056,0.52299 -0.9568,0.77393c-1.2267,0.58497 -1.05355,1.11419 0.36456,1.11419c0.60255,0 1.21333,0.12037 1.35729,0.26752c0.38306,0.39149 0.84007,3.18476 0.84007,5.13434v1.69208l-1.47134,-0.17293c-1.25907,-0.14798 -1.47136,-0.10922 -1.47136,0.26866c0,0.25982 0.50676,0.68779 1.23113,1.03972c1.22754,0.59639 1.23074,0.60154 1.09903,1.77004c-0.17512,1.55368 -2.24316,5.65551 -3.8557,7.64753c-4.52816,5.59381 -13.22788,9.8169 -23.75505,11.53136c-3.16663,0.51573 -15.64337,0.752 -18.99387,0.35969z" fill="#ffffff" stroke-width="0.81242"/><path d="M235.32173,223.52838c0,-1.53253 0.7574,-4.05706 2.02133,-6.7373c0.64832,-1.37482 1.17178,-2.75922 1.16326,-3.07647c-0.00834,-0.31725 0.11848,-1.05835 0.28221,-1.64689c0.16373,-0.58854 0.36614,-3.35737 0.44979,-6.15294c0.14413,-4.81634 0.18673,-5.13671 0.81245,-6.10979c1.01769,-1.58264 3.00152,-2.38099 5.93339,-2.38775c4.95111,-0.01111 6.61073,1.79597 6.57452,7.15995c-0.02084,3.09 -0.51981,5.27885 -1.84107,8.07669c-1.68651,3.57123 -4.89405,7.71592 -5.75889,7.44142c-0.28454,-0.09028 -1.03398,0.23629 -1.90933,0.83206c-1.57027,1.06873 -4.11649,2.30329 -6.32318,3.06586l-1.40447,0.48534z" fill="#ffffff" stroke-width="0.81242"/><path d="M226.93513,162.95426c-1.96692,-0.31403 -4.05995,-1.47075 -6.02548,-3.33001c-2.02603,-1.91649 -3.26317,-3.82059 -4.19144,-6.45114c-1.03025,-2.91951 -0.97735,-3.09559 1.14789,-3.82144c3.13314,-1.0701 6.15518,-2.6546 8.55451,-4.4853l2.32107,-1.77098l1.89533,2.00916c1.2196,1.29285 2.27134,2.74998 2.95002,4.08707c0.99341,1.95718 1.06078,2.24205 1.15925,4.90251c0.13792,3.72743 -0.22438,5.2912 -1.58404,6.83585c-1.51851,1.72512 -3.68651,2.42989 -6.22711,2.02427zM231.10289,156.83405c2.01741,-1.58689 1.31772,-4.95527 -1.14153,-5.49541c-3.00905,-0.6609 -4.53461,4.14707 -1.79808,5.66685c0.8976,0.49851 2.18323,0.42352 2.93961,-0.17144z" fill="#ffffff" stroke-width="0.81242"/><path d="M259.79625,158.21641c-2.20012,-0.76078 -3.69929,-1.79433 -5.68163,-3.91701c-5.34036,-5.71841 -6.44662,-14.30523 -2.12691,-16.50899c1.58254,-0.80735 3.85126,-0.58693 6.05647,0.58842c4.74058,2.5267 9.08722,10.27712 8.45394,15.07409c-0.31611,2.39459 -1.82687,4.46237 -3.64027,4.98245c-1.20889,0.3467 -1.4823,0.32716 -3.0616,-0.21895zM262.35649,153.07152c0.28334,-0.15164 0.75829,-0.77893 1.05546,-1.39398l0.54029,-1.11827l-0.53392,-1.13586c-0.63021,-1.34075 -1.18867,-1.69409 -2.67742,-1.69409c-1.46693,0 -2.41249,0.96419 -2.41249,2.46002c0,1.17537 0.56912,2.4603 1.27071,2.86894c0.6107,0.3557 2.10409,0.36287 2.75738,0.0132z" fill="#ffffff" stroke-width="0.81242"/><path d="M213.32303,240.06541c0.78239,-1.26594 0.74168,-3.19107 -0.10278,-4.85906c-0.36279,-0.71662 -0.60413,-1.35844 -0.53631,-1.42626c0.21998,-0.21997 4.76677,-0.82752 6.23752,-0.83346c4.04329,-0.01639 5.16587,4.51883 1.69715,6.85641c-1.14757,0.77333 -3.05981,1.16339 -5.70363,1.16339h-2.14881z" fill="#ffffff" stroke-width="0.81242"/></g></g></svg>