<?xml version="1.0" encoding="UTF-8"?><svg xmlns="http://www.w3.org/2000/svg" xmlns:xlink="http://www.w3.org/1999/xlink" width="43.80000305175781" height="31.249998092651367" viewBox="-0.3999999985098839 0.40000003576278687 43.80000305175781 31.249998092651367" version="1.1">
    <!-- Generator: Sketch 52.4 (67378) - http://www.bohemiancoding.com/sketch -->
    <title>Slice 1</title>
    <desc>Created with Sketch.</desc>
    <g id="Page-1" fill-rule="evenodd">
        <g id="Watermelon-c">
            <g id="Page-1">
                <g id="Watermelon-c">
                    <path d="M0.1,22.3 C11.9,34.1 31.1,34.1 42.9,22.3 L38,17.4 C28.9,26.5 14.2,26.5 5.1,17.4 L0.1,22.3 Z" id="path3015-6" fill="#DAEAD4" stroke-width="1" stroke="none"/>
                    <path d="M4.5,17.9 C13.9,27.3 29.1,27.3 38.4,17.9 L21.4,0.9 L4.5,17.9 Z" id="path3015" fill="#EE1717" stroke-width="1" stroke="none"/>
                    <path d="M18.8,19.2 C19.7,19.6 20.2,20.3 20,20.9 C19.8,21.5 18.9,21.6 18,21.3 C17.1,20.9 16.6,20.2 16.8,19.6 C17,19 17.9,18.9 18.8,19.2 Z" id="path7002-5-0" fill="#231F20" stroke-width="1" stroke="none"/>
                    <g id="use4049">
                        <path d="M 14.8885 12.3298 C 15.6401 11.9235 16.4963 12.0062 16.601 12.4951 C 16.8467 12.9743 16.3967 13.6433 15.6451 14.0496 C 14.8935 14.4558 14.0372 14.3732 13.9326 13.8843 C 13.6869 13.4051 14.1368 12.7361 14.8885 12.3298 Z " id="path7002-5-0_1_" stroke-width="1" fill="#231F20" stroke="none"/>
                    </g>
                    <g id="use4051">
                        <path d="M 11.2248 17.4096 C 12.0543 17.2048 12.8625 17.4995 12.9802 18.025 C 12.9589 18.5246 12.412 19.1418 11.5825 19.3466 C 10.7531 19.5514 9.9449 19.2567 9.8272 18.7312 C 9.7095 18.2057 10.3954 17.6144 11.2248 17.4096 Z " id="path7002-5-0_2_" stroke-width="1" fill="#231F20" stroke="none"/>
                    </g>
                    <g id="use4053">
                        <path d="M 31.7015 15.6661 C 32.5559 15.6699 33.1392 16.0939 33.1251 16.6323 C 33.111 17.1706 32.3953 17.5419 31.5409 17.538 C 30.6866 17.5342 30.1033 17.1102 30.1174 16.5719 C 30.26 16.0926 30.9409 15.6275 31.7015 15.6661 Z " id="path7002-5-0_3_" stroke-width="0.9999999999999999" fill="#231F20" stroke="none"/>
                    </g>
                    <g id="use4055">
                        <path d="M 20.6085 6.8782 C 21.4629 6.8696 22.0523 7.2851 22.046 7.8236 C 22.0397 8.362 21.4228 8.7077 20.5685 8.7162 C 19.7141 8.7248 19.1247 8.3094 19.131 7.7709 C 19.1733 7.3257 19.8474 6.8507 20.6085 6.8782 Z " id="path7002-5-0_4_" stroke-width="1" fill="#231F20" stroke="none"/>
                    </g>
                    <g id="use4059">
                        <path d="M 28.2309 10.9538 C 28.6299 11.7543 28.5289 12.5541 28.0686 12.8336 C 27.6082 13.113 26.8486 12.792 26.3895 12.0715 C 25.9905 11.271 26.0915 10.4711 26.5519 10.1917 C 27.1522 9.8924 27.8517 10.2933 28.2309 10.9538 Z " id="path7002-5-0_5_" stroke-width="1" fill="#231F20" stroke="none"/>
                    </g>
                    <path d="M22.4,13.6 C23,14.1 23.3,14.8 23,15.3 C22.7,15.7 21.9,15.6 21.2,15.2 C20.6,14.7 20.3,14 20.6,13.5 C21,13.1 21.7,13.1 22.4,13.6 Z" id="path7002-5-0-1" fill="#231F20" stroke-width="1" stroke="none"/>
                    <path d="M26.9,20.1 C26.8,21 26.2,21.7 25.6,21.7 C25,21.6 24.6,20.8 24.7,19.8 C24.8,18.9 25.4,18.2 26,18.2 C26.7,18.3 27.1,19.1 26.9,20.1 Z" id="path7002-5-0-14" fill="#231F20" stroke-width="1" stroke="none"/>
                </g>
            </g>
            <path d="M2.2,20.2 L0.1,22.3 C11.9,34.1 31.1,34.1 42.9,22.3 L41.1,20.5 C30.2,31.2 12.9,31.2 2.2,20.2 Z" id="Path" fill="#99C566" stroke-width="1" stroke="none"/>
        </g>
    </g>
</svg>