<svg version="1.1" xmlns="http://www.w3.org/2000/svg" xmlns:xlink="http://www.w3.org/1999/xlink" width="86.73286" height="106.20569" viewBox="0,0,86.73286,106.20569"><g transform="translate(-196.63357,-126.89716)"><g data-paper-data="{&quot;isPaintingLayer&quot;:true}" fill-rule="nonzero" stroke="none" stroke-linecap="butt" stroke-linejoin="miter" stroke-miterlimit="10" stroke-dasharray="" stroke-dashoffset="0" style="mix-blend-mode: normal"><path d="" fill="#ffffff" stroke-width="0.81242"/><g stroke-width="0.26459"><path d="M212.58158,232.01868c-6.79751,-0.39074 -11.48887,-1.83989 -13.54779,-4.18488c-2.11439,-2.40815 -1.9625,-5.29952 0.3976,-7.56921c1.52011,-1.46188 4.18479,-2.57488 4.59979,-1.92126c0.43332,0.68249 0.27973,0.99936 -0.83411,1.72083c-1.90736,1.23546 -1.87628,3.29057 0.06587,4.35847c2.00596,1.10294 4.35348,1.4944 8.9043,1.48478l4.27917,-0.00946l0.64896,1.15467c0.82345,1.46513 0.83192,3.09919 0.02141,4.12957c-0.45911,0.58366 -0.5221,0.84031 -0.23468,0.95619c0.21607,0.08716 0.25206,0.14835 0.07994,0.13605c-0.17209,-0.0123 -2.14334,-0.12758 -4.38055,-0.25618zM225.56681,225.5267c0,-0.60408 -2.08987,-1.62832 -3.32236,-1.62825c-0.66806,0.00002 -2.31827,0.21124 -3.66713,0.46934c-1.34885,0.25811 -4.06303,0.46929 -6.0315,0.46929h-3.57903l-1.35805,-1.35805c-1.93027,-1.93027 -2.54157,-3.87936 -2.51812,-8.02886c0.02117,-3.73721 0.52103,-5.79394 2.239,-9.21178c1.45183,-2.88838 2.27627,-4.0644 6.82345,-9.73339c2.09214,-2.60828 4.06615,-5.37645 4.38671,-6.15147l0.58283,-1.40915l1.61307,0.71338c2.38058,1.0528 6.46599,2.23423 9.83747,2.84483c4.21618,0.76357 13.95838,0.76153 18.56754,-0.00355c1.86563,-0.30981 3.47865,-0.47668 3.58452,-0.37083c0.10584,0.10584 0.25029,1.929 0.32095,4.05143c0.14509,4.3583 -0.39494,7.82363 -1.71096,10.97911c-2.24442,5.38158 -2.685,6.87237 -2.72783,9.23046l-0.04269,2.34673l1.52989,0.17567c2.01573,0.23146 3.00712,1.30653 3.00712,3.26092c0,1.90583 -0.85448,2.52878 -3.82784,2.79064c-5.78265,0.50926 -7.29703,-0.65447 -7.93209,-6.09551l-0.20375,-1.74566l1.26866,-0.75752c1.97323,-1.17823 5.25121,-5.11409 6.62456,-7.95415c1.44315,-2.9844 1.9977,-5.58411 1.8288,-8.57334c-0.20623,-3.64985 -1.92013,-5.1994 -5.73722,-5.18704c-2.56918,0.00828 -4.19905,0.67413 -5.24719,2.14354c-0.64072,0.89825 -0.69018,1.27289 -0.60407,4.57665c0.09958,3.82124 -0.38722,7.19663 -1.03794,7.19663c-0.44661,0 -2.44001,3.92416 -2.94048,5.78859c-0.42744,1.59233 -0.4354,4.08599 -0.01549,4.87048c0.23486,0.43884 0.65791,0.60522 1.5389,0.60522c1.6511,0 2.14914,0.23624 2.68577,1.27397c0.6481,1.25327 0.58171,2.98264 -0.14229,3.70666c-0.98305,0.98305 -6.77448,1.29558 -8.87839,0.47911c-1.24505,-0.48317 -2.09211,-3.12137 -2.38267,-7.42102c-0.10194,-1.50894 -0.32621,-2.74273 -0.4983,-2.74175c-0.17209,0.00093 -0.3833,1.09476 -0.46934,2.43063c-0.15184,2.35723 -0.17952,2.4274 -0.93869,2.37945c-1.6119,-0.10182 -4.38056,-0.51268 -4.38056,-0.65008c0,-0.07841 0.25703,-0.51635 0.57116,-0.97314c1.7227,-2.50502 1.955,-5.93695 0.60159,-8.88765c-0.48866,-1.06537 -1.02372,-1.79915 -1.3119,-1.79915c-0.61815,0 -0.63024,-0.0764 0.31515,1.98863c1.5036,3.28429 0.85142,7.32211 -1.54342,9.55582c-0.44196,0.41222 -0.7292,0.86984 -0.6383,1.01691c0.09094,0.14708 1.0063,0.26742 2.03423,0.26742c2.1334,0 3.83393,0.59636 4.32686,1.51742c0.49703,0.9287 0.41785,3.0332 -0.13127,3.48893c-0.2843,0.23595 -0.46934,0.26112 -0.46934,0.06386zM254.06514,197.11962c0.01502,-0.36452 0.08917,-0.43865 0.18904,-0.18904c0.09035,0.22587 0.07923,0.49575 -0.02472,0.59971c-0.10395,0.10395 -0.17792,-0.08089 -0.16433,-0.41067zM216.94111,186.58542c-3.95041,-2.32175 -8.30737,-6.6943 -10.05495,-10.09093c-1.9354,-3.76168 -2.41436,-5.68662 -2.41346,-9.69982c0.00118,-6.01201 1.59656,-11.45345 4.46656,-15.23596c0.79862,-1.05253 1.58673,-2.09458 1.75137,-2.31567c0.19443,-0.26112 -0.01348,-3.755 -0.5932,-9.97086c-0.49087,-5.26288 -0.82231,-9.63906 -0.73654,-9.72484c0.15363,-0.15363 10.88653,7.17455 14.42099,9.84633c1.35538,1.02456 1.90332,1.28087 2.16942,1.01476c0.19581,-0.19582 0.29501,-0.40257 0.22044,-0.45947c-0.0745,-0.05689 -0.53362,-0.40484 -1.02013,-0.7732l-0.88454,-0.66975l1.16584,-0.48712c3.48171,-1.45475 8.81517,-2.0192 13.90135,-1.47122l2.97253,0.32026l4.42408,-4.39756l4.4241,-4.39757l0.69301,3.09029c0.38117,1.69966 0.99754,4.42213 1.36972,6.04994l0.67669,2.95966l1.8191,1.24625c5.47405,3.75025 9.26176,10.15779 10.05262,17.00574l0.22584,1.95561h-1.57924h-1.57925l0.49154,-1.17337c1.03983,-2.48221 0.04683,-7.17135 -2.25178,-10.63331c-2.47319,-3.72489 -5.46202,-5.76211 -8.75373,-5.96664c-2.32517,-0.14447 -3.71631,0.65576 -4.77167,2.74486c-1.32979,2.63227 -0.67751,7.31786 1.50405,10.80434c1.31191,2.09664 3.9222,4.75262 5.44478,5.5401l1.23845,0.64053l-1.55135,0.77273c-0.85326,0.425 -1.72737,0.99732 -1.94248,1.27182c-0.33915,0.43277 -0.39112,0.38508 -0.39112,-0.35892c0,-1.38736 -1.36244,-1.76807 -5.00636,-1.39894c-4.0701,0.4123 -5.22997,0.74791 -5.51814,1.59668c-0.13018,0.38341 -0.19817,0.89375 -0.1511,1.13409c0.06824,0.34825 -0.22109,0.39409 -1.42491,0.22579c-0.83079,-0.11613 -2.3126,-0.29685 -3.29294,-0.40156l-1.78242,-0.19041l0.7223,-0.97408c1.58358,-2.13565 1.88706,-5.54449 0.80536,-9.04658c-0.67924,-2.19912 -2.70991,-5.23586 -4.37003,-6.5351l-1.01336,-0.79306l0.97244,-1.34241c0.53484,-0.73832 0.97243,-1.53249 0.97243,-1.76481c0,-0.82754 -0.79452,-0.38553 -1.56447,0.87036c-2.26184,3.68928 -7.61633,7.11233 -12.28122,7.85116c-1.55539,0.24635 -2.42495,0.52707 -2.42495,0.78287c0,0.23395 0.38556,0.39881 0.93273,0.39881c0.76274,0 0.96745,0.15682 1.12323,0.86047c0.7245,3.27225 1.93174,5.64533 3.96626,7.79656c1.38116,1.46037 1.49122,1.66857 0.88203,1.66857c-0.38282,0 -1.56663,0.3483 -2.63069,0.77399c-1.86054,0.74433 -1.99446,0.75574 -3.49524,0.29786c-2.64974,-0.80842 -5.47175,-1.32505 -5.65126,-1.0346c-0.31029,0.50207 0.14962,0.81675 1.50236,1.0279c0.73521,0.11471 2.15393,0.43554 3.15274,0.71285l1.81599,0.50419l-0.91798,0.97095c-0.50489,0.53403 -1.08471,1.29538 -1.28847,1.69188c-0.5373,1.04547 -1.26177,3.54492 -1.2657,4.36672c-0.00236,0.38889 -0.28498,0.9482 -0.62918,1.24289c-0.7264,0.62198 -0.80547,1.02255 -0.20182,1.02255c0.3001,0 0.47936,0.66081 0.61358,2.26186c0.2552,3.04406 1.80666,6.21681 4.00762,8.19566c0.87635,0.78791 1.53346,1.43256 1.46026,1.43256c-0.0732,0 -1.39087,-0.73922 -2.92814,-1.64271zM248.03673,174.24692c0.22587,-0.09035 0.49575,-0.07923 0.59972,0.02472c0.10395,0.10395 -0.08089,0.17792 -0.41068,0.16435c-0.36452,-0.01502 -0.43865,-0.08917 -0.18904,-0.18904zM248.03673,173.30823c0.22587,-0.09035 0.49575,-0.07923 0.59972,0.02472c0.10395,0.10395 -0.08089,0.17792 -0.41068,0.16435c-0.36452,-0.01502 -0.43865,-0.08917 -0.18904,-0.18904zM260.01018,154.87853c0.01502,-0.36452 0.08917,-0.43865 0.18904,-0.18904c0.09035,0.22587 0.07923,0.49574 -0.02472,0.59971c-0.10395,0.10395 -0.17794,-0.08089 -0.16435,-0.41067zM238.33691,135.44769c0.22588,-0.09039 0.49575,-0.07927 0.59972,0.02471c0.10395,0.10397 -0.08089,0.17793 -0.41067,0.16434c-0.36452,-0.01502 -0.43865,-0.08915 -0.18905,-0.18904z" fill="#f4a01d"/><path d="M211.43421,232.97464c-9.68465,-0.77082 -14.77227,-3.77897 -14.80052,-8.75107c-0.01786,-3.14678 1.93454,-5.43481 5.81312,-6.81235l1.53011,-0.54345v-1.46352c0,-3.7794 1.57825,-8.56429 4.16471,-12.6264c0.54789,-0.86048 2.72378,-3.72196 4.83533,-6.35888c3.63401,-4.53817 5.0837,-6.7168 5.07763,-7.6308c-0.00118,-0.22196 -0.96538,-0.99743 -2.14201,-1.72325c-5.87251,-3.62251 -10.08552,-8.80509 -11.74512,-14.44809c-1.06491,-3.62091 -0.94401,-8.95409 0.31639,-13.95745c0.67679,-2.68665 2.65951,-6.63919 4.21931,-8.41123l1.33939,-1.52164l-0.98568,-10.3632c-0.54213,-5.69976 -0.87726,-10.47161 -0.74473,-10.60413c0.13251,-0.13252 3.57284,2.07549 7.64515,4.90669l7.40421,5.14763l2.52767,-0.92249c3.54071,-1.2922 7.35143,-1.71357 12.1935,-1.34829l3.91121,0.29505l4.75298,-4.68093c4.6043,-4.5345 4.76328,-4.65717 5.08185,-3.92115c0.25891,0.59816 2.83751,11.78084 2.83751,12.30548c0,0.07066 0.6252,0.49487 1.38932,0.94268c1.71331,1.00406 5.00888,4.21542 6.39812,6.2346c2.22562,3.23482 3.81447,7.58339 4.25743,11.65223c0.19468,1.7883 0.26745,1.92344 1.22115,2.26831c1.3238,0.4787 3.517,2.36915 4.13499,3.56421c0.47193,0.91259 0.5408,0.93702 2.06969,0.73421c2.32594,-0.30854 5.36251,-1.38311 7.21648,-2.55374c1.09504,-0.69143 1.73268,-0.92542 1.94289,-0.71298c0.70247,0.70993 -4.01821,3.12657 -7.61895,3.90032c-2.53622,0.545 -2.58476,0.57282 -2.37192,1.35938c0.1195,0.44164 0.30427,2.06058 0.41061,3.59763c0.19208,2.77629 0.19951,2.79637 1.13203,3.05912c0.51628,0.14546 2.38192,0.35233 4.14588,0.4597c2.38662,0.14527 3.2072,0.30323 3.2072,0.61741c0,0.30195 -0.46787,0.41946 -1.64271,0.41254c-1.83807,-0.01064 -5.765,-0.47662 -6.54665,-0.77658c-0.40273,-0.15454 -0.55523,0.07533 -0.72787,1.09715c-0.57239,3.38796 -3.92731,8.02886 -7.80375,10.79504c-2.40115,1.71341 -6.95069,3.93812 -9.61239,4.70039l-2.04501,0.58567l0.14045,4.39811c0.16776,5.2531 -0.46179,8.93394 -2.20685,12.90293c-1.4616,3.32427 -2.4094,6.45365 -2.4094,7.95523c0,1.09539 0.08018,1.21863 0.7923,1.21863c2.40075,0 3.90116,1.68884 3.90116,4.39107c0,2.85004 -1.25643,3.56849 -6.25795,3.57843c-4.10741,0.00828 -5.08404,-0.35415 -6.2161,-2.30614l-0.65325,-1.12636l-0.00709,0.97471c-0.00946,1.30866 -1.0326,2.53133 -2.44637,2.92397c-1.5593,0.43307 -6.52891,0.38047 -7.87559,-0.08337c-1.26752,-0.43657 -2.39001,-1.95061 -2.87547,-3.87854c-0.18624,-0.73966 -0.44623,-1.34483 -0.57777,-1.34483c-0.13153,0 -0.03288,0.59842 0.21935,1.32981c0.50498,1.46463 0.19676,3.25503 -0.68656,3.98813c-0.2893,0.24009 -0.3957,0.66145 -0.28171,1.11563c0.46857,1.86696 -1.53389,4.51296 -3.86166,5.1027c-1.74353,0.4417 -7.63316,0.63087 -11.08596,0.35606zM221.35289,231.8573c3.76938,-0.46135 5.4489,-4.09765 2.88792,-6.25258c-1.11735,-0.94019 -1.16231,-0.94013 -7.74801,0.01064c-5.39691,0.77896 -10.81815,0.26021 -13.43494,-1.28557c-1.74268,-1.02943 -1.67543,-3.09 0.13922,-4.26539c1.11385,-0.72148 1.26743,-1.03834 0.83411,-1.72084c-0.415,-0.65363 -3.07969,0.45937 -4.59979,1.92125c-3.14963,3.02899 -2.21003,7.26756 2.09462,9.44889c3.83248,1.94206 13.19989,2.95493 19.82688,2.14383zM226.5055,223.8395c0,-0.67861 -0.15214,-1.51812 -0.33808,-1.86555c-0.49293,-0.92106 -2.19345,-1.51742 -4.32686,-1.51742c-1.02793,0 -1.94333,-0.12034 -2.03423,-0.26742c-0.09094,-0.14708 0.19632,-0.60469 0.6383,-1.01691c2.39484,-2.23371 3.04701,-6.27153 1.54342,-9.55582c-0.94541,-2.06503 -0.9333,-1.98863 -0.31515,-1.98863c0.28817,0 0.82323,0.73378 1.3119,1.79915c1.35341,2.95069 1.12111,6.38263 -0.60159,8.88765c-0.31415,0.45679 -0.57116,0.89471 -0.57116,0.97314c0,0.13738 2.76866,0.54826 4.38055,0.65008c0.75917,0.0479 0.78686,-0.02223 0.93869,-2.37945c0.08609,-1.33587 0.29726,-2.42966 0.46935,-2.43064c0.17209,-0.00093 0.39632,1.23282 0.4983,2.74176c0.29057,4.29965 1.1376,6.93784 2.38266,7.42102c2.10391,0.81647 7.89535,0.50394 8.8784,-0.47911c0.724,-0.72401 0.79039,-2.45338 0.14229,-3.70667c-0.53663,-1.03772 -1.03467,-1.27396 -2.68577,-1.27396c-0.88099,0 -1.30403,-0.16638 -1.5389,-0.60522c-0.41985,-0.78449 -0.41189,-3.27815 0.01549,-4.87048c0.52253,-1.94661 2.50255,-5.78859 2.98323,-5.78859c0.5992,0 0.54013,0.53352 -0.18983,1.71464c-1.01744,1.64624 -2.19417,5.09348 -2.19417,6.42783c0,0.68444 0.04837,1.24444 0.1075,1.24444c1.02796,0 6.43118,-2.49261 7.0689,-3.26102c0.52394,-0.63131 1.27185,-0.63806 1.27185,-0.01183c0,0.26526 -0.71978,0.92971 -1.59952,1.47658l-1.59951,0.99431l0.20198,1.73062c0.63307,5.4243 2.15249,6.5893 7.93032,6.08046c2.97336,-0.26185 3.82784,-0.8848 3.82784,-2.79064c0,-1.95439 -0.9914,-3.02947 -3.00712,-3.26093l-1.52989,-0.17566l0.04269,-2.34673c0.04281,-2.3581 0.4834,-3.84889 2.72783,-9.23046c1.31602,-3.15548 1.85606,-6.62081 1.71097,-10.97911c-0.07072,-2.12243 -0.21509,-3.94556 -0.32095,-4.05143c-0.10584,-0.10584 -1.71889,0.06102 -3.58452,0.37083c-4.60916,0.76543 -14.35136,0.76747 -18.56754,0.00355c-3.37148,-0.6106 -7.45689,-1.79203 -9.83747,-2.84484l-1.61307,-0.71337l-0.58283,1.40915c-0.32056,0.77503 -2.29457,3.5432 -4.38671,6.15147c-4.54718,5.66898 -5.37162,6.84501 -6.82345,9.73339c-1.71797,3.41784 -2.21787,5.47456 -2.239,9.21178c-0.02342,4.14949 0.58785,6.09859 2.51812,8.02886l1.35805,1.35805h3.57903c1.96847,0 4.68265,-0.21118 6.0315,-0.46929c1.34886,-0.2581 2.99907,-0.46931 3.66713,-0.46934c1.23249,-0.00005 3.32236,1.02418 3.32236,1.62827c0,0.19729 0.18504,0.17212 0.46934,-0.06386c0.272,-0.22573 0.46935,-0.90833 0.46935,-1.62337zM206.00868,223.09218c-0.60119,-0.7876 -1.09307,-1.62412 -1.09307,-1.85892c0,-0.78819 -0.66576,-0.84828 -1.4312,-0.12918c-1.3287,1.24825 -0.91208,2.16569 1.35,2.97289c2.17692,0.7768 2.38544,0.60194 1.17426,-0.98478zM240.38957,219.12671c-0.11199,-0.73141 -0.24395,-1.37795 -0.29317,-1.43677c-0.04919,-0.05878 -0.59284,0.07509 -1.20804,0.29753c-1.13148,0.40914 -1.49659,0.90456 -0.66667,0.90456c0.24855,0 0.84696,0.34755 1.32981,0.77236c0.48286,0.42479 0.91478,0.7768 0.95984,0.78223c0.04506,0.00591 -0.00946,-0.58852 -0.12177,-1.31991zM249.50978,191.35475c8.22893,-1.40379 15.18827,-4.74194 19.0672,-9.14588c1.62069,-1.84006 3.53099,-5.43155 3.81092,-7.16477c0.17541,-1.08616 0.13269,-1.15435 -0.94655,-1.51053c-1.29723,-0.42813 -1.6374,-1.4583 -0.37709,-1.14199c0.41424,0.10395 0.97746,0.2751 1.2516,0.3803c0.42273,0.16222 0.49841,-0.10159 0.49841,-1.73749c0,-1.06082 -0.16132,-2.56942 -0.35849,-3.35244c-0.34954,-1.38819 -0.38451,-1.41947 -1.40229,-1.25429c-1.36271,0.22113 -1.69129,-0.33513 -0.45296,-0.76681c0.52919,-0.18447 0.96217,-0.46615 0.96217,-0.62593c0,-0.63695 -2.79068,-3.02867 -4.13127,-3.54064l-1.42557,-0.54443l-0.21416,-2.17341c-0.31917,-3.23908 -0.96061,-5.43151 -2.5181,-8.60696c-1.60023,-3.26257 -4.57432,-6.70498 -7.56007,-8.7505l-1.8191,-1.24625l-0.67669,-2.95966c-0.37218,-1.62781 -0.98855,-4.35028 -1.36972,-6.04994l-0.69301,-3.09029l-4.4241,4.39757l-4.42408,4.39756l-2.97253,-0.32026c-5.08619,-0.54799 -10.41964,0.01646 -13.90135,1.47122l-1.16584,0.48712l0.88454,0.66975c0.4865,0.36837 0.94556,0.71631 1.02013,0.7732c0.07462,0.05689 -0.0246,0.26365 -0.22044,0.45947c-0.2661,0.2661 -0.81403,0.00981 -2.16942,-1.01476c-3.53446,-2.67178 -14.26736,-9.99996 -14.42099,-9.84632c-0.08574,0.08578 0.24566,4.46196 0.73654,9.72485c0.57977,6.21586 0.78763,9.70974 0.5932,9.97086c-0.16463,0.22109 -0.95274,1.26314 -1.75137,2.31567c-2.87,3.78251 -4.46521,9.22395 -4.46656,15.23596c-0.00053,2.41222 0.1677,4.0035 0.5624,5.31925c2.83372,9.44655 12.21761,16.77188 24.64145,19.23578c5.21841,1.03492 13.7833,1.03709 19.83323,0.00473zM213.42607,175.99156c0.10691,-0.32306 1.06824,-0.48446 3.71749,-0.62412c1.96535,-0.1036 4.90438,-0.49081 6.53122,-0.86046c1.62683,-0.36966 2.99966,-0.67211 3.05075,-0.67211c0.05109,0 0.09283,0.20852 0.09283,0.46338c0,0.25486 -0.31681,0.5369 -0.70402,0.62674c-3.69466,0.85732 -5.94586,1.18621 -9.11497,1.33168c-3.09085,0.14187 -3.6932,0.09721 -3.57334,-0.26512zM247.00026,174.15008c-4.57511,-0.52426 -8.29177,-2.21834 -8.29177,-3.77943c0,-0.79881 0.82018,-0.7775 1.03051,0.02673c0.17292,0.66125 2.68206,1.95877 4.52184,2.33831c0.91002,0.18774 1.05081,0.11767 1.35727,-0.67551c0.18807,-0.48675 0.41531,-1.32348 0.50497,-1.85943c0.14404,-0.8609 0.06233,-0.99974 -0.70129,-1.19139c-0.47538,-0.11931 -1.48989,-0.64734 -2.25447,-1.17338c-2.51894,-1.73307 -2.72628,-4.02637 -0.41786,-4.62197c0.61701,-0.15919 2.45947,-0.42495 4.09435,-0.59056c3.92765,-0.39787 5.007,-0.02472 5.00501,1.73025c-0.00236,2.0109 -2.50714,5.09232 -4.14454,5.09848c-0.30684,0.00118 -0.55361,0.24279 -0.56131,0.54964c-0.0071,0.30116 -0.21241,1.10539 -0.45524,1.78717c-0.24284,0.68178 -0.40544,1.27569 -0.36136,1.31977c0.04411,0.04411 0.86784,0.17273 1.83057,0.28588c1.31388,0.15442 2.00465,0.07888 2.7699,-0.30285c1.23422,-0.61571 1.23622,-0.61584 1.23622,-0.07758c0,1.04956 -2.02587,1.49523 -5.16279,1.13577zM224.00232,169.45039c-2.04899,-1.08713 -8.61785,-3.29562 -10.72057,-3.6043c-1.48974,-0.2187 -1.98241,-0.52938 -1.66189,-1.04799c0.42419,-0.68635 9.04852,1.87988 12.99236,3.86597c1.22685,0.61782 2.14641,1.25958 2.04349,1.42612c-0.28971,0.46876 -0.79256,0.34752 -2.65339,-0.6398zM227.09446,166.20625c-4.17342,-1.49137 -7.36141,-5.56157 -8.5457,-10.91053c-0.15578,-0.70365 -0.36049,-0.86047 -1.12323,-0.86047c-0.54717,0 -0.93273,-0.16486 -0.93273,-0.39881c0,-0.2558 0.86956,-0.53652 2.42495,-0.78287c4.66488,-0.73883 10.01938,-4.16188 12.28122,-7.85116c0.76996,-1.25589 1.56447,-1.6979 1.56447,-0.87036c0,0.23232 -0.43759,1.02649 -0.97243,1.76481l-0.97244,1.34241l1.01336,0.79306c2.83003,2.21483 4.99918,6.75274 4.99918,10.45836c0,3.4415 -1.27875,5.85858 -3.77257,7.13082c-1.41212,0.72042 -4.22151,0.80744 -5.96407,0.18473zM233.5736,164.60432c1.62801,-1.24174 2.16425,-2.72498 2.14925,-5.94496c-0.01064,-2.35472 -0.14515,-3.09802 -0.81914,-4.53701c-0.88898,-1.89805 -2.45825,-3.97605 -3.77953,-5.00485l-0.85702,-0.66729l-1.78527,1.45426c-1.99493,1.62507 -4.40724,2.9183 -6.98275,3.74345c-0.94651,0.30326 -1.81948,0.63966 -1.93993,0.74757c-0.33688,0.30182 0.30672,2.75487 1.20309,4.58547c2.81023,5.73925 9.06175,8.48328 12.8113,5.62336zM229.4638,159.92518c-0.95009,-0.95009 -0.99728,-2.298 -0.11951,-3.41389c1.35744,-1.72571 4.04495,-0.57285 4.04495,1.73515c0,1.14399 -1.2495,2.44676 -2.34672,2.44676c-0.44589,0 -1.1563,-0.34562 -1.57872,-0.76802zM256.54362,162.59087c-2.58309,-0.78858 -5.55729,-3.34313 -7.49174,-6.43468c-2.18156,-3.48648 -2.83384,-8.17207 -1.50405,-10.80434c1.05537,-2.08909 2.44651,-2.88932 4.77167,-2.74486c2.3171,0.14397 4.27403,1.05816 6.1853,2.88945c3.03812,2.91104 4.86272,6.5976 5.15233,10.41012c0.15244,2.00671 0.07935,2.44128 -0.66735,3.96747c-0.66449,1.35816 -1.11627,1.84835 -2.17665,2.36167c-1.36241,0.65954 -2.86352,0.78441 -4.2695,0.35517zM260.55124,161.31135c0.59764,-0.36437 1.28899,-1.19037 1.63583,-1.95444c2.51875,-5.54856 -3.93969,-15.83543 -9.96133,-15.86618c-1.89133,-0.00946 -3.12895,0.72686 -3.83517,2.28238c-2.12496,4.68036 1.73274,12.81212 7.30992,15.40879c1.98363,0.92357 3.48264,0.96357 4.85075,0.12945zM256.25343,156.42688c-1.3032,-1.65675 -0.42164,-3.86902 1.54177,-3.86902c1.31916,0 2.19027,0.97628 2.19027,2.45468c0,2.20818 -2.39398,3.11543 -3.73204,1.41434z" fill="#464444"/></g><path d="M232.48617,191.68159c-2.58393,-0.30255 -7.08041,-1.45899 -9.8958,-2.54509c-2.06835,-0.79791 -2.60756,-1.12107 -3.85998,-2.31338c-2.38984,-2.27514 -3.61073,-4.58365 -4.12687,-7.80328c-0.13709,-0.85518 -0.29715,-1.78548 -0.35569,-2.06736c-0.09969,-0.48009 -0.03051,-0.51251 1.09373,-0.5127c3.15029,-0.00063 10.61001,-1.08602 11.27907,-1.6413c0.26085,-0.21649 0.41262,-1.09184 0.18931,-1.09184c-0.05263,0 -1.25699,0.25011 -2.67638,0.5558c-1.4194,0.30569 -3.70821,0.66481 -5.08627,0.79804c-1.37806,0.13323 -3.04804,0.29453 -3.71108,0.35844c-1.12241,0.10821 -1.18984,0.08692 -0.97814,-0.30865c0.12505,-0.23367 0.38498,-1.18079 0.57762,-2.10469c0.41002,-1.96648 1.18765,-3.61615 2.28812,-4.85406l0.78734,-0.88568l1.77084,0.61859c0.97397,0.34023 2.77259,1.08196 3.99696,1.6483c2.16322,1.00061 2.89888,1.11433 2.89888,0.4481c0,-0.4165 -3.18953,-2.07549 -5.74329,-2.9873l-1.98589,-0.70905l2.14777,-0.73058c1.18128,-0.40183 2.33432,-0.73059 2.56232,-0.73059c0.22799,0 1.12869,0.38008 2.00153,0.84463c1.42713,0.75954 1.79667,0.85394 3.66851,0.93716c2.25829,0.1004 3.33698,-0.13037 4.63792,-0.99223l0.79723,-0.52815l3.18889,0.36761c1.75388,0.20219 3.22637,0.4608 3.27217,0.5747c0.29055,0.72247 1.68073,1.87259 3.12799,2.58786c1.10172,0.5445 1.68594,0.96656 1.68594,1.21796c0,0.66437 -0.64823,2.57243 -0.93393,2.74899c-0.31707,0.19597 -2.18888,-0.31993 -3.50773,-0.96677c-0.50112,-0.24577 -1.24032,-0.82385 -1.64269,-1.2846c-0.69085,-0.79109 -0.75334,-0.81601 -1.12234,-0.44754c-0.31717,0.31672 -0.34319,0.4946 -0.13816,0.94458c0.61363,1.34677 3.24805,2.55956 6.96962,3.20855c1.10376,0.19247 2.08283,0.39693 2.17572,0.45434c0.25727,0.15901 3.09512,-0.28536 3.76156,-0.58902c0.3882,-0.17688 0.58796,-0.44893 0.58796,-0.80077c0,-0.62598 -0.12873,-0.6462 -1.21766,-0.19121c-0.8291,0.34642 -3.0139,0.45271 -3.98121,0.19367c-0.40789,-0.10923 -0.49815,-0.2523 -0.39322,-0.62328c0.07486,-0.26483 0.27192,-0.9888 0.43779,-1.60884c0.27501,-1.02793 0.38468,-1.15502 1.24364,-1.44134c1.15032,-0.38344 2.62184,-1.9675 3.36049,-3.61747c0.54692,-1.22171 1.33711,-1.95502 3.01482,-2.79787c0.88907,-0.44664 1.10453,-0.46939 2.23112,-0.23551c2.10546,0.43709 4.21403,-0.18408 5.39696,-1.58992c0.54098,-0.64292 0.69209,-0.69332 2.07866,-0.69332c1.14009,0 1.49526,0.07685 1.49526,0.32357c0,0.17796 0.29644,0.38868 0.65876,0.46826c1.2739,0.2798 4.8079,2.95288 4.8079,3.63666c0,0.14876 -0.3666,0.44529 -0.81466,0.65896c-1.04446,0.49807 -0.89704,0.94867 0.3104,0.94867c0.51304,0 1.03309,0.10249 1.15565,0.22777c0.32615,0.33333 0.71527,2.71165 0.71527,4.3716v1.44071l-1.25277,-0.14724c-1.07203,-0.12599 -1.25278,-0.09299 -1.25278,0.22875c0,0.22122 0.43147,0.58562 1.04824,0.88526c1.04518,0.50779 1.0479,0.51218 0.93576,1.50709c-0.1491,1.32287 -1.90993,4.81535 -3.28291,6.51144c-3.85547,4.76281 -11.26279,8.35853 -20.22608,9.8183c-2.69621,0.43911 -13.31945,0.64029 -16.1722,0.30626z" fill="#ffffff" stroke-width="0.81242"/><path d="M236.01672,217.06196c0,-1.30486 0.64489,-3.45436 1.72104,-5.73643c0.55201,-1.17058 0.9977,-2.34932 0.99045,-2.61944c-0.0071,-0.27012 0.10088,-0.90112 0.24028,-1.40223c0.13941,-0.5011 0.31175,-2.85861 0.38297,-5.23888c0.12272,-4.10084 0.15899,-4.37362 0.69175,-5.20214c0.8665,-1.34753 2.55563,-2.02728 5.05195,-2.03303c4.21559,-0.00946 5.62866,1.52916 5.59783,6.09629c-0.01774,2.63096 -0.44259,4.49465 -1.56756,6.87685c-1.43596,3.0407 -4.167,6.56967 -4.90337,6.33595c-0.24227,-0.07687 -0.88038,0.20119 -1.62569,0.70845c-1.33699,0.90996 -3.50496,1.96112 -5.38383,2.61041l-1.19583,0.41324z" fill="#ffffff" stroke-width="0.81242"/><path d="M228.876,165.48652c-1.67472,-0.26738 -3.45682,-1.25226 -5.13036,-2.83532c-1.72505,-1.63178 -2.7784,-3.25301 -3.56878,-5.49278c-0.8772,-2.4858 -0.83216,-2.63572 0.97736,-3.25374c2.66769,-0.91113 5.24078,-2.26025 7.28369,-3.81898l1.97626,-1.50789l1.61377,1.71068c1.03842,1.10079 1.93392,2.34145 2.51178,3.47991c0.84583,1.66642 0.90319,1.90898 0.98704,4.17421c0.11743,3.1737 -0.19105,4.50516 -1.34872,5.82034c-1.29293,1.46885 -3.13885,2.06891 -5.30203,1.72355zM232.42462,160.2755c1.71771,-1.35114 1.12196,-4.21913 -0.97195,-4.67903c-2.56204,-0.56272 -3.86096,3.531 -1.53096,4.825c0.76425,0.42445 1.8589,0.3606 2.50291,-0.14597z" fill="#ffffff" stroke-width="0.81242"/><path d="M256.85539,161.4525c-1.87328,-0.64776 -3.14973,-1.52777 -4.83759,-3.33511c-4.54701,-4.8689 -5.48894,-12.1801 -1.81094,-14.05647c1.34744,-0.68741 3.27913,-0.49974 5.15674,0.50101c4.03633,2.15134 7.73725,8.75039 7.19805,12.83473c-0.26915,2.03886 -1.55547,3.79946 -3.09948,4.24227c-1.0293,0.2952 -1.2621,0.27856 -2.60678,-0.18642zM259.03528,157.07192c0.24125,-0.12911 0.64564,-0.66322 0.89866,-1.18689l0.46002,-0.95214l-0.4546,-0.96712c-0.53659,-1.14157 -1.01208,-1.44243 -2.27967,-1.44243c-1.24901,0 -2.0541,0.82096 -2.0541,2.09457c0,1.00076 0.48457,2.0948 1.08194,2.44274c0.51998,0.30286 1.79151,0.30897 2.34775,0.01124z" fill="#ffffff" stroke-width="0.81242"/><path d="M217.28607,231.1423c0.66616,-1.07787 0.6315,-2.71702 -0.08751,-4.13722c-0.3089,-0.61016 -0.51438,-1.15663 -0.45664,-1.21438c0.1873,-0.18729 4.05863,-0.70458 5.31089,-0.70964c3.44263,-0.01396 4.39845,3.84752 1.44502,5.83785c-0.97709,0.65845 -2.60525,0.99056 -4.85631,0.99056h-1.82959z" fill="#ffffff" stroke-width="0.81242"/></g></g></svg>