<svg version="1.1" xmlns="http://www.w3.org/2000/svg" xmlns:xlink="http://www.w3.org/1999/xlink" width="42.8" height="30.25" viewBox="0,0,42.8,30.25"><g transform="translate(-218.6,-164.9)"><g data-paper-data="{&quot;isPaintingLayer&quot;:true}" fill-rule="evenodd" stroke="none" stroke-linecap="butt" stroke-linejoin="miter" stroke-miterlimit="10" stroke-dasharray="" stroke-dashoffset="0" style="mix-blend-mode: normal"><g data-paper-data="{&quot;index&quot;:null}"><path d="M218.6,173.75c11.8,-11.8 31,-11.8 42.8,0l-4.9,4.9c-9.1,-9.1 -23.8,-9.1 -32.9,0z" fill="#daead4" stroke-width="1"/><path d="M223,178.15c9.4,-9.4 24.6,-9.4 33.9,0l-17,17z" fill="#ee1717" stroke-width="1"/><path d="M235.3,176.45c-0.2,-0.6 0.3,-1.3 1.2,-1.7c0.9,-0.3 1.8,-0.2 2,0.4c0.2,0.6 -0.3,1.3 -1.2,1.7c-0.9,0.3 -1.8,0.2 -2,-0.4z" fill="#231f20" stroke-width="1"/><g fill="#231f20" stroke-width="1"><path d="M232.4326,182.1657c0.1046,-0.4889 0.9609,-0.5715 1.7125,-0.1653c0.7516,0.4063 1.2016,1.0753 0.9559,1.5545c-0.1047,0.4889 -0.9609,0.5716 -1.7125,0.1653c-0.7517,-0.4063 -1.2016,-1.0753 -0.9559,-1.5545z"/></g><g fill="#231f20" stroke-width="1"><path d="M228.3272,177.3188c0.1177,-0.5255 0.9259,-0.8202 1.7553,-0.6154c0.8295,0.2048 1.3764,0.822 1.3977,1.3216c-0.1177,0.5255 -0.9259,0.8202 -1.7554,0.6154c-0.8294,-0.2048 -1.5153,-0.7961 -1.3976,-1.3216z"/></g><g fill="#231f20" stroke-width="1"><path d="M248.6174,179.4781c-0.0141,-0.5383 0.5692,-0.9623 1.4235,-0.9661c0.8544,-0.0039 1.5701,0.3674 1.5842,0.9057c0.0141,0.5384 -0.5692,0.9624 -1.4236,0.9662c-0.7606,0.0386 -1.4415,-0.4265 -1.5841,-0.9058z"/></g><g fill="#231f20" stroke-width="1"><path d="M237.631,188.2791c-0.0063,-0.5385 0.5831,-0.9539 1.4375,-0.9453c0.8543,0.0085 1.4712,0.3542 1.4775,0.8926c0.0063,0.5385 -0.5831,0.954 -1.4375,0.9454c-0.7611,0.0275 -1.4352,-0.4475 -1.4775,-0.8927z"/></g><g fill="#231f20" stroke-width="1"><path d="M245.0519,185.8583c-0.4604,-0.2794 -0.5614,-1.0793 -0.1624,-1.8798c0.4591,-0.7205 1.2187,-1.0415 1.6791,-0.7621c0.4603,0.2795 0.5613,1.0793 0.1623,1.8798c-0.3792,0.6605 -1.0787,1.0614 -1.679,0.7621z"/></g><path d="M239.1,182.55c-0.3,-0.5 0,-1.2 0.6,-1.7c0.7,-0.4 1.5,-0.5 1.8,-0.1c0.3,0.5 0,1.2 -0.6,1.7c-0.7,0.5 -1.4,0.5 -1.8,0.1z" fill="#231f20" stroke-width="1"/><path d="M244.5,177.85c-0.6,0 -1.2,-0.7 -1.3,-1.6c-0.1,-1 0.3,-1.8 0.9,-1.9c0.6,0 1.2,0.7 1.3,1.6c0.2,1 -0.2,1.8 -0.9,1.9z" fill="#231f20" stroke-width="1"/></g><path d="M220.7,175.85l-2.1,-2.1c11.8,-11.8 31,-11.8 42.8,0l-1.8,1.8c-10.9,-10.7 -28.2,-10.7 -38.9,0.3z" data-paper-data="{&quot;index&quot;:null}" fill="#99c566" stroke-width="1"/></g></g></svg>