<svg version="1.1" xmlns="http://www.w3.org/2000/svg" xmlns:xlink="http://www.w3.org/1999/xlink" width="99.4473" height="121.77471" viewBox="0,0,99.4473,121.77471"><g transform="translate(-190.27635,-119.11264)"><g data-paper-data="{&quot;isPaintingLayer&quot;:true}" fill-rule="nonzero" stroke="none" stroke-linecap="butt" stroke-linejoin="miter" stroke-miterlimit="10" stroke-dasharray="" stroke-dashoffset="0" style="mix-blend-mode: normal"><path d="" fill="#ffffff" stroke-width="0.81242"/><g stroke-width="0.26459"><path d="M208.56223,239.64426c-7.79397,-0.44802 -13.17306,-2.10961 -15.53381,-4.79835c-2.42434,-2.76116 -2.25019,-6.07639 0.45589,-8.67881c1.74294,-1.67619 4.79826,-2.95234 5.27409,-2.2029c0.49684,0.78254 0.32074,1.14586 -0.95639,1.97309c-2.18697,1.41658 -2.15133,3.77294 0.07553,4.99739c2.30001,1.26463 4.99167,1.71346 10.20961,1.70244l4.90646,-0.01085l0.74409,1.32393c0.94416,1.6799 0.95388,3.55351 0.02454,4.73493c-0.52641,0.66922 -0.59863,0.96349 -0.26908,1.09637c0.24775,0.09993 0.28901,0.17009 0.09166,0.15599c-0.19732,-0.0141 -2.45754,-0.14628 -5.02271,-0.29373zM223.45101,232.2006c0,-0.69264 -2.39623,-1.86702 -3.80939,-1.86695c-0.766,0.00003 -2.65811,0.2422 -4.20471,0.53814c-1.54659,0.29595 -4.65865,0.53809 -6.91568,0.53809h-4.10369l-1.55714,-1.55714c-2.21323,-2.21323 -2.91414,-4.44805 -2.88726,-9.20583c0.02427,-4.28506 0.59741,-6.64329 2.56722,-10.56216c1.66466,-3.31179 2.60996,-4.66022 7.82372,-11.16024c2.39884,-2.99063 4.66222,-6.1646 5.02978,-7.05324l0.66827,-1.61573l1.84953,0.81796c2.72955,1.20713 7.41386,2.56176 11.27957,3.26187c4.83424,0.8755 16.00458,0.87316 21.28941,-0.00407c2.13912,-0.35522 3.9886,-0.54656 4.10998,-0.42519c0.12136,0.12136 0.28698,2.21178 0.36799,4.64534c0.16636,4.99719 -0.45284,8.97052 -1.96178,12.58857c-2.57344,6.17048 -3.0786,7.87981 -3.12771,10.58359l-0.04895,2.69075l1.75416,0.20143c2.31122,0.26539 3.44794,1.49806 3.44794,3.73895c0,2.18522 -0.97974,2.89949 -4.38897,3.19972c-6.63035,0.58392 -8.36672,-0.75042 -9.09488,-6.98907l-0.23362,-2.00156l1.45463,-0.86856c2.2625,-1.35095 6.021,-5.86379 7.59568,-9.12017c1.65471,-3.4219 2.29055,-6.4027 2.09689,-9.83013c-0.23646,-4.1849 -2.20161,-5.96159 -6.57826,-5.94742c-2.94581,0.00949 -4.81461,0.77295 -6.0164,2.45776c-0.73465,1.02992 -0.79136,1.45949 -0.69263,5.24756c0.11418,4.3814 -0.44398,8.25161 -1.1901,8.25161c-0.51208,0 -2.79769,4.49941 -3.37154,6.63716c-0.4901,1.82575 -0.49923,4.68497 -0.01776,5.58446c0.26929,0.50317 0.75435,0.69394 1.76449,0.69394c1.89314,0 2.46419,0.27087 3.07949,1.46073c0.74311,1.43699 0.66698,3.41988 -0.16315,4.25003c-1.12716,1.12716 -7.76757,1.4855 -10.1799,0.54934c-1.42757,-0.554 -2.3988,-3.57894 -2.73196,-8.50889c-0.11688,-1.73014 -0.37403,-3.14479 -0.57135,-3.14367c-0.19732,0.00107 -0.43949,1.25524 -0.53814,2.78694c-0.1741,2.70278 -0.20584,2.78324 -1.0763,2.72826c-1.84819,-0.11675 -5.02272,-0.58784 -5.02272,-0.74537c0,-0.0899 0.2947,-0.59204 0.65489,-1.1158c1.97523,-2.87224 2.24158,-6.80726 0.68978,-10.19052c-0.5603,-1.22155 -1.17379,-2.06289 -1.50421,-2.06289c-0.70876,0 -0.72263,-0.08759 0.36135,2.28015c1.72401,3.76574 0.97623,8.39548 -1.76968,10.95664c-0.50675,0.47265 -0.8361,0.99736 -0.73187,1.16598c0.10427,0.16864 1.15382,0.30662 2.33243,0.30662c2.44615,0 4.39596,0.68379 4.96115,1.73987c0.56989,1.06484 0.47911,3.47785 -0.15051,4.00038c-0.32597,0.27054 -0.53814,0.2994 -0.53814,0.07322zM256.12699,199.62924c0.01722,-0.41795 0.10224,-0.50296 0.21675,-0.21675c0.1036,0.25898 0.09085,0.56842 -0.02834,0.68763c-0.11919,0.11919 -0.204,-0.09275 -0.18842,-0.47087zM213.56084,187.5508c-4.52952,-2.6621 -9.52517,-7.67564 -11.52894,-11.57019c-2.21912,-4.31312 -2.76828,-6.52024 -2.76725,-11.12174c0.00136,-6.89333 1.83061,-13.13244 5.12133,-17.46944c0.9157,-1.20682 1.81934,-2.40163 2.0081,-2.65513c0.22293,-0.2994 -0.01546,-4.30546 -0.68015,-11.43252c-0.56283,-6.03438 -0.94286,-11.05208 -0.84451,-11.15044c0.17615,-0.17615 12.48243,8.22629 16.53501,11.28973c1.55407,1.17475 2.18233,1.46863 2.48744,1.16352c0.22452,-0.22452 0.33826,-0.46158 0.25275,-0.52682c-0.08543,-0.06523 -0.61185,-0.46418 -1.16967,-0.88655l-1.01421,-0.76794l1.33675,-0.55853c3.9921,-1.66801 10.10741,-2.31521 15.9392,-1.68689l3.40829,0.36721l5.07262,-5.04221l5.07264,-5.04222l0.79461,3.54331c0.43704,1.94882 1.14377,5.07038 1.57051,6.93682l0.77588,3.39352l2.08577,1.42894c6.27651,4.30001 10.61946,11.64685 11.52627,19.49866l0.25895,2.24229h-1.81074h-1.81075l0.56359,-1.34537c1.19226,-2.84609 0.0537,-8.22263 -2.58188,-12.19208c-2.83574,-4.27093 -6.26271,-6.6068 -10.03697,-6.84131c-2.66602,-0.16565 -4.26109,0.75189 -5.47117,3.14723c-1.52472,3.01815 -0.77683,8.39061 1.72453,12.38818c1.50423,2.40399 4.49717,5.44932 6.24295,6.35224l1.42,0.73443l-1.77877,0.886c-0.97834,0.4873 -1.98059,1.14352 -2.22724,1.45826c-0.38886,0.49621 -0.44846,0.44153 -0.44846,-0.41153c0,-1.59074 -1.56217,-2.02726 -5.74026,-1.60401c-4.66675,0.47274 -5.99664,0.85755 -6.32706,1.83074c-0.14927,0.43962 -0.22722,1.02477 -0.17325,1.30034c0.07824,0.3993 -0.2535,0.45186 -1.63379,0.25889c-0.95258,-0.13316 -2.65162,-0.34036 -3.77566,-0.46043l-2.04371,-0.21833l0.82818,-1.11688c1.81572,-2.44872 2.16369,-6.35728 0.92342,-10.37275c-0.77881,-2.5215 -3.10716,-6.0034 -5.01065,-7.4931l-1.16191,-0.90932l1.115,-1.53919c0.61325,-0.84656 1.11498,-1.75714 1.11498,-2.02352c0,-0.94885 -0.91099,-0.44204 -1.79382,0.99795c-2.59341,4.2301 -8.73283,8.15495 -14.08156,9.00209c-1.7834,0.28246 -2.78043,0.60434 -2.78043,0.89763c0,0.26825 0.44208,0.45727 1.06946,0.45727c0.87455,0 1.10927,0.17981 1.28789,0.98661c0.8307,3.75194 2.21491,6.4729 4.54769,8.93948c1.58363,1.67445 1.70983,1.91317 1.01133,1.91317c-0.43894,0 -1.79629,0.39936 -3.01633,0.88745c-2.13329,0.85344 -2.28683,0.86653 -4.00762,0.34153c-3.03818,-0.92693 -6.27387,-1.51929 -6.47969,-1.18626c-0.35578,0.57568 0.17156,0.93648 1.72259,1.17859c0.84299,0.13153 2.46968,0.49938 3.61491,0.81735l2.0822,0.5781l-1.05255,1.11329c-0.5789,0.61231 -1.24372,1.48527 -1.47735,1.9399c-0.61607,1.19873 -1.44673,4.06459 -1.45125,5.00685c-0.00271,0.4459 -0.32676,1.0872 -0.72142,1.42509c-0.83289,0.71316 -0.92355,1.17245 -0.23141,1.17245c0.34409,0 0.54963,0.75768 0.70353,2.59343c0.29262,3.49029 2.07151,7.12816 4.59511,9.39709c1.00481,0.90341 1.75825,1.64256 1.67432,1.64256c-0.08393,0 -1.59477,-0.84759 -3.35738,-1.88352zM249.21486,173.40356c0.25898,-0.1036 0.56842,-0.09085 0.68764,0.02834c0.11919,0.11919 -0.09275,0.20401 -0.47089,0.18844c-0.41795,-0.01722 -0.50295,-0.10224 -0.21675,-0.21675zM249.21486,172.32727c0.25898,-0.1036 0.56842,-0.09085 0.68764,0.02834c0.11919,0.11919 -0.09275,0.204 -0.47089,0.18844c-0.41795,-0.01722 -0.50295,-0.10224 -0.21675,-0.21675zM262.94353,151.19589c0.01722,-0.41795 0.10224,-0.50295 0.21675,-0.21675c0.1036,0.25898 0.09085,0.56841 -0.02834,0.68762c-0.11919,0.11919 -0.20402,-0.09275 -0.18844,-0.47087zM238.09312,128.91663c0.25899,-0.10364 0.56842,-0.09089 0.68764,0.02833c0.11919,0.11922 -0.09275,0.20401 -0.47087,0.18843c-0.41795,-0.01722 -0.50296,-0.10222 -0.21677,-0.21675z" fill="#f4a01d"/><path d="M207.24666,240.74035c-11.10436,-0.88382 -16.93778,-4.33294 -16.97018,-10.03392c-0.02047,-3.60807 2.21813,-6.23151 6.66528,-7.81099l1.75441,-0.62312v-1.67806c0,-4.33343 1.80961,-9.81975 4.77523,-14.47734c0.62821,-0.98662 3.12307,-4.26757 5.54416,-7.29105c4.16673,-5.20343 5.82894,-7.70144 5.82198,-8.74943c-0.00136,-0.2545 -1.1069,-1.14365 -2.45602,-1.97587c-6.73338,-4.15355 -11.56399,-10.09586 -13.46687,-16.56608c-1.22102,-4.1517 -1.0824,-10.2667 0.36277,-16.00351c0.77601,-3.08049 3.04937,-7.61245 4.83783,-9.64425l1.53574,-1.7447l-1.13017,-11.88237c-0.6216,-6.5353 -1.00586,-12.00668 -0.85391,-12.15863c0.15194,-0.15195 4.09659,2.37974 8.76588,5.62597l8.48961,5.90223l2.89821,-1.05772c4.05976,-1.48163 8.4291,-1.96477 13.98098,-1.54594l4.48456,0.33831l5.44973,-5.36713c5.27925,-5.19922 5.46154,-5.33987 5.82681,-4.49597c0.29686,0.68584 3.25347,13.50783 3.25347,14.10938c0,0.08102 0.71685,0.56742 1.59299,1.08087c1.96447,1.15125 5.74315,4.83337 7.33604,7.14855c2.55188,3.70902 4.37365,8.69506 4.88154,13.36037c0.22322,2.05045 0.30665,2.20541 1.40017,2.60083c1.51786,0.54887 4.03257,2.71645 4.74115,4.0867c0.54111,1.04637 0.62008,1.07438 2.3731,0.84184c2.66691,-0.35377 6.14862,-1.58587 8.27436,-2.9281c1.25557,-0.79279 1.98668,-1.06108 2.2277,-0.8175c0.80544,0.814 -4.60726,3.5849 -8.73583,4.47208c-2.90802,0.6249 -2.96366,0.65679 -2.71963,1.55865c0.13702,0.50639 0.34888,2.36264 0.4708,4.12502c0.22024,3.18328 0.22875,3.2063 1.29798,3.50757c0.59196,0.16678 2.7311,0.40398 4.75364,0.52709c2.73649,0.16657 3.67735,0.34769 3.67735,0.70792c0,0.34622 -0.53646,0.48095 -1.88352,0.47301c-2.10752,-0.0122 -6.61011,-0.54649 -7.50635,-0.89042c-0.46176,-0.1772 -0.63663,0.08637 -0.83457,1.25798c-0.6563,3.88461 -4.50302,9.20583 -8.94772,12.37751c-2.75315,1.96459 -7.96962,4.51542 -11.0215,5.38943l-2.3448,0.67153l0.16103,5.04285c0.19235,6.02316 -0.52949,10.24359 -2.53036,14.79441c-1.67586,3.81159 -2.7626,7.39971 -2.7626,9.12141c0,1.25596 0.09194,1.39727 0.90844,1.39727c2.75269,0 4.47304,1.93641 4.47304,5.03478c0,3.26783 -1.44062,4.09161 -7.17532,4.103c-4.70953,0.00949 -5.82932,-0.40607 -7.12734,-2.6442l-0.74901,-1.29147l-0.00813,1.1176c-0.01085,1.5005 -1.18397,2.9024 -2.80499,3.35261c-1.78788,0.49655 -7.48601,0.43624 -9.0301,-0.09559c-1.45334,-0.50057 -2.74037,-2.23656 -3.29699,-4.4471c-0.21354,-0.84809 -0.51165,-1.54197 -0.66247,-1.54197c-0.15081,0 -0.0377,0.68615 0.2515,1.52475c0.57901,1.67933 0.2256,3.73219 -0.78721,4.57276c-0.33171,0.27529 -0.4537,0.75842 -0.32301,1.27918c0.53726,2.14065 -1.75875,5.17453 -4.42775,5.85072c-1.99912,0.50645 -8.75212,0.72335 -12.71108,0.40825zM218.61935,239.45923c4.32195,-0.52898 6.24768,-4.69833 3.31127,-7.16916c-1.28114,-1.07802 -1.33269,-1.07795 -8.88382,0.0122c-6.18806,0.89315 -12.40402,0.29835 -15.40441,-1.47403c-1.99815,-1.18034 -1.92103,-3.54297 0.15963,-4.89066c1.27713,-0.82725 1.45322,-1.19055 0.95639,-1.9731c-0.47583,-0.74944 -3.53115,0.52671 -5.27409,2.2029c-3.61134,3.47302 -2.534,8.33293 2.40167,10.83403c4.3943,2.22675 15.1349,3.38811 22.73336,2.4581zM224.5273,230.26607c0,-0.77809 -0.17444,-1.74067 -0.38764,-2.13903c-0.56519,-1.05608 -2.515,-1.73986 -4.96115,-1.73986c-1.17862,0 -2.22821,-0.13798 -2.33243,-0.30663c-0.10427,-0.16864 0.2251,-0.69333 0.73187,-1.16598c2.74591,-2.56116 3.49368,-7.1909 1.76968,-10.95664c-1.084,-2.36775 -1.07011,-2.28015 -0.36135,-2.28015c0.33042,0 0.94392,0.84135 1.50421,2.06289c1.55181,3.38324 1.28545,7.31827 -0.68978,10.19052c-0.3602,0.52375 -0.65489,1.02587 -0.65489,1.1158c0,0.15752 3.17453,0.62863 5.02271,0.74537c0.87046,0.05492 0.9022,-0.02549 1.07629,-2.72826c0.09871,-1.5317 0.34084,-2.78583 0.53816,-2.78696c0.19732,-0.00107 0.45442,1.41354 0.57135,3.14368c0.33316,4.92995 1.30437,7.95488 2.73194,8.50889c2.41233,0.93616 9.05276,0.57782 10.17992,-0.54934c0.83013,-0.83015 0.90626,-2.81303 0.16315,-4.25004c-0.6153,-1.18985 -1.18635,-1.46071 -3.07949,-1.46071c-1.01014,0 -1.4952,-0.19077 -1.76449,-0.69395c-0.4814,-0.89949 -0.47227,-3.75871 0.01776,-5.58446c0.59913,-2.23197 2.86941,-6.63716 3.42055,-6.63716c0.68704,0 0.61931,0.61173 -0.21766,1.966c-1.16659,1.88757 -2.51582,5.84015 -2.51582,7.3701c0,0.78478 0.05546,1.42687 0.12326,1.42687c1.17865,0 7.37395,-2.85801 8.10515,-3.73906c0.60075,-0.72386 1.4583,-0.7316 1.4583,-0.01356c0,0.30414 -0.8253,1.066 -1.834,1.69304l-1.83398,1.14007l0.23158,1.98432c0.72587,6.21947 2.46803,7.55524 9.09285,6.97182c3.40923,-0.30024 4.38897,-1.01451 4.38897,-3.19972c0,-2.24089 -1.13673,-3.47357 -3.44794,-3.73896l-1.75416,-0.20141l0.04895,-2.69075c0.04909,-2.70378 0.55426,-4.41311 3.12771,-10.58359c1.50894,-3.61805 2.12815,-7.59138 1.96178,-12.58857c-0.08109,-2.43356 -0.24662,-4.52396 -0.36799,-4.64534c-0.12136,-0.12136 -1.97087,0.06997 -4.10998,0.42519c-5.28483,0.87763 -16.45517,0.87998 -21.28941,0.00407c-3.86572,-0.70011 -8.55002,-2.05473 -11.27957,-3.26188l-1.84953,-0.81794l-0.66827,1.61572c-0.36755,0.88865 -2.63094,4.06261 -5.02977,7.05324c-5.21376,6.50002 -6.15906,7.84844 -7.82372,11.16024c-1.96981,3.91887 -2.54299,6.2771 -2.56722,10.56216c-0.02685,4.75778 0.67402,6.9926 2.88726,9.20583l1.55714,1.55714h4.10369c2.25703,0 5.36909,-0.24214 6.91568,-0.53809c1.5466,-0.29594 3.43871,-0.53811 4.20471,-0.53814c1.41316,-0.00006 3.8094,1.17432 3.8094,1.86696c0,0.22622 0.21217,0.19736 0.53814,-0.07322c0.31187,-0.25883 0.53816,-1.04149 0.53816,-1.86135zM201.02578,229.4092c-0.68932,-0.90306 -1.2533,-1.8622 -1.2533,-2.13143c0,-0.90374 -0.76335,-0.97263 -1.641,-0.14812c-1.52348,1.43124 -1.04579,2.48317 1.5479,3.40869c2.49604,0.89068 2.73513,0.69019 1.3464,-1.12914zM240.44668,224.86242c-0.12841,-0.83863 -0.27971,-1.57994 -0.33614,-1.64739c-0.05641,-0.06739 -0.67975,0.0861 -1.38513,0.34115c-1.29735,0.46912 -1.71598,1.03716 -0.7644,1.03716c0.28498,0 0.97112,0.3985 1.52475,0.88558c0.55364,0.48706 1.04888,0.89068 1.10054,0.8969c0.05166,0.00678 -0.01085,-0.6748 -0.13962,-1.5134zM250.90385,193.01928c9.43523,-1.60957 17.41477,-5.43708 21.86232,-10.48661c1.85827,-2.1098 4.04861,-6.22778 4.36957,-8.21508c0.20113,-1.24538 0.15214,-1.32357 -1.08531,-1.73196c-1.4874,-0.49089 -1.87743,-1.67208 -0.43237,-1.3094c0.47497,0.11919 1.12074,0.31542 1.43507,0.43605c0.4847,0.186 0.57147,-0.11648 0.57147,-1.9922c0,-1.21632 -0.18497,-2.94607 -0.41105,-3.84389c-0.40078,-1.59168 -0.44088,-1.62755 -1.60786,-1.43817c-1.56248,0.25355 -1.93922,-0.38425 -0.51936,-0.87922c0.60677,-0.21152 1.10321,-0.53448 1.10321,-0.71769c0,-0.73032 -3.19978,-3.47265 -4.73689,-4.05968l-1.63455,-0.62424l-0.24555,-2.49202c-0.36596,-3.7139 -1.10142,-6.22773 -2.88724,-9.86868c-1.83481,-3.74084 -5.24488,-7.68788 -8.66833,-10.03327l-2.08577,-1.42894l-0.77588,-3.39352c-0.42674,-1.86644 -1.13346,-4.988 -1.57051,-6.93682l-0.79461,-3.54331l-5.07264,5.04222l-5.07262,5.04221l-3.40829,-0.36721c-5.83179,-0.62832 -11.94709,0.01887 -15.9392,1.68689l-1.33675,0.55853l1.01421,0.76794c0.55782,0.42237 1.08417,0.82132 1.16967,0.88655c0.08556,0.06523 -0.0282,0.3023 -0.25275,0.52682c-0.3051,0.30511 -0.93337,0.01125 -2.48744,-1.16352c-4.05259,-3.06344 -16.35885,-11.46589 -16.53501,-11.28973c-0.09831,0.09836 0.28168,5.11605 0.84451,11.15044c0.66476,7.12706 0.90309,11.13312 0.68015,11.43252c-0.18876,0.2535 -1.09241,1.44831 -2.0081,2.65513c-3.29072,4.337 -5.11978,10.57611 -5.12133,17.46944c-0.00061,2.76583 0.19229,4.59039 0.64484,6.09902c3.24912,10.83135 14.00863,19.23052 28.25371,22.05562c5.9834,1.18663 15.80383,1.18912 22.74065,0.00542zM209.53051,175.40395c0.12258,-0.37042 1.22484,-0.55548 4.26245,-0.71561c2.25345,-0.11878 5.62333,-0.56275 7.48865,-0.9866c1.86531,-0.42384 3.43939,-0.77063 3.49797,-0.77063c0.05858,0 0.10644,0.23909 0.10644,0.53131c0,0.29222 -0.36325,0.61561 -0.80722,0.71862c-4.23627,0.98299 -6.81749,1.3601 -10.45116,1.5269c-3.54395,0.16267 -4.23459,0.11146 -4.09717,-0.30398zM248.02645,173.29252c-5.24579,-0.60111 -9.50729,-2.54353 -9.50729,-4.33347c0,-0.91591 0.94041,-0.89148 1.18158,0.03065c0.19827,0.75819 3.07523,2.24591 5.18471,2.6811c1.04342,0.21526 1.20485,0.13492 1.55624,-0.77454c0.21564,-0.5581 0.47619,-1.5175 0.579,-2.13201c0.16515,-0.9871 0.07146,-1.14629 -0.8041,-1.36604c-0.54507,-0.1368 -1.7083,-0.74223 -2.58495,-1.34538c-2.8882,-1.98712 -3.12593,-4.61661 -0.47911,-5.29952c0.70746,-0.18253 2.82001,-0.48724 4.69455,-0.67713c4.50341,-0.4562 5.74099,-0.02834 5.73871,1.9839c-0.00271,2.30568 -2.87467,5.83882 -4.7521,5.84589c-0.35182,0.00136 -0.63477,0.27838 -0.6436,0.63021c-0.00814,0.34531 -0.24355,1.26744 -0.52198,2.04916c-0.27843,0.78173 -0.46488,1.46269 -0.41433,1.51324c0.05058,0.05058 0.99506,0.19805 2.09892,0.32779c1.50649,0.17706 2.29852,0.09044 3.17594,-0.34725c1.41515,-0.70597 1.41744,-0.70612 1.41744,-0.08895c0,1.20342 -2.32285,1.71442 -5.91962,1.30226zM221.65718,167.90389c-2.34936,-1.24649 -9.88117,-3.77873 -12.29213,-4.13267c-1.70812,-0.25076 -2.27301,-0.60698 -1.90551,-1.20161c0.48637,-0.78696 10.37497,2.15545 14.89695,4.43269c1.40669,0.70839 2.46106,1.44422 2.34305,1.63518c-0.33218,0.53748 -0.90874,0.39846 -3.04236,-0.73359zM225.2026,164.18419c-4.78521,-1.70999 -8.44054,-6.37685 -9.79844,-12.50994c-0.17862,-0.8068 -0.41334,-0.98661 -1.28789,-0.98661c-0.62738,0 -1.06946,-0.18902 -1.06946,-0.45727c0,-0.29329 0.99703,-0.61517 2.78043,-0.89763c5.34872,-0.84714 11.48815,-4.77198 14.08156,-9.00209c0.88283,-1.43999 1.79382,-1.9468 1.79382,-0.99795c0,0.26638 -0.50174,1.17696 -1.11498,2.02352l-1.115,1.53919l1.16191,0.90932c3.24489,2.5395 5.73203,7.74264 5.73203,11.99148c0,3.94601 -1.4662,6.71741 -4.32561,8.17615c-1.61913,0.82603 -4.84036,0.92581 -6.83836,0.21181zM232.63153,162.34742c1.86666,-1.42378 2.48151,-3.12444 2.46432,-6.81645c-0.0122,-2.6999 -0.16643,-3.55217 -0.93922,-5.2021c-1.0193,-2.1763 -2.81862,-4.55892 -4.33358,-5.73852l-0.98265,-0.76511l-2.04698,1.66744c-2.28737,1.8633 -5.05331,3.3461 -8.00637,4.29221c-1.08526,0.34771 -2.08621,0.73343 -2.22431,0.85716c-0.38626,0.34607 0.35168,3.15872 1.37945,5.25767c3.22219,6.58059 10.39014,9.72687 14.68935,6.44771zM227.91926,156.98235c-1.08937,-1.08937 -1.14347,-2.63487 -0.13703,-3.91434c1.55643,-1.97869 4.63791,-0.65683 4.63791,1.98951c0,1.31169 -1.43267,2.80544 -2.69073,2.80544c-0.51125,0 -1.32581,-0.39628 -1.81014,-0.8806zM258.9688,160.03881c-2.96175,-0.90419 -6.37195,-3.83321 -8.58998,-7.37796c-2.50136,-3.99757 -3.24926,-9.37004 -1.72453,-12.38818c1.21008,-2.39534 2.80515,-3.31288 5.47117,-3.14723c2.65677,0.16508 4.90058,1.21327 7.09202,3.31302c3.48348,3.33778 5.57556,7.56476 5.90762,11.93617c0.17478,2.30088 0.09099,2.79916 -0.76518,4.54907c-0.7619,1.55725 -1.27991,2.1193 -2.49573,2.70787c-1.56213,0.75622 -3.28329,0.89939 -4.89538,0.40724zM263.56392,158.57173c0.68525,-0.41779 1.47795,-1.36487 1.87564,-2.24095c2.88799,-6.36194 -4.51722,-18.15679 -11.4216,-18.19205c-2.16858,-0.01085 -3.58763,0.83341 -4.39738,2.61696c-2.43646,5.36647 1.98675,14.69028 8.3815,17.66762c2.27441,1.05896 3.99317,1.10483 5.56184,0.14842zM258.63607,152.97123c-1.49425,-1.89962 -0.48345,-4.43619 1.76778,-4.43619c1.51254,0 2.51135,1.11939 2.51135,2.81452c0,2.53188 -2.74492,3.57213 -4.27914,1.62167z" fill="#464444"/></g><path d="M231.38469,193.39403c-2.96272,-0.3469 -8.11835,-1.67287 -11.34645,-2.91818c-2.37156,-0.91488 -2.98981,-1.28541 -4.42583,-2.65251c-2.74018,-2.60866 -4.14004,-5.25559 -4.73184,-8.94718c-0.15719,-0.98054 -0.34071,-2.04722 -0.40783,-2.37042c-0.11431,-0.55047 -0.03498,-0.58765 1.25406,-0.58785c3.6121,-0.00072 12.16536,-1.24522 12.93251,-1.8819c0.29909,-0.24822 0.47311,-1.2519 0.21706,-1.2519c-0.06034,0 -1.44125,0.28677 -3.06872,0.63728c-1.62747,0.3505 -4.25181,0.76227 -5.83188,0.91503c-1.58008,0.15276 -3.49486,0.33771 -4.2551,0.41098c-1.28695,0.12407 -1.36426,0.09966 -1.12153,-0.35389c0.14338,-0.26793 0.44142,-1.35388 0.66229,-2.41323c0.47013,-2.25475 1.36176,-4.14625 2.62355,-5.56563l0.90276,-1.01552l2.03043,0.70928c1.11675,0.3901 3.17903,1.24057 4.58289,1.88993c2.48033,1.1473 3.32384,1.27768 3.32384,0.51379c0,-0.47755 -3.65709,-2.37974 -6.58521,-3.42522l-2.277,-0.813l2.46262,-0.83768c1.35445,-0.46073 2.67651,-0.83769 2.93794,-0.83769c0.26141,0 1.29415,0.4358 2.29494,0.96844c1.63634,0.87088 2.06005,0.97912 4.20628,1.07455c2.58934,0.11512 3.82615,-0.14948 5.31781,-1.13768l0.9141,-0.60557l3.65636,0.4215c2.01099,0.23183 3.69933,0.52835 3.75185,0.65895c0.33315,0.82837 1.92711,2.14709 3.58653,2.96722c1.26323,0.62432 1.93309,1.10825 1.93309,1.3965c0,0.76177 -0.74326,2.94953 -1.07083,3.15198c-0.36355,0.22469 -2.50975,-0.36683 -4.02194,-1.10849c-0.57458,-0.2818 -1.42215,-0.94462 -1.8835,-1.47291c-0.79213,-0.90706 -0.86378,-0.93563 -1.28687,-0.51315c-0.36367,0.36315 -0.3935,0.5671 -0.15842,1.08305c0.70358,1.5442 3.72419,2.93478 7.99132,3.67891c1.26556,0.22069 2.38815,0.45512 2.49466,0.52094c0.29499,0.18232 3.54884,-0.32719 4.31298,-0.67536c0.44511,-0.20281 0.67415,-0.51474 0.67415,-0.91816c0,-0.71775 -0.1476,-0.74092 -1.39616,-0.21924c-0.95064,0.39721 -3.45572,0.51907 -4.56483,0.22207c-0.46769,-0.12524 -0.57117,-0.28928 -0.45086,-0.71465c0.08583,-0.30366 0.31178,-1.13375 0.50196,-1.84468c0.31533,-1.17861 0.44107,-1.32433 1.42594,-1.65263c1.31895,-0.43965 3.00619,-2.25592 3.85311,-4.14777c0.6271,-1.4008 1.53312,-2.24162 3.45677,-3.20802c1.0194,-0.51212 1.26645,-0.5382 2.55819,-0.27003c2.41411,0.50116 4.83177,-0.21107 6.18812,-1.82299c0.62029,-0.73716 0.79355,-0.79495 2.38338,-0.79495c1.30722,0 1.71446,0.08812 1.71446,0.371c0,0.20405 0.3399,0.44566 0.75532,0.5369c1.46064,0.32082 5.5127,3.38575 5.5127,4.16977c0,0.17056 -0.42034,0.51057 -0.93408,0.75555c-1.19757,0.57108 -1.02854,1.08773 0.3559,1.08773c0.58824,0 1.18453,0.11751 1.32506,0.26116c0.37396,0.3822 0.82013,3.10915 0.82013,5.01244v1.65191l-1.43641,-0.16883c-1.22918,-0.14446 -1.43643,-0.10663 -1.43643,0.26228c0,0.25365 0.49473,0.67146 1.2019,1.01503c1.1984,0.58223 1.20152,0.58726 1.07293,1.72801c-0.17096,1.51679 -2.18991,5.52124 -3.76416,7.46597c-4.42066,5.46101 -12.91384,9.58383 -23.19108,11.25759c-3.09145,0.50348 -15.27198,0.73415 -18.54294,0.35115z" fill="#ffffff" stroke-width="0.81242"/><path d="M235.4328,222.49498c0,-1.49615 0.73942,-3.96075 1.97334,-6.57735c0.63293,-1.34218 1.14396,-2.69371 1.13565,-3.00344c-0.00814,-0.30972 0.11566,-1.03322 0.27551,-1.60779c0.15984,-0.57456 0.35745,-3.27766 0.43911,-6.00687c0.14071,-4.702 0.1823,-5.01476 0.79316,-5.96474c0.99353,-1.54507 2.93026,-2.32446 5.79253,-2.33106c4.83357,-0.01085 6.45378,1.75333 6.41843,6.98997c-0.02034,3.01664 -0.50747,5.15353 -1.79736,7.88495c-1.64647,3.48644 -4.77786,7.53273 -5.62217,7.26475c-0.27778,-0.08814 -1.00943,0.23068 -1.864,0.8123c-1.53299,1.04336 -4.01877,2.24861 -6.17306,2.99307l-1.37113,0.47381z" fill="#ffffff" stroke-width="0.81242"/><path d="M227.2453,163.35894c-1.92022,-0.30657 -3.96356,-1.43584 -5.88243,-3.25095c-1.97793,-1.87099 -3.1857,-3.72988 -4.09193,-6.29798c-1.00579,-2.8502 -0.95415,-3.0221 1.12064,-3.73072c3.05876,-1.04469 6.00905,-2.59158 8.35142,-4.37881l2.26597,-1.72893l1.85034,1.96146c1.19065,1.26216 2.21742,2.68469 2.87998,3.99004c0.96983,1.91071 1.03559,2.18882 1.13173,4.78612c0.13465,3.63894 -0.21905,5.16558 -1.54643,6.67356c-1.48246,1.68417 -3.59899,2.3722 -6.07927,1.97621zM231.31412,157.38403c1.96951,-1.54921 1.28643,-4.83763 -1.11443,-5.36494c-2.93762,-0.64521 -4.42695,4.04862 -1.75539,5.53231c0.87629,0.48667 2.1314,0.41347 2.86982,-0.16737z" fill="#ffffff" stroke-width="0.81242"/><path d="M259.32627,158.73357c-2.14789,-0.74272 -3.61146,-1.75173 -5.54675,-3.82402c-5.21357,-5.58265 -6.29358,-13.96562 -2.07642,-16.11706c1.54497,-0.78819 3.75983,-0.573 5.91268,0.57445c4.62803,2.46671 8.87148,10.03313 8.25324,14.71622c-0.3086,2.33774 -1.7835,4.35643 -3.55385,4.86416c-1.18019,0.33847 -1.44711,0.31939 -2.98891,-0.21375zM261.82573,153.71083c0.27661,-0.14804 0.74029,-0.76044 1.0304,-1.36088l0.52746,-1.09172l-0.52125,-1.1089c-0.61525,-1.30892 -1.16045,-1.65387 -2.61385,-1.65387c-1.4321,0 -2.35522,0.9413 -2.35522,2.40162c0,1.14746 0.55561,2.40189 1.24055,2.80082c0.5962,0.34725 2.05414,0.35426 2.69192,0.01288z" fill="#ffffff" stroke-width="0.81242"/><path d="M213.95636,238.6394c0.76382,-1.23588 0.72407,-3.11531 -0.10034,-4.7437c-0.35418,-0.69961 -0.58979,-1.32619 -0.52358,-1.3924c0.21475,-0.21475 4.6536,-0.80787 6.08943,-0.81367c3.9473,-0.016 5.04323,4.41155 1.65685,6.69364c-1.12033,0.75497 -2.98717,1.13577 -5.56822,1.13577h-2.0978z" fill="#ffffff" stroke-width="0.81242"/></g></g></svg>